CactusClassicalSerif-Regular.ufo
<glyph name="numbersign" format="2">
  <advance width="567" height="1000"/>
  <unicode hex="0023"/>
  <outline>
    <contour>
      <point x="100" y="0" type="line"/>
      <point x="131" y="203" type="line"/>
      <point x="26" y="203" type="line"/>
      <point x="26" y="277" type="line"/>
      <point x="142" y="277" type="line"/>
      <point x="167" y="438" type="line"/>
      <point x="62" y="438" type="line"/>
      <point x="62" y="512" type="line"/>
      <point x="178" y="512" type="line"/>
      <point x="208" y="707" type="line"/>
      <point x="247" y="707" type="line"/>
      <point x="217" y="512" type="line"/>
      <point x="396" y="512" type="line"/>
      <point x="426" y="707" type="line"/>
      <point x="465" y="707" type="line"/>
      <point x="435" y="512" type="line"/>
      <point x="541" y="512" type="line"/>
      <point x="541" y="438" type="line"/>
      <point x="424" y="438" type="line"/>
      <point x="400" y="277" type="line"/>
      <point x="505" y="277" type="line"/>
      <point x="505" y="203" type="line"/>
      <point x="389" y="203" type="line"/>
      <point x="358" y="0" type="line"/>
      <point x="318" y="0" type="line"/>
      <point x="349" y="203" type="line"/>
      <point x="170" y="203" type="line"/>
      <point x="139" y="0" type="line"/>
    </contour>
    <contour>
      <point x="181" y="277" type="line"/>
      <point x="360" y="277" type="line"/>
      <point x="385" y="438" type="line"/>
      <point x="206" y="438" type="line"/>
    </contour>
  </outline>
</glyph>
<glyph name="dollar" format="2">
  <advance width="539" height="1000"/>
  <unicode hex="0024"/>
  <outline>
    <contour>
      <point x="261" y="-125" type="line"/>
      <point x="261" y="-14" type="line"/>
      <point x="175" y="-13"/>
      <point x="63" y="72"/>
      <point x="55" y="142" type="qcurve"/>
      <point x="69" y="174"/>
      <point x="100" y="174" type="qcurve"/>
      <point x="142" y="174"/>
      <point x="155" y="113" type="qcurve"/>
      <point x="171" y="43" type="line"/>
      <point x="212" y="30"/>
      <point x="261" y="28" type="qcurve"/>
      <point x="261" y="317" type="line"/>
      <point x="245" y="323" type="line"/>
      <point x="158" y="356"/>
      <point x="116" y="402" type="qcurve"/>
      <point x="70" y="452"/>
      <point x="70" y="527" type="qcurve"/>
      <point x="70" y="606"/>
      <point x="178" y="713"/>
      <point x="262" y="718" type="qcurve"/>
      <point x="262" y="819" type="line"/>
      <point x="299" y="819" type="line"/>
      <point x="299" y="718" type="line"/>
      <point x="373" y="713"/>
      <point x="473" y="628"/>
      <point x="480" y="563" type="qcurve"/>
      <point x="472" y="532"/>
      <point x="438" y="532" type="qcurve"/>
      <point x="395" y="532"/>
      <point x="382" y="591" type="qcurve"/>
      <point x="365" y="663" type="line"/>
      <point x="335" y="673"/>
      <point x="299" y="675" type="qcurve"/>
      <point x="299" y="393" type="line"/>
      <point x="305" y="391" type="line"/>
      <point x="409" y="353"/>
      <point x="455" y="298" type="qcurve"/>
      <point x="494" y="249"/>
      <point x="494" y="180" type="qcurve"/>
      <point x="494" y="100"/>
      <point x="388" y="-4"/>
      <point x="298" y="-12" type="qcurve"/>
      <point x="298" y="-125" type="line"/>
    </contour>
    <contour>
      <point x="298" y="30" type="line"/>
      <point x="355" y="38"/>
      <point x="421" y="107"/>
      <point x="421" y="163" type="qcurve"/>
      <point x="421" y="213"/>
      <point x="365" y="276"/>
      <point x="298" y="303" type="qcurve"/>
    </contour>
    <contour>
      <point x="262" y="407" type="qcurve"/>
      <point x="262" y="673" type="line"/>
      <point x="208" y="667"/>
      <point x="176" y="635" type="qcurve"/>
      <point x="142" y="601"/>
      <point x="142" y="546" type="qcurve"/>
      <point x="142" y="495"/>
      <point x="173" y="461" type="qcurve"/>
      <point x="201" y="430"/>
    </contour>
  </outline>
</glyph>
<glyph name="ampersand" format="2">
  <advance width="780" height="1000"/>
  <unicode hex="0026"/>
  <outline>
    <contour>
      <point x="263" y="-14" type="qcurve"/>
      <point x="163" y="-14"/>
      <point x="99" y="44" type="qcurve"/>
      <point x="36" y="101"/>
      <point x="36" y="185" type="qcurve"/>
      <point x="36" y="326"/>
      <point x="203" y="412" type="qcurve"/>
      <point x="192" y="425" type="line"/>
      <point x="118" y="509"/>
      <point x="118" y="594" type="qcurve"/>
      <point x="118" y="663"/>
      <point x="167" y="705" type="qcurve"/>
      <point x="215" y="746"/>
      <point x="290" y="746" type="qcurve"/>
      <point x="366" y="746"/>
      <point x="409" y="707" type="qcurve"/>
      <point x="450" y="669"/>
      <point x="450" y="607" type="qcurve"/>
      <point x="450" y="551"/>
      <point x="410" y="505" type="qcurve"/>
      <point x="372" y="462"/>
      <point x="288" y="416" type="qcurve"/>
      <point x="301" y="401"/>
      <point x="360" y="337"/>
      <point x="377" y="318" type="qcurve"/>
      <point x="400" y="293"/>
      <point x="445" y="244" type="qcurve"/>
      <point x="489" y="198"/>
      <point x="512" y="173" type="qcurve"/>
      <point x="579" y="280"/>
      <point x="606" y="416" type="qcurve"/>
      <point x="517" y="428" type="line"/>
      <point x="517" y="464" type="line"/>
      <point x="733" y="464" type="line"/>
      <point x="733" y="428" type="line"/>
      <point x="649" y="415" type="line"/>
      <point x="617" y="266"/>
      <point x="536" y="147" type="qcurve"/>
      <point x="635" y="42" type="line"/>
      <point x="732" y="32" type="line"/>
      <point x="728" y="-2" type="line"/>
      <point x="688" y="-12"/>
      <point x="653" y="-12" type="qcurve"/>
      <point x="612" y="-12"/>
      <point x="586" y="-2" type="qcurve"/>
      <point x="559" y="8"/>
      <point x="536" y="33" type="qcurve"/>
      <point x="488" y="86" type="line"/>
      <point x="401" y="-14"/>
    </contour>
    <contour>
      <point x="286" y="45" type="qcurve"/>
      <point x="394" y="45"/>
      <point x="463" y="114" type="qcurve"/>
      <point x="426" y="155"/>
      <point x="360" y="230" type="qcurve"/>
      <point x="347" y="245"/>
      <point x="340" y="252" type="qcurve"/>
      <point x="285" y="317"/>
      <point x="225" y="387" type="qcurve"/>
      <point x="114" y="321"/>
      <point x="114" y="210" type="qcurve"/>
      <point x="114" y="143"/>
      <point x="159" y="96" type="qcurve"/>
      <point x="207" y="45"/>
    </contour>
    <contour>
      <point x="267" y="441" type="qcurve"/>
      <point x="327" y="481"/>
      <point x="355" y="515" type="qcurve"/>
      <point x="389" y="557"/>
      <point x="389" y="604" type="qcurve"/>
      <point x="389" y="653"/>
      <point x="334" y="711"/>
      <point x="290" y="711" type="qcurve"/>
      <point x="246" y="711"/>
      <point x="184" y="650"/>
      <point x="184" y="604" type="qcurve"/>
      <point x="184" y="571"/>
      <point x="194" y="546" type="qcurve"/>
      <point x="205" y="516"/>
      <point x="236" y="478" type="qcurve"/>
      <point x="247" y="465"/>
    </contour>
  </outline>
</glyph>
<glyph name="parenleft" format="2">
  <advance width="361" height="1000"/>
  <unicode hex="0028"/>
  <outline>
    <contour>
      <point x="312" y="-215" type="line"/>
      <point x="199" y="-102"/>
      <point x="90" y="152"/>
      <point x="90" y="302" type="qcurve"/>
      <point x="90" y="598"/>
      <point x="312" y="820" type="qcurve"/>
      <point x="333" y="802" type="line"/>
      <point x="237" y="663"/>
      <point x="199" y="549" type="qcurve"/>
      <point x="164" y="441"/>
      <point x="164" y="164"/>
      <point x="200" y="55" type="qcurve"/>
      <point x="238" y="-59"/>
      <point x="333" y="-198" type="qcurve"/>
    </contour>
  </outline>
</glyph>
<glyph name="comma" format="2">
  <advance width="326" height="1000"/>
  <unicode hex="002C"/>
  <outline>
    <contour>
      <point x="35" y="-239" type="qcurve"/>
      <point x="22" y="-210" type="line"/>
      <point x="142" y="-145"/>
      <point x="171" y="-36" type="qcurve"/>
      <point x="133" y="-7" type="line"/>
      <point x="97" y="23"/>
      <point x="97" y="61" type="qcurve"/>
      <point x="97" y="86"/>
      <point x="111" y="103" type="qcurve"/>
      <point x="126" y="121"/>
      <point x="153" y="121" type="qcurve"/>
      <point x="182" y="121"/>
      <point x="213" y="93" type="qcurve"/>
      <point x="224" y="54"/>
      <point x="224" y="22" type="qcurve"/>
      <point x="224" y="-63"/>
      <point x="166" y="-138" type="qcurve"/>
      <point x="113" y="-206"/>
    </contour>
  </outline>
</glyph>
<glyph name="hyphenminus" format="2">
  <advance width="338" height="1000"/>
  <unicode hex="002D"/>
  <unicode hex="00AD"/>
  <unicode hex="2011"/>
  <outline>
    <contour>
      <point x="43" y="243" type="line"/>
      <point x="43" y="301" type="line"/>
      <point x="295" y="301" type="line"/>
      <point x="295" y="243" type="line"/>
    </contour>
  </outline>
</glyph>
<glyph name="slash" format="2">
  <advance width="348" height="1000"/>
  <unicode hex="002F"/>
  <outline>
    <contour>
      <point x="3" y="-174" type="line"/>
      <point x="293" y="772" type="line"/>
      <point x="345" y="772" type="line"/>
      <point x="54" y="-174" type="line"/>
    </contour>
  </outline>
</glyph>
<glyph name="one" format="2">
  <advance width="539" height="1000"/>
  <unicode hex="0031"/>
  <outline>
    <contour>
      <point x="83" y="0" type="line"/>
      <point x="83" y="32" type="line"/>
      <point x="241" y="52" type="line"/>
      <point x="241" y="54" type="line"/>
      <point x="243" y="171"/>
      <point x="243" y="229" type="qcurve"/>
      <point x="243" y="664" type="line"/>
      <point x="93" y="647" type="line"/>
      <point x="93" y="683" type="line"/>
      <point x="309" y="739" type="line"/>
      <point x="324" y="728" type="line"/>
      <point x="320" y="572" type="line"/>
      <point x="320" y="229" type="line"/>
      <point x="320" y="171"/>
      <point x="322" y="54" type="qcurve"/>
      <point x="322" y="51" type="line"/>
      <point x="478" y="32" type="line"/>
      <point x="478" y="0" type="line"/>
    </contour>
  </outline>
</glyph>
<glyph name="three" format="2">
  <advance width="547" height="1000"/>
  <unicode hex="0033"/>
  <outline>
    <contour>
      <point x="256" y="-15" type="qcurve"/>
      <point x="171" y="-15"/>
      <point x="63" y="57"/>
      <point x="47" y="126" type="qcurve"/>
      <point x="58" y="156"/>
      <point x="88" y="156" type="qcurve"/>
      <point x="123" y="156"/>
      <point x="135" y="106" type="qcurve"/>
      <point x="157" y="31" type="line"/>
      <point x="193" y="16"/>
      <point x="235" y="16" type="qcurve"/>
      <point x="317" y="16"/>
      <point x="410" y="111"/>
      <point x="410" y="191" type="qcurve"/>
      <point x="410" y="280"/>
      <point x="317" y="375"/>
      <point x="227" y="375" type="qcurve"/>
      <point x="181" y="375" type="line"/>
      <point x="181" y="409" type="line"/>
      <point x="222" y="409" type="line"/>
      <point x="297" y="409"/>
      <point x="342" y="450" type="qcurve"/>
      <point x="389" y="492"/>
      <point x="389" y="564" type="qcurve"/>
      <point x="389" y="630"/>
      <point x="350" y="667" type="qcurve"/>
      <point x="314" y="700"/>
      <point x="259" y="700" type="qcurve"/>
      <point x="219" y="700"/>
      <point x="184" y="682" type="qcurve"/>
      <point x="148" y="663"/>
      <point x="106" y="619" type="qcurve"/>
      <point x="89" y="635" type="line"/>
      <point x="159" y="742"/>
      <point x="282" y="742" type="qcurve"/>
      <point x="367" y="742"/>
      <point x="470" y="645"/>
      <point x="470" y="567" type="qcurve"/>
      <point x="470" y="508"/>
      <point x="429" y="462" type="qcurve"/>
      <point x="385" y="413"/>
      <point x="307" y="394" type="qcurve"/>
      <point x="492" y="366"/>
      <point x="492" y="188" type="qcurve"/>
      <point x="492" y="97"/>
      <point x="360" y="-15"/>
    </contour>
  </outline>
</glyph>
<glyph name="four" format="2">
  <advance width="539" height="1000"/>
  <unicode hex="0034"/>
  <outline>
    <contour>
      <point x="330" y="0" type="line"/>
      <point x="330" y="234" type="line"/>
      <point x="29" y="234" type="line"/>
      <point x="29" y="280" type="line"/>
      <point x="353" y="740" type="line"/>
      <point x="405" y="740" type="line"/>
      <point x="405" y="290" type="line"/>
      <point x="523" y="290" type="line"/>
      <point x="523" y="234" type="line"/>
      <point x="405" y="234" type="line"/>
      <point x="405" y="0" type="line"/>
    </contour>
    <contour>
      <point x="83" y="290" type="line"/>
      <point x="330" y="290" type="line"/>
      <point x="330" y="645" type="line"/>
    </contour>
  </outline>
</glyph>
<glyph name="seven" format="2">
  <advance width="539" height="1000"/>
  <unicode hex="0037"/>
  <outline>
    <contour>
      <point x="158" y="0" type="line"/>
      <point x="148" y="10" type="line"/>
      <point x="434" y="655" type="line"/>
      <point x="53" y="655" type="line"/>
      <point x="53" y="729" type="line"/>
      <point x="490" y="729" type="line"/>
      <point x="490" y="683" type="line"/>
      <point x="229" y="0" type="line"/>
    </contour>
  </outline>
</glyph>
<glyph name="eight" format="2">
  <advance width="539" height="1000"/>
  <unicode hex="0038"/>
  <outline>
    <contour>
      <point x="270" y="-14" type="qcurve"/>
      <point x="169" y="-14"/>
      <point x="111" y="33" type="qcurve"/>
      <point x="50" y="81"/>
      <point x="50" y="166" type="qcurve"/>
      <point x="50" y="228"/>
      <point x="91" y="276" type="qcurve"/>
      <point x="129" y="322"/>
      <point x="210" y="362" type="qcurve"/>
      <point x="74" y="434"/>
      <point x="74" y="567" type="qcurve"/>
      <point x="74" y="646"/>
      <point x="132" y="696" type="qcurve"/>
      <point x="188" y="744"/>
      <point x="272" y="744" type="qcurve"/>
      <point x="355" y="744"/>
      <point x="406" y="696" type="qcurve"/>
      <point x="455" y="649"/>
      <point x="455" y="575" type="qcurve"/>
      <point x="455" y="461"/>
      <point x="321" y="388" type="qcurve"/>
      <point x="410" y="347"/>
      <point x="489" y="248"/>
      <point x="489" y="176" type="qcurve"/>
      <point x="489" y="92"/>
      <point x="365" y="-14"/>
    </contour>
    <contour>
      <point x="272" y="25" type="qcurve"/>
      <point x="336" y="25"/>
      <point x="413" y="103"/>
      <point x="413" y="166" type="qcurve"/>
      <point x="413" y="220"/>
      <point x="377" y="260" type="qcurve"/>
      <point x="338" y="302"/>
      <point x="242" y="346" type="qcurve"/>
      <point x="180" y="309"/>
      <point x="154" y="271" type="qcurve"/>
      <point x="125" y="231"/>
      <point x="125" y="174" type="qcurve"/>
      <point x="125" y="108"/>
      <point x="206" y="25"/>
    </contour>
    <contour>
      <point x="289" y="403" type="qcurve"/>
      <point x="343" y="442"/>
      <point x="388" y="521"/>
      <point x="388" y="576" type="qcurve"/>
      <point x="388" y="630"/>
      <point x="358" y="665" type="qcurve"/>
      <point x="325" y="703"/>
      <point x="270" y="703" type="qcurve"/>
      <point x="218" y="703"/>
      <point x="183" y="670" type="qcurve"/>
      <point x="146" y="636"/>
      <point x="146" y="580" type="qcurve"/>
      <point x="146" y="528"/>
      <point x="175" y="488" type="qcurve"/>
      <point x="209" y="441"/>
    </contour>
  </outline>
</glyph>
<glyph name="nine" format="2">
  <advance width="539" height="1000"/>
  <unicode hex="0039"/>
  <outline>
    <contour>
      <point x="93" y="-18" type="qcurve"/>
      <point x="85" y="14" type="line"/>
      <point x="356" y="105"/>
      <point x="395" y="353" type="qcurve"/>
      <point x="338" y="295"/>
      <point x="247" y="295" type="qcurve"/>
      <point x="156" y="295"/>
      <point x="97" y="354" type="qcurve"/>
      <point x="36" y="414"/>
      <point x="37" y="514" type="qcurve"/>
      <point x="37" y="617"/>
      <point x="162" y="744"/>
      <point x="262" y="744" type="qcurve"/>
      <point x="364" y="744"/>
      <point x="484" y="588"/>
      <point x="484" y="455" type="qcurve"/>
      <point x="484" y="284"/>
      <point x="392" y="163" type="qcurve"/>
      <point x="290" y="31"/>
    </contour>
    <contour>
      <point x="272" y="347" type="qcurve"/>
      <point x="346" y="347"/>
      <point x="400" y="398" type="qcurve"/>
      <point x="402" y="430"/>
      <point x="402" y="446" type="qcurve"/>
      <point x="402" y="573"/>
      <point x="361" y="640" type="qcurve"/>
      <point x="323" y="703"/>
      <point x="258" y="703" type="qcurve"/>
      <point x="198" y="703"/>
      <point x="159" y="657" type="qcurve"/>
      <point x="117" y="607"/>
      <point x="117" y="436"/>
      <point x="162" y="390" type="qcurve"/>
      <point x="203" y="347"/>
    </contour>
  </outline>
</glyph>
<glyph name="colon" format="2">
  <advance width="326" height="1000"/>
  <unicode hex="003A"/>
  <outline>
    <contour>
      <point x="135" y="-13"/>
      <point x="97" y="26"/>
      <point x="97" y="81"/>
      <point x="135" y="121"/>
      <point x="163" y="121" type="qcurve"/>
      <point x="191" y="121"/>
      <point x="229" y="81"/>
      <point x="229" y="26"/>
      <point x="191" y="-13"/>
    </contour>
    <contour>
      <point x="135" y="398"/>
      <point x="97" y="437"/>
      <point x="97" y="492"/>
      <point x="135" y="532"/>
      <point x="163" y="532" type="qcurve"/>
      <point x="191" y="532"/>
      <point x="229" y="492"/>
      <point x="229" y="437"/>
      <point x="191" y="398"/>
    </contour>
  </outline>
</glyph>
<glyph name="less" format="2">
  <advance width="576" height="1000"/>
  <unicode hex="003C"/>
  <outline>
    <contour>
      <point x="485" y="93" type="line"/>
      <point x="64" y="340" type="line"/>
      <point x="64" y="379" type="line"/>
      <point x="485" y="626" type="line"/>
      <point x="510" y="583" type="line"/>
      <point x="121" y="360" type="line"/>
      <point x="510" y="137" type="line"/>
    </contour>
  </outline>
</glyph>
<glyph name="E" format="2">
  <advance width="655" height="1000"/>
  <unicode hex="0045"/>
  <outline>
    <contour>
      <point x="52" y="0" type="line"/>
      <point x="52" y="36" type="line"/>
      <point x="156" y="47" type="line"/>
      <point x="159" y="142"/>
      <point x="159" y="337" type="qcurve"/>
      <point x="159" y="392" type="line"/>
      <point x="159" y="587"/>
      <point x="156" y="683" type="qcurve"/>
      <point x="52" y="694" type="line"/>
      <point x="52" y="729" type="line"/>
      <point x="587" y="729" type="line"/>
      <point x="594" y="541" type="line"/>
      <point x="545" y="541" type="line"/>
      <point x="518" y="685" type="line"/>
      <point x="245" y="685" type="line"/>
      <point x="242" y="591"/>
      <point x="242" y="391" type="qcurve"/>
      <point x="417" y="391" type="line"/>
      <point x="432" y="499" type="line"/>
      <point x="473" y="499" type="line"/>
      <point x="473" y="246" type="line"/>
      <point x="432" y="246" type="line"/>
      <point x="418" y="351" type="line"/>
      <point x="242" y="351" type="line"/>
      <point x="242" y="142"/>
      <point x="245" y="45" type="qcurve"/>
      <point x="538" y="45" type="line"/>
      <point x="564" y="189" type="line"/>
      <point x="614" y="189" type="line"/>
      <point x="607" y="0" type="line"/>
    </contour>
  </outline>
</glyph>
<glyph name="G" format="2">
  <advance width="742" height="1000"/>
  <unicode hex="0047"/>
  <outline>
    <contour>
      <point x="420" y="-16" type="qcurve"/>
      <point x="258" y="-16"/>
      <point x="55" y="198"/>
      <point x="55" y="365" type="qcurve"/>
      <point x="55" y="531"/>
      <point x="261" y="746"/>
      <point x="423" y="746" type="qcurve"/>
      <point x="549" y="746"/>
      <point x="641" y="690" type="qcurve"/>
      <point x="645" y="533" type="line"/>
      <point x="589" y="533" type="line"/>
      <point x="567" y="665" type="line"/>
      <point x="507" y="701"/>
      <point x="432" y="701" type="qcurve"/>
      <point x="307" y="701"/>
      <point x="231" y="612" type="qcurve"/>
      <point x="153" y="521"/>
      <point x="153" y="208"/>
      <point x="304" y="29"/>
      <point x="435" y="29" type="qcurve"/>
      <point x="501" y="29"/>
      <point x="571" y="57" type="qcurve"/>
      <point x="571" y="99" type="line"/>
      <point x="571" y="200"/>
      <point x="568" y="302" type="qcurve"/>
      <point x="451" y="311" type="line"/>
      <point x="451" y="347" type="line"/>
      <point x="727" y="347" type="line"/>
      <point x="727" y="311" type="line"/>
      <point x="658" y="304" type="line"/>
      <point x="655" y="205"/>
      <point x="655" y="98" type="qcurve"/>
      <point x="655" y="49" type="line"/>
      <point x="535" y="-16"/>
    </contour>
  </outline>
</glyph>
<glyph name="K" format="2">
  <advance width="723" height="1000"/>
  <unicode hex="004B"/>
  <outline>
    <contour>
      <point x="52" y="0" type="line"/>
      <point x="52" y="36" type="line"/>
      <point x="156" y="47" type="line"/>
      <point x="159" y="142"/>
      <point x="159" y="337" type="qcurve"/>
      <point x="159" y="392" type="line"/>
      <point x="159" y="587"/>
      <point x="156" y="683" type="qcurve"/>
      <point x="52" y="694" type="line"/>
      <point x="52" y="729" type="line"/>
      <point x="349" y="729" type="line"/>
      <point x="349" y="694" type="line"/>
      <point x="242" y="682" type="line"/>
      <point x="240" y="588"/>
      <point x="240" y="392" type="qcurve"/>
      <point x="240" y="308" type="line"/>
      <point x="545" y="680" type="line"/>
      <point x="452" y="694" type="line"/>
      <point x="452" y="729" type="line"/>
      <point x="701" y="729" type="line"/>
      <point x="701" y="694" type="line"/>
      <point x="600" y="680" type="line"/>
      <point x="408" y="449" type="line"/>
      <point x="634" y="46" type="line"/>
      <point x="722" y="36" type="line"/>
      <point x="722" y="0" type="line"/>
      <point x="450" y="0" type="line"/>
      <point x="450" y="36" type="line"/>
      <point x="546" y="46" type="line"/>
      <point x="358" y="389" type="line"/>
      <point x="240" y="247" type="line"/>
      <point x="240" y="120"/>
      <point x="242" y="47" type="qcurve"/>
      <point x="349" y="36" type="line"/>
      <point x="349" y="0" type="line"/>
    </contour>
  </outline>
</glyph>
<glyph name="L" format="2">
  <advance width="640" height="1000"/>
  <unicode hex="004C"/>
  <outline>
    <contour>
      <point x="52" y="0" type="line"/>
      <point x="52" y="36" type="line"/>
      <point x="156" y="47" type="line"/>
      <point x="159" y="143"/>
      <point x="159" y="336" type="qcurve"/>
      <point x="159" y="392" type="line"/>
      <point x="159" y="588"/>
      <point x="156" y="683" type="qcurve"/>
      <point x="52" y="694" type="line"/>
      <point x="52" y="729" type="line"/>
      <point x="349" y="729" type="line"/>
      <point x="349" y="694" type="line"/>
      <point x="245" y="683" type="line"/>
      <point x="242" y="587"/>
      <point x="242" y="387" type="qcurve"/>
      <point x="242" y="317" type="line"/>
      <point x="242" y="140"/>
      <point x="245" y="45" type="qcurve"/>
      <point x="509" y="45" type="line"/>
      <point x="541" y="199" type="line"/>
      <point x="594" y="199" type="line"/>
      <point x="585" y="0" type="line"/>
    </contour>
  </outline>
</glyph>
<glyph name="N" format="2">
  <advance width="798" height="1000"/>
  <unicode hex="004E"/>
  <outline>
    <contour>
      <point x="628" y="-8" type="line"/>
      <point x="183" y="609" type="line"/>
      <point x="184" y="49" type="line"/>
      <point x="300" y="36" type="line"/>
      <point x="300" y="0" type="line"/>
      <point x="43" y="0" type="line"/>
      <point x="43" y="36" type="line"/>
      <point x="137" y="48" type="line"/>
      <point x="138" y="672" type="line"/>
      <point x="129" y="685" type="line"/>
      <point x="47" y="695" type="line"/>
      <point x="47" y="729" type="line"/>
      <point x="203" y="729" type="line"/>
      <point x="617" y="150" type="line"/>
      <point x="616" y="680" type="line"/>
      <point x="499" y="694" type="line"/>
      <point x="499" y="729" type="line"/>
      <point x="755" y="729" type="line"/>
      <point x="755" y="694" type="line"/>
      <point x="662" y="681" type="line"/>
      <point x="661" y="-8" type="line"/>
    </contour>
  </outline>
</glyph>
<glyph name="S" format="2">
  <advance width="557" height="1000"/>
  <unicode hex="0053"/>
  <outline>
    <contour>
      <point x="257" y="-16" type="qcurve"/>
      <point x="199" y="-16"/>
      <point x="140" y="1" type="qcurve"/>
      <point x="88" y="17"/>
      <point x="49" y="42" type="qcurve"/>
      <point x="54" y="192" type="line"/>
      <point x="105" y="192" type="line"/>
      <point x="129" y="60" type="line"/>
      <point x="183" y="29"/>
      <point x="252" y="29" type="qcurve"/>
      <point x="336" y="29"/>
      <point x="384" y="65" type="qcurve"/>
      <point x="434" y="103"/>
      <point x="434" y="171" type="qcurve"/>
      <point x="434" y="224"/>
      <point x="400" y="257" type="qcurve"/>
      <point x="368" y="289"/>
      <point x="288" y="321" type="qcurve"/>
      <point x="247" y="337" type="line"/>
      <point x="158" y="373"/>
      <point x="114" y="421" type="qcurve"/>
      <point x="64" y="475"/>
      <point x="64" y="550" type="qcurve"/>
      <point x="64" y="641"/>
      <point x="133" y="695" type="qcurve"/>
      <point x="198" y="746"/>
      <point x="300" y="746" type="qcurve"/>
      <point x="398" y="746"/>
      <point x="476" y="689" type="qcurve"/>
      <point x="471" y="549" type="line"/>
      <point x="418" y="549" type="line"/>
      <point x="394" y="676" type="line"/>
      <point x="352" y="701"/>
      <point x="298" y="701" type="qcurve"/>
      <point x="227" y="701"/>
      <point x="185" y="668" type="qcurve"/>
      <point x="140" y="634"/>
      <point x="140" y="571" type="qcurve"/>
      <point x="140" y="518"/>
      <point x="174" y="482" type="qcurve"/>
      <point x="204" y="448"/>
      <point x="267" y="424" type="qcurve"/>
      <point x="310" y="408" type="line"/>
      <point x="420" y="364"/>
      <point x="510" y="264"/>
      <point x="510" y="188" type="qcurve"/>
      <point x="510" y="94"/>
      <point x="438" y="38" type="qcurve"/>
      <point x="369" y="-16"/>
    </contour>
  </outline>
</glyph>
<glyph name="T" format="2">
  <advance width="653" height="1000"/>
  <unicode hex="0054"/>
  <outline>
    <contour>
      <point x="167" y="0" type="line"/>
      <point x="167" y="36" type="line"/>
      <point x="283" y="47" type="line"/>
      <point x="285" y="142"/>
      <point x="285" y="337" type="qcurve"/>
      <point x="285" y="392" type="line"/>
      <point x="285" y="589"/>
      <point x="283" y="685" type="qcurve"/>
      <point x="100" y="685" type="line"/>
      <point x="72" y="539" type="line"/>
      <point x="22" y="539" type="line"/>
      <point x="30" y="729" type="line"/>
      <point x="622" y="729" type="line"/>
      <point x="632" y="539" type="line"/>
      <point x="582" y="539" type="line"/>
      <point x="554" y="685" type="line"/>
      <point x="371" y="685" type="line"/>
      <point x="368" y="590"/>
      <point x="368" y="392" type="qcurve"/>
      <point x="368" y="337" type="line"/>
      <point x="368" y="143"/>
      <point x="371" y="47" type="qcurve"/>
      <point x="486" y="36" type="line"/>
      <point x="486" y="0" type="line"/>
    </contour>
  </outline>
</glyph>
<glyph name="V" format="2">
  <advance width="726" height="1000"/>
  <unicode hex="0056"/>
  <outline>
    <contour>
      <point x="352" y="-8" type="line"/>
      <point x="100" y="684" type="line"/>
      <point x="12" y="694" type="line"/>
      <point x="12" y="729" type="line"/>
      <point x="299" y="729" type="line"/>
      <point x="299" y="690" type="line"/>
      <point x="190" y="681" type="line"/>
      <point x="386" y="117" type="line"/>
      <point x="570" y="680" type="line"/>
      <point x="466" y="690" type="line"/>
      <point x="466" y="729" type="line"/>
      <point x="716" y="729" type="line"/>
      <point x="716" y="695" type="line"/>
      <point x="620" y="682" type="line"/>
      <point x="390" y="-8" type="line"/>
    </contour>
  </outline>
</glyph>
<glyph name="W" format="2">
  <advance width="1047" height="1000"/>
  <unicode hex="0057"/>
  <outline>
    <contour>
      <point x="304" y="-8" type="line"/>
      <point x="109" y="684" type="line"/>
      <point x="15" y="694" type="line"/>
      <point x="15" y="729" type="line"/>
      <point x="299" y="729" type="line"/>
      <point x="299" y="694" type="line"/>
      <point x="196" y="682" type="line"/>
      <point x="340" y="140" type="line"/>
      <point x="514" y="682" type="line"/>
      <point x="404" y="694" type="line"/>
      <point x="404" y="729" type="line"/>
      <point x="687" y="729" type="line"/>
      <point x="687" y="694" type="line"/>
      <point x="576" y="681" type="line"/>
      <point x="747" y="136" type="line"/>
      <point x="891" y="680" type="line"/>
      <point x="787" y="694" type="line"/>
      <point x="787" y="729" type="line"/>
      <point x="1035" y="729" type="line"/>
      <point x="1035" y="694" type="line"/>
      <point x="939" y="681" type="line"/>
      <point x="755" y="-8" type="line"/>
      <point x="716" y="-8" type="line"/>
      <point x="525" y="583" type="line"/>
      <point x="342" y="-8" type="line"/>
    </contour>
  </outline>
</glyph>
<glyph name="bracketleft" format="2">
  <advance width="341" height="1000"/>
  <unicode hex="005B"/>
  <outline>
    <contour>
      <point x="109" y="-173" type="line"/>
      <point x="112" y="-61"/>
      <point x="112" y="172" type="qcurve"/>
      <point x="112" y="433" type="line"/>
      <point x="112" y="663"/>
      <point x="109" y="777" type="qcurve"/>
      <point x="303" y="777" type="line"/>
      <point x="303" y="740" type="line"/>
      <point x="180" y="728" type="line"/>
      <point x="178" y="631"/>
      <point x="178" y="433" type="qcurve"/>
      <point x="178" y="172" type="line"/>
      <point x="178" y="-25"/>
      <point x="181" y="-124" type="qcurve"/>
      <point x="303" y="-136" type="line"/>
      <point x="303" y="-173" type="line"/>
    </contour>
  </outline>
</glyph>
<glyph name="backslash" format="2">
  <advance width="348" height="1000"/>
  <unicode hex="005C"/>
  <outline>
    <contour>
      <point x="293" y="-174" type="line"/>
      <point x="3" y="772" type="line"/>
      <point x="53" y="772" type="line"/>
      <point x="345" y="-174" type="line"/>
    </contour>
  </outline>
</glyph>
<glyph name="bracketright" format="2">
  <advance width="341" height="1000"/>
  <unicode hex="005D"/>
  <outline>
    <contour>
      <point x="38" y="-173" type="line"/>
      <point x="38" y="-136" type="line"/>
      <point x="161" y="-124" type="line"/>
      <point x="163" y="-27"/>
      <point x="163" y="172" type="qcurve"/>
      <point x="163" y="433" type="line"/>
      <point x="163" y="630"/>
      <point x="161" y="728" type="qcurve"/>
      <point x="38" y="740" type="line"/>
      <point x="38" y="777" type="line"/>
      <point x="233" y="777" type="line"/>
      <point x="229" y="665"/>
      <point x="229" y="433" type="qcurve"/>
      <point x="229" y="172" type="line"/>
      <point x="229" y="-59"/>
      <point x="233" y="-173" type="qcurve"/>
    </contour>
  </outline>
</glyph>
<glyph name="asciicircum" format="2">
  <advance width="576" height="1000"/>
  <unicode hex="005E"/>
  <outline>
    <contour>
      <point x="137" y="229" type="line"/>
      <point x="99" y="258" type="line"/>
      <point x="262" y="525" type="line"/>
      <point x="315" y="525" type="line"/>
      <point x="480" y="258" type="line"/>
      <point x="443" y="229" type="line"/>
      <point x="289" y="473" type="line"/>
    </contour>
  </outline>
</glyph>
<glyph name="b" format="2">
  <advance width="627" height="1000"/>
  <unicode hex="0062"/>
  <outline>
    <contour>
      <point x="355" y="-14" type="qcurve"/>
      <point x="264" y="-14"/>
      <point x="199" y="65" type="qcurve"/>
      <point x="191" y="-10" type="line"/>
      <point x="37" y="0" type="line"/>
      <point x="37" y="32" type="line"/>
      <point x="123" y="45" type="line"/>
      <point x="125" y="155"/>
      <point x="125" y="228" type="qcurve"/>
      <point x="125" y="725" type="line"/>
      <point x="34" y="734" type="line"/>
      <point x="34" y="765" type="line"/>
      <point x="187" y="807" type="line"/>
      <point x="202" y="798" type="line"/>
      <point x="198" y="644" type="line"/>
      <point x="198" y="445" type="line"/>
      <point x="273" y="528"/>
      <point x="368" y="528" type="qcurve"/>
      <point x="459" y="528"/>
      <point x="517" y="457" type="qcurve"/>
      <point x="576" y="384"/>
      <point x="576" y="263" type="qcurve"/>
      <point x="576" y="140"/>
      <point x="453" y="-14"/>
    </contour>
    <contour>
      <point x="340" y="37" type="qcurve"/>
      <point x="407" y="37"/>
      <point x="449" y="89" type="qcurve"/>
      <point x="495" y="147"/>
      <point x="495" y="257" type="qcurve"/>
      <point x="495" y="363"/>
      <point x="453" y="422" type="qcurve"/>
      <point x="413" y="478"/>
      <point x="345" y="478" type="qcurve"/>
      <point x="274" y="478"/>
      <point x="201" y="411" type="qcurve"/>
      <point x="201" y="101" type="line"/>
      <point x="266" y="37"/>
    </contour>
  </outline>
</glyph>
<glyph name="d" format="2">
  <advance width="617" height="1000"/>
  <unicode hex="0064"/>
  <outline>
    <contour>
      <point x="272" y="-14" type="qcurve"/>
      <point x="174" y="-14"/>
      <point x="51" y="135"/>
      <point x="51" y="252" type="qcurve"/>
      <point x="51" y="376"/>
      <point x="117" y="453" type="qcurve"/>
      <point x="181" y="528"/>
      <point x="283" y="528" type="qcurve"/>
      <point x="367" y="528"/>
      <point x="429" y="455" type="qcurve"/>
      <point x="429" y="726" type="line"/>
      <point x="335" y="734" type="line"/>
      <point x="335" y="765" type="line"/>
      <point x="491" y="807" type="line"/>
      <point x="505" y="798" type="line"/>
      <point x="502" y="645" type="line"/>
      <point x="502" y="43" type="line"/>
      <point x="598" y="32" type="line"/>
      <point x="598" y="0" type="line"/>
      <point x="434" y="-10" type="line"/>
      <point x="428" y="66" type="line"/>
      <point x="365" y="-14"/>
    </contour>
    <contour>
      <point x="292" y="36" type="qcurve"/>
      <point x="331" y="36"/>
      <point x="393" y="68"/>
      <point x="426" y="106" type="qcurve"/>
      <point x="426" y="416" type="line"/>
      <point x="360" y="478"/>
      <point x="295" y="478" type="qcurve"/>
      <point x="224" y="478"/>
      <point x="181" y="425" type="qcurve"/>
      <point x="132" y="366"/>
      <point x="132" y="254" type="qcurve"/>
      <point x="132" y="145"/>
      <point x="178" y="88" type="qcurve"/>
      <point x="220" y="36"/>
    </contour>
  </outline>
</glyph>
<glyph name="f" format="2">
  <advance width="385" height="1000"/>
  <unicode hex="0066"/>
  <outline>
    <contour>
      <point x="38" y="0" type="line"/>
      <point x="38" y="32" type="line"/>
      <point x="131" y="45" type="line"/>
      <point x="133" y="167"/>
      <point x="133" y="228" type="qcurve"/>
      <point x="133" y="468" type="line"/>
      <point x="37" y="468" type="line"/>
      <point x="37" y="505" type="line"/>
      <point x="134" y="517" type="line"/>
      <point x="139" y="605"/>
      <point x="157" y="660" type="qcurve"/>
      <point x="174" y="715"/>
      <point x="210" y="752" type="qcurve"/>
      <point x="268" y="817"/>
      <point x="355" y="817" type="qcurve"/>
      <point x="393" y="817"/>
      <point x="418" y="804" type="qcurve"/>
      <point x="446" y="790"/>
      <point x="454" y="764" type="qcurve"/>
      <point x="452" y="745"/>
      <point x="423" y="722"/>
      <point x="398" y="722" type="qcurve"/>
      <point x="363" y="722"/>
      <point x="323" y="753" type="qcurve"/>
      <point x="294" y="776" type="line"/>
      <point x="265" y="761"/>
      <point x="247" y="732" type="qcurve"/>
      <point x="203" y="667"/>
      <point x="207" y="514" type="qcurve"/>
      <point x="364" y="514" type="line"/>
      <point x="364" y="468" type="line"/>
      <point x="209" y="468" type="line"/>
      <point x="209" y="228" type="line"/>
      <point x="209" y="167"/>
      <point x="211" y="45" type="qcurve"/>
      <point x="313" y="32" type="line"/>
      <point x="313" y="0" type="line"/>
    </contour>
  </outline>
</glyph>
<glyph name="g" format="2">
  <advance width="560" height="1000"/>
  <unicode hex="0067"/>
  <outline>
    <contour>
      <point x="267" y="-262" type="qcurve"/>
      <point x="156" y="-262"/>
      <point x="98" y="-224" type="qcurve"/>
      <point x="43" y="-189"/>
      <point x="43" y="-126" type="qcurve"/>
      <point x="43" y="-53"/>
      <point x="148" y="-3" type="qcurve"/>
      <point x="78" y="16"/>
      <point x="78" y="77" type="qcurve"/>
      <point x="78" y="130"/>
      <point x="151" y="196" type="qcurve"/>
      <point x="68" y="243"/>
      <point x="68" y="350" type="qcurve"/>
      <point x="68" y="433"/>
      <point x="123" y="481" type="qcurve"/>
      <point x="176" y="528"/>
      <point x="261" y="528" type="qcurve"/>
      <point x="340" y="528"/>
      <point x="392" y="488" type="qcurve"/>
      <point x="516" y="527" type="line"/>
      <point x="533" y="516" type="line"/>
      <point x="533" y="457" type="line"/>
      <point x="419" y="458" type="line"/>
      <point x="451" y="415"/>
      <point x="451" y="350" type="qcurve"/>
      <point x="451" y="266"/>
      <point x="397" y="218" type="qcurve"/>
      <point x="345" y="171"/>
      <point x="260" y="171" type="qcurve"/>
      <point x="215" y="171"/>
      <point x="176" y="185" type="qcurve"/>
      <point x="142" y="142"/>
      <point x="142" y="108" type="qcurve"/>
      <point x="142" y="55"/>
      <point x="215" y="55" type="qcurve"/>
      <point x="362" y="55" type="line"/>
      <point x="527" y="55"/>
      <point x="527" y="-78" type="qcurve"/>
      <point x="527" y="-153"/>
      <point x="462" y="-205" type="qcurve"/>
      <point x="390" y="-262"/>
    </contour>
    <contour>
      <point x="268" y="-221" type="qcurve"/>
      <point x="358" y="-221"/>
      <point x="410" y="-186" type="qcurve"/>
      <point x="459" y="-153"/>
      <point x="459" y="-101" type="qcurve"/>
      <point x="459" y="-13"/>
      <point x="349" y="-13" type="qcurve"/>
      <point x="221" y="-13" type="line"/>
      <point x="192" y="-13"/>
      <point x="168" y="-10" type="qcurve"/>
      <point x="118" y="-59"/>
      <point x="118" y="-167"/>
      <point x="159" y="-195" type="qcurve"/>
      <point x="198" y="-221"/>
    </contour>
    <contour>
      <point x="258" y="207" type="qcurve"/>
      <point x="313" y="207"/>
      <point x="377" y="287"/>
      <point x="377" y="352" type="qcurve"/>
      <point x="377" y="415"/>
      <point x="315" y="492"/>
      <point x="261" y="492" type="qcurve"/>
      <point x="207" y="492"/>
      <point x="142" y="413"/>
      <point x="142" y="285"/>
      <point x="204" y="207"/>
    </contour>
  </outline>
</glyph>
<glyph name="h" format="2">
  <advance width="655" height="1000"/>
  <unicode hex="0068"/>
  <outline>
    <contour>
      <point x="37" y="0" type="line"/>
      <point x="37" y="32" type="line"/>
      <point x="123" y="45" type="line"/>
      <point x="125" y="155"/>
      <point x="125" y="228" type="qcurve"/>
      <point x="125" y="726" type="line"/>
      <point x="34" y="734" type="line"/>
      <point x="34" y="765" type="line"/>
      <point x="187" y="807" type="line"/>
      <point x="202" y="798" type="line"/>
      <point x="198" y="644" type="line"/>
      <point x="198" y="423" type="line"/>
      <point x="242" y="472"/>
      <point x="295" y="500" type="qcurve"/>
      <point x="350" y="528"/>
      <point x="401" y="528" type="qcurve"/>
      <point x="471" y="528"/>
      <point x="504" y="483" type="qcurve"/>
      <point x="538" y="436"/>
      <point x="538" y="332" type="qcurve"/>
      <point x="538" y="228" type="line"/>
      <point x="538" y="155"/>
      <point x="540" y="45" type="qcurve"/>
      <point x="620" y="32" type="line"/>
      <point x="620" y="0" type="line"/>
      <point x="376" y="0" type="line"/>
      <point x="376" y="32" type="line"/>
      <point x="461" y="44" type="line"/>
      <point x="463" y="156"/>
      <point x="463" y="228" type="qcurve"/>
      <point x="463" y="328" type="line"/>
      <point x="463" y="404"/>
      <point x="439" y="436" type="qcurve"/>
      <point x="417" y="466"/>
      <point x="367" y="466" type="qcurve"/>
      <point x="285" y="466"/>
      <point x="201" y="386" type="qcurve"/>
      <point x="201" y="228" type="line"/>
      <point x="201" y="156"/>
      <point x="203" y="44" type="qcurve"/>
      <point x="282" y="32" type="line"/>
      <point x="282" y="0" type="line"/>
    </contour>
  </outline>
</glyph>
<glyph name="i" format="2">
  <advance width="325" height="1000"/>
  <unicode hex="0069"/>
  <outline>
    <contour>
      <point x="41" y="0" type="line"/>
      <point x="41" y="32" type="line"/>
      <point x="127" y="45" type="line"/>
      <point x="129" y="155"/>
      <point x="129" y="228" type="qcurve"/>
      <point x="129" y="284" type="line"/>
      <point x="129" y="386"/>
      <point x="127" y="436" type="qcurve"/>
      <point x="35" y="442" type="line"/>
      <point x="35" y="475" type="line"/>
      <point x="192" y="527" type="line"/>
      <point x="207" y="517" type="line"/>
      <point x="204" y="375" type="line"/>
      <point x="204" y="228" type="line"/>
      <point x="204" y="155"/>
      <point x="206" y="45" type="qcurve"/>
      <point x="285" y="32" type="line"/>
      <point x="285" y="0" type="line"/>
    </contour>
    <contour>
      <point x="137" y="663"/>
      <point x="101" y="697"/>
      <point x="101" y="751"/>
      <point x="137" y="785"/>
      <point x="164" y="785" type="qcurve"/>
      <point x="192" y="785"/>
      <point x="228" y="751"/>
      <point x="228" y="697"/>
      <point x="191" y="663"/>
    </contour>
  </outline>
</glyph>
<glyph name="j" format="2">
  <advance width="301" height="1000"/>
  <unicode hex="006A"/>
  <outline>
    <contour>
      <point x="8" y="-273" type="qcurve"/>
      <point x="-35" y="-273"/>
      <point x="-60" y="-256" type="qcurve"/>
      <point x="-80" y="-242"/>
      <point x="-83" y="-221" type="qcurve"/>
      <point x="-70" y="-182"/>
      <point x="-25" y="-182" type="qcurve"/>
      <point x="11" y="-182"/>
      <point x="49" y="-210" type="qcurve"/>
      <point x="74" y="-227" type="line"/>
      <point x="90" y="-216"/>
      <point x="100" y="-193" type="qcurve"/>
      <point x="116" y="-161"/>
      <point x="122" y="-87" type="qcurve"/>
      <point x="127" y="-23"/>
      <point x="127" y="105" type="qcurve"/>
      <point x="127" y="283" type="line"/>
      <point x="127" y="366"/>
      <point x="124" y="436" type="qcurve"/>
      <point x="35" y="442" type="line"/>
      <point x="35" y="475" type="line"/>
      <point x="189" y="527" type="line"/>
      <point x="203" y="517" type="line"/>
      <point x="200" y="375" type="line"/>
      <point x="200" y="118" type="line"/>
      <point x="200" y="-33"/>
      <point x="189" y="-96" type="qcurve"/>
      <point x="177" y="-168"/>
      <point x="139" y="-211" type="qcurve"/>
      <point x="111" y="-243"/>
      <point x="82" y="-257" type="qcurve"/>
      <point x="50" y="-273"/>
    </contour>
    <contour>
      <point x="163" y="663" type="qcurve"/>
      <point x="136" y="663"/>
      <point x="99" y="697"/>
      <point x="99" y="751"/>
      <point x="135" y="785"/>
      <point x="190" y="785"/>
      <point x="226" y="751"/>
      <point x="226" y="697"/>
      <point x="190" y="663"/>
    </contour>
  </outline>
</glyph>
<glyph name="k" format="2">
  <advance width="592" height="1000"/>
  <unicode hex="006B"/>
  <outline>
    <contour>
      <point x="33" y="0" type="line"/>
      <point x="33" y="32" type="line"/>
      <point x="123" y="45" type="line"/>
      <point x="125" y="163"/>
      <point x="125" y="228" type="qcurve"/>
      <point x="125" y="726" type="line"/>
      <point x="34" y="734" type="line"/>
      <point x="34" y="765" type="line"/>
      <point x="189" y="807" type="line"/>
      <point x="204" y="798" type="line"/>
      <point x="201" y="644" type="line"/>
      <point x="201" y="254" type="line"/>
      <point x="403" y="463" type="line"/>
      <point x="315" y="479" type="line"/>
      <point x="315" y="514" type="line"/>
      <point x="564" y="514" type="line"/>
      <point x="564" y="479" type="line"/>
      <point x="463" y="466" type="line"/>
      <point x="332" y="334" type="line"/>
      <point x="517" y="42" type="line"/>
      <point x="591" y="32" type="line"/>
      <point x="591" y="0" type="line"/>
      <point x="453" y="0" type="line"/>
      <point x="279" y="280" type="line"/>
      <point x="201" y="201" type="line"/>
      <point x="201" y="145"/>
      <point x="203" y="45" type="qcurve"/>
      <point x="290" y="32" type="line"/>
      <point x="290" y="0" type="line"/>
    </contour>
  </outline>
</glyph>
<glyph name="l" format="2">
  <advance width="324" height="1000"/>
  <unicode hex="006C"/>
  <outline>
    <contour>
      <point x="30" y="0" type="line"/>
      <point x="30" y="32" type="line"/>
      <point x="123" y="45" type="line"/>
      <point x="125" y="163"/>
      <point x="125" y="228" type="qcurve"/>
      <point x="125" y="726" type="line"/>
      <point x="34" y="734" type="line"/>
      <point x="34" y="765" type="line"/>
      <point x="189" y="807" type="line"/>
      <point x="204" y="798" type="line"/>
      <point x="201" y="644" type="line"/>
      <point x="201" y="228" type="line"/>
      <point x="201" y="163"/>
      <point x="203" y="45" type="qcurve"/>
      <point x="293" y="32" type="line"/>
      <point x="293" y="0" type="line"/>
    </contour>
  </outline>
</glyph>
<glyph name="m" format="2">
  <advance width="976" height="1000"/>
  <unicode hex="006D"/>
  <outline>
    <contour>
      <point x="45" y="0" type="line"/>
      <point x="45" y="32" type="line"/>
      <point x="129" y="44" type="line"/>
      <point x="132" y="128"/>
      <point x="132" y="228" type="qcurve"/>
      <point x="132" y="283" type="line"/>
      <point x="132" y="343"/>
      <point x="128" y="427" type="qcurve"/>
      <point x="128" y="432"/>
      <point x="128" y="435" type="qcurve"/>
      <point x="39" y="442" type="line"/>
      <point x="39" y="474" type="line"/>
      <point x="183" y="527" type="line"/>
      <point x="197" y="517" type="line"/>
      <point x="205" y="425" type="line"/>
      <point x="249" y="473"/>
      <point x="298" y="500" type="qcurve"/>
      <point x="349" y="528"/>
      <point x="398" y="528" type="qcurve"/>
      <point x="501" y="528"/>
      <point x="525" y="423" type="qcurve"/>
      <point x="611" y="528"/>
      <point x="724" y="528" type="qcurve"/>
      <point x="861" y="528"/>
      <point x="861" y="340" type="qcurve"/>
      <point x="861" y="228" type="line"/>
      <point x="861" y="155"/>
      <point x="863" y="45" type="qcurve"/>
      <point x="942" y="32" type="line"/>
      <point x="942" y="0" type="line"/>
      <point x="699" y="0" type="line"/>
      <point x="699" y="32" type="line"/>
      <point x="784" y="44" type="line"/>
      <point x="786" y="156"/>
      <point x="786" y="228" type="qcurve"/>
      <point x="786" y="330" type="line"/>
      <point x="786" y="405"/>
      <point x="762" y="437" type="qcurve"/>
      <point x="739" y="465"/>
      <point x="690" y="465" type="qcurve"/>
      <point x="612" y="465"/>
      <point x="531" y="385" type="qcurve"/>
      <point x="534" y="361"/>
      <point x="534" y="332" type="qcurve"/>
      <point x="534" y="228" type="line"/>
      <point x="534" y="155"/>
      <point x="536" y="45" type="qcurve"/>
      <point x="615" y="32" type="line"/>
      <point x="615" y="0" type="line"/>
      <point x="372" y="0" type="line"/>
      <point x="372" y="32" type="line"/>
      <point x="457" y="44" type="line"/>
      <point x="459" y="154"/>
      <point x="459" y="228" type="qcurve"/>
      <point x="459" y="328" type="line"/>
      <point x="459" y="403"/>
      <point x="436" y="435" type="qcurve"/>
      <point x="414" y="465"/>
      <point x="366" y="465" type="qcurve"/>
      <point x="293" y="465"/>
      <point x="208" y="387" type="qcurve"/>
      <point x="208" y="228" type="line"/>
      <point x="208" y="155"/>
      <point x="210" y="45" type="qcurve"/>
      <point x="289" y="32" type="line"/>
      <point x="289" y="0" type="line"/>
    </contour>
  </outline>
</glyph>
<glyph name="r" format="2">
  <advance width="454" height="1000"/>
  <unicode hex="0072"/>
  <outline>
    <contour>
      <point x="47" y="0" type="line"/>
      <point x="47" y="32" type="line"/>
      <point x="129" y="44" type="line"/>
      <point x="132" y="128"/>
      <point x="132" y="228" type="qcurve"/>
      <point x="132" y="283" type="line"/>
      <point x="132" y="342"/>
      <point x="128" y="424" type="qcurve"/>
      <point x="128" y="431"/>
      <point x="128" y="435" type="qcurve"/>
      <point x="39" y="442" type="line"/>
      <point x="39" y="474" type="line"/>
      <point x="183" y="527" type="line"/>
      <point x="197" y="517" type="line"/>
      <point x="207" y="386" type="line"/>
      <point x="234" y="452"/>
      <point x="322" y="528"/>
      <point x="370" y="528" type="qcurve"/>
      <point x="395" y="528"/>
      <point x="438" y="508"/>
      <point x="446" y="492" type="qcurve"/>
      <point x="446" y="424"/>
      <point x="390" y="424" type="qcurve"/>
      <point x="360" y="424"/>
      <point x="326" y="453" type="qcurve"/>
      <point x="312" y="465" type="line"/>
      <point x="245" y="421"/>
      <point x="208" y="319" type="qcurve"/>
      <point x="208" y="228" type="line"/>
      <point x="208" y="157"/>
      <point x="210" y="45" type="qcurve"/>
      <point x="302" y="32" type="line"/>
      <point x="302" y="0" type="line"/>
    </contour>
  </outline>
</glyph>
<glyph name="t" format="2">
  <advance width="354" height="1000"/>
  <unicode hex="0074"/>
  <outline>
    <contour>
      <point x="226" y="-14" type="qcurve"/>
      <point x="108" y="-14"/>
      <point x="108" y="112" type="qcurve"/>
      <point x="108" y="123"/>
      <point x="108" y="146" type="qcurve"/>
      <point x="109" y="177"/>
      <point x="109" y="199" type="qcurve"/>
      <point x="109" y="468" type="line"/>
      <point x="11" y="468" type="line"/>
      <point x="11" y="505" type="line"/>
      <point x="113" y="517" type="line"/>
      <point x="137" y="665" type="line"/>
      <point x="192" y="665" type="line"/>
      <point x="186" y="514" type="line"/>
      <point x="336" y="514" type="line"/>
      <point x="336" y="468" type="line"/>
      <point x="185" y="468" type="line"/>
      <point x="185" y="116" type="line"/>
      <point x="185" y="32"/>
      <point x="250" y="32" type="qcurve"/>
      <point x="285" y="32"/>
      <point x="326" y="61" type="qcurve"/>
      <point x="346" y="36" type="line"/>
      <point x="302" y="-14"/>
    </contour>
  </outline>
</glyph>
<glyph name="v" format="2">
  <advance width="546" height="1000"/>
  <unicode hex="0076"/>
  <outline>
    <contour>
      <point x="258" y="-7" type="line"/>
      <point x="63" y="470" type="line"/>
      <point x="-3" y="479" type="line"/>
      <point x="-3" y="514" type="line"/>
      <point x="247" y="514" type="line"/>
      <point x="247" y="479" type="line"/>
      <point x="151" y="468" type="line"/>
      <point x="294" y="90" type="line"/>
      <point x="426" y="466" type="line"/>
      <point x="335" y="479" type="line"/>
      <point x="335" y="514" type="line"/>
      <point x="537" y="514" type="line"/>
      <point x="537" y="479" type="line"/>
      <point x="474" y="467" type="line"/>
      <point x="296" y="-7" type="line"/>
    </contour>
  </outline>
</glyph>
<glyph name="z" format="2">
  <advance width="496" height="1000"/>
  <unicode hex="007A"/>
  <outline>
    <contour>
      <point x="38" y="0" type="line"/>
      <point x="38" y="33" type="line"/>
      <point x="359" y="476" type="line"/>
      <point x="117" y="476" type="line"/>
      <point x="87" y="354" type="line"/>
      <point x="43" y="359" type="line"/>
      <point x="51" y="514" type="line"/>
      <point x="448" y="514" type="line"/>
      <point x="448" y="482" type="line"/>
      <point x="128" y="38" type="line"/>
      <point x="388" y="38" type="line"/>
      <point x="421" y="171" type="line"/>
      <point x="465" y="171" type="line"/>
      <point x="454" y="0" type="line"/>
    </contour>
  </outline>
</glyph>
<glyph name="braceleft" format="2">
  <advance width="375" height="1000"/>
  <unicode hex="007B"/>
  <outline>
    <contour>
      <point x="296" y="-173" type="line"/>
      <point x="214" y="-173"/>
      <point x="129" y="-105"/>
      <point x="129" y="-40" type="qcurve"/>
      <point x="129" y="9"/>
      <point x="156" y="96" type="qcurve"/>
      <point x="176" y="157"/>
      <point x="176" y="182" type="qcurve"/>
      <point x="176" y="270"/>
      <point x="43" y="284" type="qcurve"/>
      <point x="43" y="321" type="line"/>
      <point x="176" y="334"/>
      <point x="176" y="423" type="qcurve"/>
      <point x="176" y="447"/>
      <point x="157" y="509" type="qcurve"/>
      <point x="129" y="596"/>
      <point x="129" y="645" type="qcurve"/>
      <point x="129" y="709"/>
      <point x="214" y="777"/>
      <point x="296" y="777" type="qcurve"/>
      <point x="342" y="777" type="line"/>
      <point x="342" y="741" type="line"/>
      <point x="310" y="738" type="line"/>
      <point x="246" y="732"/>
      <point x="197" y="692"/>
      <point x="197" y="642" type="qcurve"/>
      <point x="197" y="594"/>
      <point x="213" y="508" type="qcurve"/>
      <point x="224" y="453"/>
      <point x="224" y="433" type="qcurve"/>
      <point x="224" y="323"/>
      <point x="118" y="302" type="qcurve"/>
      <point x="224" y="281"/>
      <point x="224" y="172" type="qcurve"/>
      <point x="224" y="151"/>
      <point x="213" y="96" type="qcurve"/>
      <point x="197" y="11"/>
      <point x="197" y="-87"/>
      <point x="246" y="-128"/>
      <point x="310" y="-134" type="qcurve"/>
      <point x="342" y="-137" type="line"/>
      <point x="342" y="-173" type="line"/>
    </contour>
  </outline>
</glyph>
<glyph name="braceright" format="2">
  <advance width="375" height="1000"/>
  <unicode hex="007D"/>
  <outline>
    <contour>
      <point x="33" y="-173" type="line"/>
      <point x="33" y="-137" type="line"/>
      <point x="65" y="-134" type="line"/>
      <point x="129" y="-128"/>
      <point x="178" y="-87"/>
      <point x="178" y="11"/>
      <point x="162" y="96" type="qcurve"/>
      <point x="151" y="151"/>
      <point x="151" y="172" type="qcurve"/>
      <point x="151" y="281"/>
      <point x="257" y="302" type="qcurve"/>
      <point x="151" y="323"/>
      <point x="151" y="433" type="qcurve"/>
      <point x="151" y="453"/>
      <point x="162" y="508" type="qcurve"/>
      <point x="178" y="594"/>
      <point x="178" y="642" type="qcurve"/>
      <point x="178" y="692"/>
      <point x="129" y="732"/>
      <point x="65" y="738" type="qcurve"/>
      <point x="33" y="741" type="line"/>
      <point x="33" y="777" type="line"/>
      <point x="79" y="777" type="line"/>
      <point x="161" y="777"/>
      <point x="246" y="709"/>
      <point x="246" y="645" type="qcurve"/>
      <point x="246" y="596"/>
      <point x="218" y="509" type="qcurve"/>
      <point x="199" y="447"/>
      <point x="199" y="423" type="qcurve"/>
      <point x="199" y="334"/>
      <point x="332" y="321" type="qcurve"/>
      <point x="332" y="284" type="line"/>
      <point x="199" y="270"/>
      <point x="199" y="182" type="qcurve"/>
      <point x="199" y="157"/>
      <point x="219" y="96" type="qcurve"/>
      <point x="246" y="9"/>
      <point x="246" y="-40" type="qcurve"/>
      <point x="246" y="-105"/>
      <point x="161" y="-173"/>
      <point x="79" y="-173" type="qcurve"/>
    </contour>
  </outline>
</glyph>
<glyph name="asciitilde" format="2">
  <advance width="576" height="1000"/>
  <unicode hex="007E"/>
  <outline>
    <contour>
      <point x="396" y="299" type="qcurve"/>
      <point x="362" y="299"/>
      <point x="331" y="314" type="qcurve"/>
      <point x="305" y="328"/>
      <point x="272" y="358" type="qcurve"/>
      <point x="224" y="402"/>
      <point x="178" y="402" type="qcurve"/>
      <point x="114" y="402"/>
      <point x="101" y="303" type="qcurve"/>
      <point x="58" y="310" type="line"/>
      <point x="62" y="378"/>
      <point x="127" y="451"/>
      <point x="184" y="451" type="qcurve"/>
      <point x="242" y="451"/>
      <point x="307" y="392" type="qcurve"/>
      <point x="355" y="347"/>
      <point x="401" y="347" type="qcurve"/>
      <point x="464" y="347"/>
      <point x="477" y="447" type="qcurve"/>
      <point x="521" y="440" type="line"/>
      <point x="512" y="299"/>
    </contour>
  </outline>
</glyph>
<glyph name="cent" format="2">
  <advance width="539" height="1000"/>
  <unicode hex="00A2"/>
  <outline>
    <contour>
      <point x="272" y="-50" type="line"/>
      <point x="272" y="68" type="line"/>
      <point x="172" y="74"/>
      <point x="50" y="223"/>
      <point x="50" y="341" type="qcurve"/>
      <point x="50" y="456"/>
      <point x="117" y="532" type="qcurve"/>
      <point x="179" y="604"/>
      <point x="272" y="614" type="qcurve"/>
      <point x="272" y="719" type="line"/>
      <point x="310" y="719" type="line"/>
      <point x="310" y="616" type="line"/>
      <point x="376" y="613"/>
      <point x="474" y="539"/>
      <point x="487" y="482" type="qcurve"/>
      <point x="480" y="446"/>
      <point x="441" y="446" type="qcurve"/>
      <point x="401" y="446"/>
      <point x="384" y="512" type="qcurve"/>
      <point x="369" y="564" type="line"/>
      <point x="339" y="574"/>
      <point x="310" y="576" type="qcurve"/>
      <point x="310" y="127" type="line"/>
      <point x="357" y="128"/>
      <point x="398" y="148" type="qcurve"/>
      <point x="440" y="169"/>
      <point x="468" y="207" type="qcurve"/>
      <point x="489" y="197" type="line"/>
      <point x="442" y="78"/>
      <point x="310" y="69" type="qcurve"/>
      <point x="310" y="-50" type="line"/>
    </contour>
    <contour>
      <point x="272" y="130" type="qcurve"/>
      <point x="272" y="573" type="line"/>
      <point x="207" y="561"/>
      <point x="169" y="504" type="qcurve"/>
      <point x="128" y="443"/>
      <point x="128" y="259"/>
      <point x="167" y="200" type="qcurve"/>
      <point x="206" y="143"/>
    </contour>
  </outline>
</glyph>
<glyph name="sterling" format="2">
  <advance width="539" height="1000"/>
  <unicode hex="00A3"/>
  <outline>
    <contour>
      <point x="39" y="0" type="line"/>
      <point x="39" y="49" type="line"/>
      <point x="100" y="85"/>
      <point x="132" y="143" type="qcurve"/>
      <point x="163" y="199"/>
      <point x="163" y="267" type="qcurve"/>
      <point x="163" y="286"/>
      <point x="159" y="314" type="qcurve"/>
      <point x="43" y="314" type="line"/>
      <point x="43" y="361" type="line"/>
      <point x="145" y="361" type="line"/>
      <point x="141" y="372"/>
      <point x="132" y="392" type="qcurve"/>
      <point x="116" y="430"/>
      <point x="110" y="452" type="qcurve"/>
      <point x="100" y="487"/>
      <point x="100" y="524" type="qcurve"/>
      <point x="100" y="609"/>
      <point x="210" y="719"/>
      <point x="298" y="719" type="qcurve"/>
      <point x="371" y="719"/>
      <point x="478" y="635"/>
      <point x="487" y="569" type="qcurve"/>
      <point x="475" y="538"/>
      <point x="445" y="538" type="qcurve"/>
      <point x="404" y="538"/>
      <point x="389" y="599" type="qcurve"/>
      <point x="368" y="670" type="line"/>
      <point x="340" y="678"/>
      <point x="311" y="678" type="qcurve"/>
      <point x="253" y="678"/>
      <point x="220" y="641" type="qcurve"/>
      <point x="184" y="601"/>
      <point x="184" y="527" type="qcurve"/>
      <point x="184" y="479"/>
      <point x="199" y="403" type="qcurve"/>
      <point x="205" y="375"/>
      <point x="207" y="361" type="qcurve"/>
      <point x="398" y="361" type="line"/>
      <point x="398" y="314" type="line"/>
      <point x="213" y="314" type="line"/>
      <point x="215" y="290"/>
      <point x="215" y="276" type="qcurve"/>
      <point x="215" y="145"/>
      <point x="122" y="74" type="qcurve"/>
      <point x="502" y="74" type="line"/>
      <point x="502" y="0" type="line"/>
    </contour>
  </outline>
</glyph>
<glyph name="yen" format="2">
  <advance width="539" height="1000"/>
  <unicode hex="00A5"/>
  <outline>
    <contour>
      <point x="118" y="0" type="line"/>
      <point x="118" y="35" type="line"/>
      <point x="230" y="45" type="line"/>
      <point x="231" y="82"/>
      <point x="232" y="145" type="qcurve"/>
      <point x="233" y="166"/>
      <point x="233" y="177" type="qcurve"/>
      <point x="57" y="177" type="line"/>
      <point x="57" y="224" type="line"/>
      <point x="233" y="224" type="line"/>
      <point x="233" y="292" type="line"/>
      <point x="57" y="292" type="line"/>
      <point x="57" y="339" type="line"/>
      <point x="213" y="339" type="line"/>
      <point x="61" y="663" type="line"/>
      <point x="-10" y="671" type="line"/>
      <point x="-10" y="704" type="line"/>
      <point x="242" y="704" type="line"/>
      <point x="242" y="671" type="line"/>
      <point x="153" y="662" type="line"/>
      <point x="291" y="347" type="line"/>
      <point x="429" y="661" type="line"/>
      <point x="341" y="671" type="line"/>
      <point x="341" y="704" type="line"/>
      <point x="550" y="704" type="line"/>
      <point x="550" y="671" type="line"/>
      <point x="472" y="660" type="line"/>
      <point x="327" y="339" type="line"/>
      <point x="488" y="339" type="line"/>
      <point x="488" y="292" type="line"/>
      <point x="308" y="292" type="line"/>
      <point x="308" y="224" type="line"/>
      <point x="488" y="224" type="line"/>
      <point x="488" y="177" type="line"/>
      <point x="308" y="177" type="line"/>
      <point x="308" y="142"/>
      <point x="310" y="69" type="qcurve"/>
      <point x="310" y="53"/>
      <point x="310" y="45" type="qcurve"/>
      <point x="423" y="35" type="line"/>
      <point x="423" y="0" type="line"/>
    </contour>
  </outline>
</glyph>
<glyph name="copyright" format="2">
  <advance width="822" height="1000"/>
  <unicode hex="00A9"/>
  <outline>
    <contour>
      <point x="411" y="-16" type="qcurve"/>
      <point x="250" y="-16"/>
      <point x="144" y="86" type="qcurve"/>
      <point x="33" y="193"/>
      <point x="33" y="540"/>
      <point x="144" y="645" type="qcurve"/>
      <point x="249" y="746"/>
      <point x="573" y="746"/>
      <point x="679" y="645" type="qcurve"/>
      <point x="789" y="540"/>
      <point x="789" y="193"/>
      <point x="679" y="86" type="qcurve"/>
      <point x="573" y="-16"/>
    </contour>
    <contour>
      <point x="267" y="21"/>
      <point x="555" y="21"/>
      <point x="648" y="114" type="qcurve"/>
      <point x="744" y="210"/>
      <point x="744" y="523"/>
      <point x="648" y="618" type="qcurve"/>
      <point x="555" y="709"/>
      <point x="411" y="709" type="qcurve"/>
      <point x="267" y="709"/>
      <point x="175" y="618" type="qcurve"/>
      <point x="79" y="523"/>
      <point x="79" y="367" type="qcurve"/>
      <point x="79" y="209"/>
      <point x="175" y="113" type="qcurve"/>
    </contour>
    <contour>
      <point x="428" y="145" type="qcurve"/>
      <point x="334" y="145"/>
      <point x="216" y="269"/>
      <point x="216" y="464"/>
      <point x="337" y="591"/>
      <point x="428" y="591" type="qcurve"/>
      <point x="496" y="591"/>
      <point x="551" y="560" type="qcurve"/>
      <point x="554" y="458" type="line"/>
      <point x="513" y="458" type="line"/>
      <point x="499" y="542" type="line"/>
      <point x="472" y="555"/>
      <point x="436" y="555" type="qcurve"/>
      <point x="369" y="555"/>
      <point x="327" y="506" type="qcurve"/>
      <point x="284" y="455"/>
      <point x="284" y="279"/>
      <point x="326" y="230" type="qcurve"/>
      <point x="366" y="182"/>
      <point x="435" y="182" type="qcurve"/>
      <point x="475" y="182"/>
      <point x="505" y="194" type="qcurve"/>
      <point x="519" y="277" type="line"/>
      <point x="560" y="277" type="line"/>
      <point x="557" y="175" type="line"/>
      <point x="501" y="145"/>
    </contour>
  </outline>
</glyph>
<glyph name="guillemetleft" format="2">
  <advance width="524" height="1000"/>
  <unicode hex="00AB"/>
  <outline>
    <contour>
      <point x="258" y="55" type="line"/>
      <point x="30" y="250" type="line"/>
      <point x="30" y="299" type="line"/>
      <point x="258" y="494" type="line"/>
      <point x="278" y="470" type="line"/>
      <point x="106" y="274" type="line"/>
      <point x="278" y="79" type="line"/>
    </contour>
    <contour>
      <point x="474" y="55" type="line"/>
      <point x="247" y="250" type="line"/>
      <point x="247" y="299" type="line"/>
      <point x="474" y="494" type="line"/>
      <point x="495" y="470" type="line"/>
      <point x="322" y="274" type="line"/>
      <point x="495" y="79" type="line"/>
    </contour>
  </outline>
</glyph>
<glyph name="macron" format="2">
  <advance width="435" height="1000"/>
  <unicode hex="00AF"/>
  <outline>
    <contour>
      <point x="78" y="658" type="line"/>
      <point x="78" y="715" type="line"/>
      <point x="357" y="715" type="line"/>
      <point x="357" y="658" type="line"/>
    </contour>
  </outline>
</glyph>
<glyph name="degree" format="2">
  <advance width="350" height="1000"/>
  <unicode hex="00B0"/>
  <outline>
    <contour>
      <point x="118" y="474"/>
      <point x="80" y="510" type="qcurve"/>
      <point x="40" y="548"/>
      <point x="40" y="669"/>
      <point x="80" y="708" type="qcurve"/>
      <point x="119" y="746"/>
      <point x="175" y="746" type="qcurve"/>
      <point x="231" y="746"/>
      <point x="270" y="708" type="qcurve"/>
      <point x="310" y="669"/>
      <point x="310" y="548"/>
      <point x="270" y="510" type="qcurve"/>
      <point x="232" y="474"/>
    </contour>
    <contour>
      <point x="135" y="508"/>
      <point x="215" y="508"/>
      <point x="270" y="565"/>
      <point x="270" y="652"/>
      <point x="215" y="712"/>
      <point x="175" y="712" type="qcurve"/>
      <point x="136" y="712"/>
      <point x="80" y="652"/>
      <point x="80" y="565"/>
    </contour>
  </outline>
</glyph>
<glyph name="plusminus" format="2">
  <advance width="1000" height="1000"/>
  <unicode hex="00B1"/>
  <outline>
    <contour>
      <point x="125" y="10" type="line"/>
      <point x="125" y="53" type="line"/>
      <point x="875" y="53" type="line"/>
      <point x="875" y="10" type="line"/>
    </contour>
    <contour>
      <point x="478" y="133" type="line"/>
      <point x="478" y="439" type="line"/>
      <point x="125" y="439" type="line"/>
      <point x="125" y="482" type="line"/>
      <point x="478" y="482" type="line"/>
      <point x="478" y="788" type="line"/>
      <point x="522" y="788" type="line"/>
      <point x="522" y="482" type="line"/>
      <point x="875" y="482" type="line"/>
      <point x="875" y="439" type="line"/>
      <point x="522" y="439" type="line"/>
      <point x="522" y="133" type="line"/>
    </contour>
  </outline>
</glyph>
<glyph name="twosuperior" format="2">
  <advance width="395" height="1000"/>
  <unicode hex="00B2"/>
  <outline>
    <contour>
      <point x="59" y="465" type="line"/>
      <point x="59" y="511" type="line"/>
      <point x="168" y="620" type="line"/>
      <point x="261" y="710"/>
      <point x="261" y="786" type="qcurve"/>
      <point x="261" y="827"/>
      <point x="215" y="874"/>
      <point x="175" y="874" type="qcurve"/>
      <point x="156" y="874"/>
      <point x="139" y="870" type="qcurve"/>
      <point x="127" y="826" type="line"/>
      <point x="120" y="800"/>
      <point x="102" y="779"/>
      <point x="88" y="779" type="qcurve"/>
      <point x="66" y="779"/>
      <point x="53" y="802" type="qcurve"/>
      <point x="59" y="852"/>
      <point x="102" y="879" type="qcurve"/>
      <point x="141" y="905"/>
      <point x="198" y="905" type="qcurve"/>
      <point x="263" y="905"/>
      <point x="298" y="871" type="qcurve"/>
      <point x="328" y="841"/>
      <point x="328" y="792" type="qcurve"/>
      <point x="328" y="751"/>
      <point x="297" y="707" type="qcurve"/>
      <point x="272" y="671"/>
      <point x="199" y="600" type="qcurve"/>
      <point x="121" y="527" type="line"/>
      <point x="347" y="527" type="line"/>
      <point x="347" y="465" type="line"/>
    </contour>
  </outline>
</glyph>
<glyph name="paragraph" format="2">
  <advance width="1000" height="1000"/>
  <unicode hex="00B6"/>
  <outline>
    <contour>
      <point x="605" y="-139" type="line"/>
      <point x="608" y="-25"/>
      <point x="608" y="208" type="qcurve"/>
      <point x="608" y="708" type="line"/>
      <point x="538" y="708" type="line"/>
      <point x="538" y="170" type="line"/>
      <point x="397" y="170"/>
      <point x="306" y="243" type="qcurve"/>
      <point x="208" y="322"/>
      <point x="208" y="597"/>
      <point x="307" y="674" type="qcurve"/>
      <point x="404" y="748"/>
      <point x="570" y="748" type="qcurve"/>
      <point x="793" y="748" type="line"/>
      <point x="793" y="711" type="line"/>
      <point x="688" y="703" type="line"/>
      <point x="686" y="603"/>
      <point x="686" y="400" type="qcurve"/>
      <point x="686" y="208" type="line"/>
      <point x="686" y="-24"/>
      <point x="689" y="-139" type="qcurve"/>
    </contour>
  </outline>
</glyph>
<glyph name="periodcentered" format="2">
  <advance width="326" height="1000"/>
  <unicode hex="00B7"/>
  <outline>
    <contour>
      <point x="135" y="296"/>
      <point x="97" y="335"/>
      <point x="97" y="390"/>
      <point x="135" y="429"/>
      <point x="163" y="429" type="qcurve"/>
      <point x="191" y="429"/>
      <point x="229" y="390"/>
      <point x="229" y="335"/>
      <point x="191" y="296"/>
    </contour>
  </outline>
</glyph>
<glyph name="onehalf" format="2">
  <advance width="935" height="1000"/>
  <unicode hex="00BD"/>
  <outline>
    <contour>
      <point x="217" y="-26" type="line"/>
      <point x="190" y="-4" type="line"/>
      <point x="700" y="729" type="line"/>
      <point x="727" y="707" type="line"/>
    </contour>
    <contour>
      <point x="564" y="0" type="line"/>
      <point x="564" y="46" type="line"/>
      <point x="674" y="154" type="line"/>
      <point x="766" y="245"/>
      <point x="766" y="321" type="qcurve"/>
      <point x="766" y="362"/>
      <point x="721" y="409"/>
      <point x="680" y="409" type="qcurve"/>
      <point x="667" y="409"/>
      <point x="645" y="404" type="qcurve"/>
      <point x="633" y="361" type="line"/>
      <point x="620" y="314"/>
      <point x="594" y="314" type="qcurve"/>
      <point x="571" y="314"/>
      <point x="559" y="337" type="qcurve"/>
      <point x="565" y="386"/>
      <point x="607" y="414" type="qcurve"/>
      <point x="647" y="440"/>
      <point x="703" y="440" type="qcurve"/>
      <point x="769" y="440"/>
      <point x="803" y="406" type="qcurve"/>
      <point x="834" y="376"/>
      <point x="834" y="327" type="qcurve"/>
      <point x="834" y="285"/>
      <point x="803" y="242" type="qcurve"/>
      <point x="778" y="206"/>
      <point x="704" y="135" type="qcurve"/>
      <point x="627" y="62" type="line"/>
      <point x="852" y="62" type="line"/>
      <point x="852" y="0" type="line"/>
    </contour>
    <contour>
      <point x="66" y="278" type="line"/>
      <point x="66" y="305" type="line"/>
      <point x="167" y="320" type="line"/>
      <point x="167" y="658" type="line"/>
      <point x="79" y="650" type="line"/>
      <point x="79" y="683" type="line"/>
      <point x="223" y="716" type="line"/>
      <point x="233" y="710" type="line"/>
      <point x="233" y="320" type="line"/>
      <point x="330" y="305" type="line"/>
      <point x="330" y="278" type="line"/>
    </contour>
  </outline>
</glyph>
<glyph name="threequarters" format="2">
  <advance width="935" height="1000"/>
  <unicode hex="00BE"/>
  <outline>
    <contour>
      <point x="263" y="-26" type="line"/>
      <point x="236" y="-4" type="line"/>
      <point x="746" y="729" type="line"/>
      <point x="773" y="707" type="line"/>
    </contour>
    <contour>
      <point x="722" y="0" type="line"/>
      <point x="722" y="117" type="line"/>
      <point x="534" y="117" type="line"/>
      <point x="534" y="159" type="line"/>
      <point x="739" y="438" type="line"/>
      <point x="782" y="438" type="line"/>
      <point x="782" y="168" type="line"/>
      <point x="854" y="168" type="line"/>
      <point x="854" y="117" type="line"/>
      <point x="782" y="117" type="line"/>
      <point x="782" y="0" type="line"/>
    </contour>
    <contour>
      <point x="578" y="168" type="line"/>
      <point x="722" y="168" type="line"/>
      <point x="722" y="372" type="line"/>
    </contour>
    <contour>
      <point x="232" y="270" type="qcurve"/>
      <point x="108" y="270"/>
      <point x="90" y="365" type="qcurve"/>
      <point x="99" y="390"/>
      <point x="124" y="390" type="qcurve"/>
      <point x="151" y="390"/>
      <point x="162" y="346" type="qcurve"/>
      <point x="171" y="306" type="line"/>
      <point x="194" y="300"/>
      <point x="214" y="300" type="qcurve"/>
      <point x="264" y="300"/>
      <point x="318" y="351"/>
      <point x="318" y="396" type="qcurve"/>
      <point x="318" y="486"/>
      <point x="212" y="486" type="qcurve"/>
      <point x="178" y="486" type="line"/>
      <point x="178" y="523" type="line"/>
      <point x="207" y="523" type="line"/>
      <point x="253" y="523"/>
      <point x="302" y="567"/>
      <point x="302" y="607" type="qcurve"/>
      <point x="302" y="645"/>
      <point x="258" y="687"/>
      <point x="220" y="687" type="qcurve"/>
      <point x="201" y="687"/>
      <point x="184" y="683" type="qcurve"/>
      <point x="175" y="644" type="line"/>
      <point x="168" y="603"/>
      <point x="137" y="603" type="qcurve"/>
      <point x="115" y="603"/>
      <point x="104" y="625" type="qcurve"/>
      <point x="112" y="671"/>
      <point x="150" y="696" type="qcurve"/>
      <point x="185" y="719"/>
      <point x="237" y="719" type="qcurve"/>
      <point x="295" y="719"/>
      <point x="367" y="660"/>
      <point x="367" y="613" type="qcurve"/>
      <point x="367" y="574"/>
      <point x="319" y="517"/>
      <point x="280" y="506" type="qcurve"/>
      <point x="386" y="488"/>
      <point x="386" y="393" type="qcurve"/>
      <point x="386" y="333"/>
      <point x="339" y="300" type="qcurve"/>
      <point x="297" y="270"/>
    </contour>
  </outline>
</glyph>
<glyph name="questiondown" format="2">
  <advance width="438" height="1000"/>
  <unicode hex="00BF"/>
  <outline>
    <contour>
      <point x="313" y="-227" type="qcurve"/>
      <point x="225" y="-214"/>
      <point x="154" y="-157" type="qcurve"/>
      <point x="67" y="-88"/>
      <point x="67" y="8" type="qcurve"/>
      <point x="67" y="109"/>
      <point x="171" y="151" type="qcurve"/>
      <point x="207" y="165" type="line"/>
      <point x="243" y="180"/>
      <point x="263" y="205"/>
      <point x="263" y="232" type="qcurve"/>
      <point x="262" y="300" type="line"/>
      <point x="293" y="300" type="line"/>
      <point x="307" y="255" type="line"/>
      <point x="308" y="250"/>
      <point x="310" y="242" type="qcurve"/>
      <point x="322" y="195"/>
      <point x="322" y="183" type="qcurve"/>
      <point x="322" y="158"/>
      <point x="285" y="124"/>
      <point x="237" y="105" type="qcurve"/>
      <point x="185" y="85" type="line"/>
      <point x="148" y="68"/>
      <point x="114" y="24"/>
      <point x="114" y="-9" type="qcurve"/>
      <point x="115" y="-55"/>
      <point x="149" y="-98" type="qcurve"/>
      <point x="295" y="-123" type="line"/>
      <point x="333" y="-130"/>
      <point x="349" y="-144" type="qcurve"/>
      <point x="362" y="-155"/>
      <point x="362" y="-175" type="qcurve"/>
      <point x="362" y="-214"/>
    </contour>
    <contour>
      <point x="255" y="412"/>
      <point x="218" y="448"/>
      <point x="218" y="497"/>
      <point x="255" y="534"/>
      <point x="280" y="534" type="qcurve"/>
      <point x="305" y="534"/>
      <point x="341" y="497"/>
      <point x="341" y="448"/>
      <point x="305" y="412"/>
    </contour>
  </outline>
</glyph>
<glyph name="Agrave" format="2">
  <advance width="719" height="1000"/>
  <unicode hex="00C0"/>
  <outline>
    <contour>
      <point x="8" y="0" type="line"/>
      <point x="8" y="36" type="line"/>
      <point x="98" y="48" type="line"/>
      <point x="329" y="736" type="line"/>
      <point x="385" y="736" type="line"/>
      <point x="620" y="46" type="line"/>
      <point x="710" y="36" type="line"/>
      <point x="710" y="0" type="line"/>
      <point x="421" y="0" type="line"/>
      <point x="421" y="36" type="line"/>
      <point x="531" y="47" type="line"/>
      <point x="465" y="246" type="line"/>
      <point x="208" y="246" type="line"/>
      <point x="143" y="49" type="line"/>
      <point x="248" y="36" type="line"/>
      <point x="248" y="0" type="line"/>
    </contour>
    <contour>
      <point x="222" y="287" type="line"/>
      <point x="451" y="287" type="line"/>
      <point x="336" y="633" type="line"/>
    </contour>
    <contour>
      <point x="404" y="787" type="line"/>
      <point x="401" y="789"/>
      <point x="395" y="792" type="qcurve"/>
      <point x="311" y="838"/>
      <point x="272" y="860" type="qcurve"/>
      <point x="217" y="891"/>
      <point x="217" y="916" type="qcurve"/>
      <point x="217" y="931"/>
      <point x="238" y="949"/>
      <point x="253" y="949" type="qcurve"/>
      <point x="276" y="949"/>
      <point x="317" y="909" type="qcurve"/>
      <point x="421" y="808" type="line"/>
    </contour>
  </outline>
</glyph>
<glyph name="Aacute" format="2">
  <advance width="719" height="1000"/>
  <unicode hex="00C1"/>
  <outline>
    <contour>
      <point x="8" y="0" type="line"/>
      <point x="8" y="36" type="line"/>
      <point x="98" y="48" type="line"/>
      <point x="329" y="736" type="line"/>
      <point x="385" y="736" type="line"/>
      <point x="620" y="46" type="line"/>
      <point x="710" y="36" type="line"/>
      <point x="710" y="0" type="line"/>
      <point x="421" y="0" type="line"/>
      <point x="421" y="36" type="line"/>
      <point x="531" y="47" type="line"/>
      <point x="465" y="246" type="line"/>
      <point x="208" y="246" type="line"/>
      <point x="143" y="49" type="line"/>
      <point x="248" y="36" type="line"/>
      <point x="248" y="0" type="line"/>
    </contour>
    <contour>
      <point x="222" y="287" type="line"/>
      <point x="451" y="287" type="line"/>
      <point x="336" y="633" type="line"/>
    </contour>
    <contour>
      <point x="303" y="787" type="qcurve"/>
      <point x="287" y="808" type="line"/>
      <point x="314" y="836"/>
      <point x="366" y="886" type="qcurve"/>
      <point x="382" y="901"/>
      <point x="390" y="909" type="qcurve"/>
      <point x="433" y="949"/>
      <point x="454" y="949" type="qcurve"/>
      <point x="469" y="949"/>
      <point x="490" y="931"/>
      <point x="490" y="916" type="qcurve"/>
      <point x="490" y="891"/>
      <point x="436" y="860" type="qcurve"/>
      <point x="420" y="851"/>
      <point x="388" y="834" type="qcurve"/>
      <point x="332" y="802"/>
    </contour>
  </outline>
</glyph>
<glyph name="AE" format="2">
  <advance width="997" height="1000"/>
  <unicode hex="00C6"/>
  <outline>
    <contour>
      <point x="8" y="0" type="line"/>
      <point x="8" y="36" type="line"/>
      <point x="100" y="47" type="line"/>
      <point x="442" y="683" type="line"/>
      <point x="362" y="694" type="line"/>
      <point x="362" y="729" type="line"/>
      <point x="927" y="729" type="line"/>
      <point x="935" y="541" type="line"/>
      <point x="885" y="541" type="line"/>
      <point x="859" y="685" type="line"/>
      <point x="586" y="685" type="line"/>
      <point x="584" y="591"/>
      <point x="584" y="391" type="qcurve"/>
      <point x="759" y="391" type="line"/>
      <point x="773" y="499" type="line"/>
      <point x="814" y="499" type="line"/>
      <point x="814" y="246" type="line"/>
      <point x="773" y="246" type="line"/>
      <point x="760" y="351" type="line"/>
      <point x="584" y="351" type="line"/>
      <point x="584" y="142"/>
      <point x="586" y="45" type="qcurve"/>
      <point x="879" y="45" type="line"/>
      <point x="905" y="189" type="line"/>
      <point x="954" y="189" type="line"/>
      <point x="948" y="0" type="line"/>
      <point x="399" y="0" type="line"/>
      <point x="399" y="36" type="line"/>
      <point x="497" y="46" type="line"/>
      <point x="499" y="196"/>
      <point x="499" y="276" type="qcurve"/>
      <point x="273" y="276" type="line"/>
      <point x="151" y="49" type="line"/>
      <point x="249" y="36" type="line"/>
      <point x="249" y="0" type="line"/>
    </contour>
    <contour>
      <point x="295" y="316" type="line"/>
      <point x="499" y="316" type="line"/>
      <point x="499" y="679" type="line"/>
      <point x="490" y="679" type="line"/>
    </contour>
  </outline>
</glyph>
<glyph name="Ccedilla" format="2">
  <advance width="690" height="1000"/>
  <unicode hex="00C7"/>
  <outline>
    <contour>
      <point x="401" y="-238" type="qcurve"/>
      <point x="363" y="-238"/>
      <point x="334" y="-227" type="qcurve"/>
      <point x="340" y="-200" type="line"/>
      <point x="365" y="-204"/>
      <point x="393" y="-204" type="qcurve"/>
      <point x="459" y="-204"/>
      <point x="459" y="-150" type="qcurve"/>
      <point x="459" y="-124"/>
      <point x="420" y="-96"/>
      <point x="376" y="-91" type="qcurve"/>
      <point x="387" y="-15" type="line"/>
      <point x="238" y="-3"/>
      <point x="55" y="206"/>
      <point x="55" y="365" type="qcurve"/>
      <point x="55" y="531"/>
      <point x="263" y="746"/>
      <point x="421" y="746" type="qcurve"/>
      <point x="537" y="746"/>
      <point x="628" y="692" type="qcurve"/>
      <point x="632" y="535" type="line"/>
      <point x="577" y="535" type="line"/>
      <point x="553" y="670" type="line"/>
      <point x="495" y="701"/>
      <point x="432" y="701" type="qcurve"/>
      <point x="309" y="701"/>
      <point x="233" y="613" type="qcurve"/>
      <point x="153" y="522"/>
      <point x="153" y="365" type="qcurve"/>
      <point x="153" y="206"/>
      <point x="229" y="116" type="qcurve"/>
      <point x="303" y="29"/>
      <point x="425" y="29" type="qcurve"/>
      <point x="500" y="29"/>
      <point x="563" y="60" type="qcurve"/>
      <point x="587" y="196" type="line"/>
      <point x="641" y="196" type="line"/>
      <point x="638" y="38" type="line"/>
      <point x="544" y="-16"/>
      <point x="421" y="-16" type="qcurve"/>
      <point x="414" y="-65" type="line"/>
      <point x="459" y="-70"/>
      <point x="487" y="-92" type="qcurve"/>
      <point x="516" y="-115"/>
      <point x="516" y="-152" type="qcurve"/>
      <point x="516" y="-190"/>
      <point x="487" y="-213" type="qcurve"/>
      <point x="456" y="-238"/>
    </contour>
  </outline>
</glyph>
<glyph name="Egrave" format="2">
  <advance width="655" height="1000"/>
  <unicode hex="00C8"/>
  <outline>
    <contour>
      <point x="52" y="0" type="line"/>
      <point x="52" y="36" type="line"/>
      <point x="156" y="47" type="line"/>
      <point x="159" y="142"/>
      <point x="159" y="337" type="qcurve"/>
      <point x="159" y="392" type="line"/>
      <point x="159" y="587"/>
      <point x="156" y="683" type="qcurve"/>
      <point x="52" y="694" type="line"/>
      <point x="52" y="729" type="line"/>
      <point x="587" y="729" type="line"/>
      <point x="594" y="541" type="line"/>
      <point x="545" y="541" type="line"/>
      <point x="518" y="685" type="line"/>
      <point x="245" y="685" type="line"/>
      <point x="242" y="591"/>
      <point x="242" y="391" type="qcurve"/>
      <point x="417" y="391" type="line"/>
      <point x="432" y="499" type="line"/>
      <point x="473" y="499" type="line"/>
      <point x="473" y="246" type="line"/>
      <point x="432" y="246" type="line"/>
      <point x="418" y="351" type="line"/>
      <point x="242" y="351" type="line"/>
      <point x="242" y="142"/>
      <point x="245" y="45" type="qcurve"/>
      <point x="538" y="45" type="line"/>
      <point x="564" y="189" type="line"/>
      <point x="614" y="189" type="line"/>
      <point x="607" y="0" type="line"/>
    </contour>
    <contour>
      <point x="380" y="787" type="line"/>
      <point x="330" y="814"/>
      <point x="247" y="860" type="qcurve"/>
      <point x="192" y="891"/>
      <point x="192" y="916" type="qcurve"/>
      <point x="192" y="931"/>
      <point x="213" y="949"/>
      <point x="228" y="949" type="qcurve"/>
      <point x="251" y="949"/>
      <point x="292" y="909" type="qcurve"/>
      <point x="345" y="860"/>
      <point x="396" y="808" type="qcurve"/>
    </contour>
  </outline>
</glyph>
<glyph name="Edieresis" format="2">
  <advance width="655" height="1000"/>
  <unicode hex="00CB"/>
  <outline>
    <contour>
      <point x="52" y="0" type="line"/>
      <point x="52" y="36" type="line"/>
      <point x="156" y="47" type="line"/>
      <point x="159" y="142"/>
      <point x="159" y="337" type="qcurve"/>
      <point x="159" y="392" type="line"/>
      <point x="159" y="587"/>
      <point x="156" y="683" type="qcurve"/>
      <point x="52" y="694" type="line"/>
      <point x="52" y="729" type="line"/>
      <point x="587" y="729" type="line"/>
      <point x="594" y="541" type="line"/>
      <point x="545" y="541" type="line"/>
      <point x="518" y="685" type="line"/>
      <point x="245" y="685" type="line"/>
      <point x="242" y="591"/>
      <point x="242" y="391" type="qcurve"/>
      <point x="417" y="391" type="line"/>
      <point x="432" y="499" type="line"/>
      <point x="473" y="499" type="line"/>
      <point x="473" y="246" type="line"/>
      <point x="432" y="246" type="line"/>
      <point x="418" y="351" type="line"/>
      <point x="242" y="351" type="line"/>
      <point x="242" y="142"/>
      <point x="245" y="45" type="qcurve"/>
      <point x="538" y="45" type="line"/>
      <point x="564" y="189" type="line"/>
      <point x="614" y="189" type="line"/>
      <point x="607" y="0" type="line"/>
    </contour>
    <contour>
      <point x="214" y="813"/>
      <point x="180" y="843"/>
      <point x="180" y="889"/>
      <point x="214" y="920"/>
      <point x="237" y="920" type="qcurve"/>
      <point x="260" y="920"/>
      <point x="291" y="889"/>
      <point x="291" y="843"/>
      <point x="260" y="813"/>
    </contour>
    <contour>
      <point x="474" y="813" type="qcurve"/>
      <point x="450" y="813"/>
      <point x="418" y="843"/>
      <point x="418" y="889"/>
      <point x="451" y="920"/>
      <point x="474" y="920" type="qcurve"/>
      <point x="496" y="920"/>
      <point x="529" y="889"/>
      <point x="529" y="843"/>
      <point x="496" y="813"/>
    </contour>
  </outline>
</glyph>
<glyph name="Igrave" format="2">
  <advance width="401" height="1000"/>
  <unicode hex="00CC"/>
  <outline>
    <contour>
      <point x="52" y="0" type="line"/>
      <point x="52" y="36" type="line"/>
      <point x="156" y="47" type="line"/>
      <point x="159" y="142"/>
      <point x="159" y="337" type="qcurve"/>
      <point x="159" y="392" type="line"/>
      <point x="159" y="587"/>
      <point x="156" y="683" type="qcurve"/>
      <point x="52" y="694" type="line"/>
      <point x="52" y="729" type="line"/>
      <point x="349" y="729" type="line"/>
      <point x="349" y="694" type="line"/>
      <point x="245" y="683" type="line"/>
      <point x="242" y="588"/>
      <point x="242" y="392" type="qcurve"/>
      <point x="242" y="337" type="line"/>
      <point x="242" y="143"/>
      <point x="245" y="47" type="qcurve"/>
      <point x="349" y="36" type="line"/>
      <point x="349" y="0" type="line"/>
    </contour>
    <contour>
      <point x="250" y="787" type="line"/>
      <point x="200" y="814"/>
      <point x="117" y="860" type="qcurve"/>
      <point x="63" y="890"/>
      <point x="63" y="916" type="qcurve"/>
      <point x="63" y="931"/>
      <point x="84" y="949"/>
      <point x="99" y="949" type="qcurve"/>
      <point x="122" y="949"/>
      <point x="163" y="909" type="qcurve"/>
      <point x="231" y="843"/>
      <point x="266" y="808" type="qcurve"/>
    </contour>
  </outline>
</glyph>
<glyph name="Iacute" format="2">
  <advance width="401" height="1000"/>
  <unicode hex="00CD"/>
  <outline>
    <contour>
      <point x="52" y="0" type="line"/>
      <point x="52" y="36" type="line"/>
      <point x="156" y="47" type="line"/>
      <point x="159" y="142"/>
      <point x="159" y="337" type="qcurve"/>
      <point x="159" y="392" type="line"/>
      <point x="159" y="587"/>
      <point x="156" y="683" type="qcurve"/>
      <point x="52" y="694" type="line"/>
      <point x="52" y="729" type="line"/>
      <point x="349" y="729" type="line"/>
      <point x="349" y="694" type="line"/>
      <point x="245" y="683" type="line"/>
      <point x="242" y="588"/>
      <point x="242" y="392" type="qcurve"/>
      <point x="242" y="337" type="line"/>
      <point x="242" y="143"/>
      <point x="245" y="47" type="qcurve"/>
      <point x="349" y="36" type="line"/>
      <point x="349" y="0" type="line"/>
    </contour>
    <contour>
      <point x="167" y="787" type="qcurve"/>
      <point x="151" y="808" type="line"/>
      <point x="178" y="836"/>
      <point x="230" y="886" type="qcurve"/>
      <point x="246" y="901"/>
      <point x="254" y="909" type="qcurve"/>
      <point x="297" y="949"/>
      <point x="318" y="949" type="qcurve"/>
      <point x="333" y="949"/>
      <point x="354" y="931"/>
      <point x="354" y="916" type="qcurve"/>
      <point x="354" y="891"/>
      <point x="300" y="860" type="qcurve"/>
      <point x="294" y="856"/>
      <point x="281" y="849" type="qcurve"/>
      <point x="205" y="807"/>
    </contour>
  </outline>
</glyph>
<glyph name="Icircumflex" format="2">
  <advance width="401" height="1000"/>
  <unicode hex="00CE"/>
  <outline>
    <contour>
      <point x="52" y="0" type="line"/>
      <point x="52" y="36" type="line"/>
      <point x="156" y="47" type="line"/>
      <point x="159" y="142"/>
      <point x="159" y="337" type="qcurve"/>
      <point x="159" y="392" type="line"/>
      <point x="159" y="587"/>
      <point x="156" y="683" type="qcurve"/>
      <point x="52" y="694" type="line"/>
      <point x="52" y="729" type="line"/>
      <point x="349" y="729" type="line"/>
      <point x="349" y="694" type="line"/>
      <point x="245" y="683" type="line"/>
      <point x="242" y="588"/>
      <point x="242" y="392" type="qcurve"/>
      <point x="242" y="337" type="line"/>
      <point x="242" y="143"/>
      <point x="245" y="47" type="qcurve"/>
      <point x="349" y="36" type="line"/>
      <point x="349" y="0" type="line"/>
    </contour>
    <contour>
      <point x="61" y="782" type="line"/>
      <point x="45" y="802" type="line"/>
      <point x="185" y="926" type="line"/>
      <point x="216" y="926" type="line"/>
      <point x="357" y="802" type="line"/>
      <point x="340" y="782" type="line"/>
      <point x="201" y="863" type="line"/>
    </contour>
  </outline>
</glyph>
<glyph name="Idieresis" format="2">
  <advance width="401" height="1000"/>
  <unicode hex="00CF"/>
  <outline>
    <contour>
      <point x="52" y="0" type="line"/>
      <point x="52" y="36" type="line"/>
      <point x="156" y="47" type="line"/>
      <point x="159" y="142"/>
      <point x="159" y="337" type="qcurve"/>
      <point x="159" y="392" type="line"/>
      <point x="159" y="587"/>
      <point x="156" y="683" type="qcurve"/>
      <point x="52" y="694" type="line"/>
      <point x="52" y="729" type="line"/>
      <point x="349" y="729" type="line"/>
      <point x="349" y="694" type="line"/>
      <point x="245" y="683" type="line"/>
      <point x="242" y="588"/>
      <point x="242" y="392" type="qcurve"/>
      <point x="242" y="337" type="line"/>
      <point x="242" y="143"/>
      <point x="245" y="47" type="qcurve"/>
      <point x="349" y="36" type="line"/>
      <point x="349" y="0" type="line"/>
    </contour>
    <contour>
      <point x="82" y="813" type="qcurve"/>
      <point x="58" y="813"/>
      <point x="26" y="843"/>
      <point x="26" y="889"/>
      <point x="59" y="920"/>
      <point x="82" y="920" type="qcurve"/>
      <point x="105" y="920"/>
      <point x="137" y="889"/>
      <point x="137" y="843"/>
      <point x="105" y="813"/>
    </contour>
    <contour>
      <point x="318" y="813" type="qcurve"/>
      <point x="295" y="813"/>
      <point x="263" y="843"/>
      <point x="263" y="889"/>
      <point x="295" y="920"/>
      <point x="342" y="920"/>
      <point x="375" y="889"/>
      <point x="375" y="843"/>
      <point x="342" y="813"/>
    </contour>
  </outline>
</glyph>
<glyph name="Eth" format="2">
  <advance width="772" height="1000"/>
  <unicode hex="00D0"/>
  <outline>
    <contour>
      <point x="52" y="0" type="line"/>
      <point x="52" y="36" type="line"/>
      <point x="156" y="47" type="line"/>
      <point x="159" y="142"/>
      <point x="159" y="353" type="qcurve"/>
      <point x="52" y="353" type="line"/>
      <point x="52" y="395" type="line"/>
      <point x="159" y="395" type="line"/>
      <point x="159" y="589"/>
      <point x="156" y="683" type="qcurve"/>
      <point x="52" y="694" type="line"/>
      <point x="52" y="729" type="line"/>
      <point x="363" y="729" type="line"/>
      <point x="525" y="729"/>
      <point x="619" y="635" type="qcurve"/>
      <point x="715" y="538"/>
      <point x="715" y="364" type="qcurve"/>
      <point x="715" y="194"/>
      <point x="611" y="95" type="qcurve"/>
      <point x="511" y="0"/>
      <point x="345" y="0" type="qcurve"/>
    </contour>
    <contour>
      <point x="245" y="41" type="qcurve"/>
      <point x="336" y="41" type="line"/>
      <point x="473" y="41"/>
      <point x="547" y="127" type="qcurve"/>
      <point x="619" y="211"/>
      <point x="619" y="364" type="qcurve"/>
      <point x="619" y="522"/>
      <point x="478" y="688"/>
      <point x="347" y="688" type="qcurve"/>
      <point x="245" y="688" type="line"/>
      <point x="242" y="593"/>
      <point x="242" y="395" type="qcurve"/>
      <point x="420" y="395" type="line"/>
      <point x="420" y="353" type="line"/>
      <point x="242" y="353" type="line"/>
      <point x="242" y="139"/>
    </contour>
  </outline>
</glyph>
<glyph name="Oacute" format="2">
  <advance width="769" height="1000"/>
  <unicode hex="00D3"/>
  <outline>
    <contour>
      <point x="385" y="-16" type="qcurve"/>
      <point x="249" y="-16"/>
      <point x="156" y="83" type="qcurve"/>
      <point x="55" y="190"/>
      <point x="55" y="365" type="qcurve"/>
      <point x="55" y="479"/>
      <point x="103" y="569" type="qcurve"/>
      <point x="147" y="652"/>
      <point x="223" y="700" type="qcurve"/>
      <point x="298" y="746"/>
      <point x="385" y="746" type="qcurve"/>
      <point x="520" y="746"/>
      <point x="612" y="647" type="qcurve"/>
      <point x="712" y="540"/>
      <point x="712" y="365" type="qcurve"/>
      <point x="712" y="251"/>
      <point x="665" y="161" type="qcurve"/>
      <point x="621" y="77"/>
      <point x="545" y="30" type="qcurve"/>
      <point x="471" y="-16"/>
    </contour>
    <contour>
      <point x="385" y="28" type="qcurve"/>
      <point x="496" y="28"/>
      <point x="559" y="132" type="qcurve"/>
      <point x="615" y="225"/>
      <point x="615" y="505"/>
      <point x="559" y="598" type="qcurve"/>
      <point x="496" y="701"/>
      <point x="385" y="701" type="qcurve"/>
      <point x="273" y="701"/>
      <point x="210" y="598" type="qcurve"/>
      <point x="153" y="505"/>
      <point x="153" y="225"/>
      <point x="210" y="132" type="qcurve"/>
      <point x="273" y="28"/>
    </contour>
    <contour>
      <point x="351" y="787" type="qcurve"/>
      <point x="336" y="808" type="line"/>
      <point x="382" y="856"/>
      <point x="439" y="909" type="qcurve"/>
      <point x="479" y="949"/>
      <point x="502" y="949" type="qcurve"/>
      <point x="517" y="949"/>
      <point x="538" y="931"/>
      <point x="538" y="916" type="qcurve"/>
      <point x="538" y="891"/>
      <point x="485" y="860" type="qcurve"/>
      <point x="471" y="853"/>
      <point x="444" y="837" type="qcurve"/>
      <point x="382" y="804"/>
    </contour>
  </outline>
</glyph>
<glyph name="Otilde" format="2">
  <advance width="769" height="1000"/>
  <unicode hex="00D5"/>
  <outline>
    <contour>
      <point x="385" y="-16" type="qcurve"/>
      <point x="249" y="-16"/>
      <point x="156" y="83" type="qcurve"/>
      <point x="55" y="190"/>
      <point x="55" y="365" type="qcurve"/>
      <point x="55" y="479"/>
      <point x="103" y="569" type="qcurve"/>
      <point x="147" y="652"/>
      <point x="223" y="700" type="qcurve"/>
      <point x="298" y="746"/>
      <point x="385" y="746" type="qcurve"/>
      <point x="520" y="746"/>
      <point x="612" y="647" type="qcurve"/>
      <point x="712" y="540"/>
      <point x="712" y="365" type="qcurve"/>
      <point x="712" y="251"/>
      <point x="665" y="161" type="qcurve"/>
      <point x="621" y="77"/>
      <point x="545" y="30" type="qcurve"/>
      <point x="471" y="-16"/>
    </contour>
    <contour>
      <point x="385" y="28" type="qcurve"/>
      <point x="496" y="28"/>
      <point x="559" y="132" type="qcurve"/>
      <point x="615" y="225"/>
      <point x="615" y="505"/>
      <point x="559" y="598" type="qcurve"/>
      <point x="496" y="701"/>
      <point x="385" y="701" type="qcurve"/>
      <point x="273" y="701"/>
      <point x="210" y="598" type="qcurve"/>
      <point x="153" y="505"/>
      <point x="153" y="225"/>
      <point x="210" y="132" type="qcurve"/>
      <point x="273" y="28"/>
    </contour>
    <contour>
      <point x="465" y="790" type="qcurve"/>
      <point x="422" y="790"/>
      <point x="377" y="829" type="qcurve"/>
      <point x="372" y="833"/>
      <point x="363" y="841" type="qcurve"/>
      <point x="343" y="861"/>
      <point x="332" y="868" type="qcurve"/>
      <point x="314" y="880"/>
      <point x="296" y="880" type="qcurve"/>
      <point x="246" y="880"/>
      <point x="220" y="795" type="qcurve"/>
      <point x="193" y="802" type="line"/>
      <point x="213" y="933"/>
      <point x="303" y="933" type="qcurve"/>
      <point x="330" y="933"/>
      <point x="354" y="921" type="qcurve"/>
      <point x="369" y="913"/>
      <point x="392" y="894" type="qcurve"/>
      <point x="396" y="890"/>
      <point x="405" y="882" type="qcurve"/>
      <point x="426" y="863"/>
      <point x="437" y="856" type="qcurve"/>
      <point x="455" y="844"/>
      <point x="474" y="844" type="qcurve"/>
      <point x="523" y="844"/>
      <point x="550" y="928" type="qcurve"/>
      <point x="576" y="921" type="line"/>
      <point x="554" y="790"/>
    </contour>
  </outline>
</glyph>
<glyph name="Odieresis" format="2">
  <advance width="769" height="1000"/>
  <unicode hex="00D6"/>
  <outline>
    <contour>
      <point x="385" y="-16" type="qcurve"/>
      <point x="249" y="-16"/>
      <point x="156" y="83" type="qcurve"/>
      <point x="55" y="190"/>
      <point x="55" y="365" type="qcurve"/>
      <point x="55" y="479"/>
      <point x="103" y="569" type="qcurve"/>
      <point x="147" y="652"/>
      <point x="223" y="700" type="qcurve"/>
      <point x="298" y="746"/>
      <point x="385" y="746" type="qcurve"/>
      <point x="520" y="746"/>
      <point x="612" y="647" type="qcurve"/>
      <point x="712" y="540"/>
      <point x="712" y="365" type="qcurve"/>
      <point x="712" y="251"/>
      <point x="665" y="161" type="qcurve"/>
      <point x="621" y="77"/>
      <point x="545" y="30" type="qcurve"/>
      <point x="471" y="-16"/>
    </contour>
    <contour>
      <point x="385" y="28" type="qcurve"/>
      <point x="496" y="28"/>
      <point x="559" y="132" type="qcurve"/>
      <point x="615" y="225"/>
      <point x="615" y="505"/>
      <point x="559" y="598" type="qcurve"/>
      <point x="496" y="701"/>
      <point x="385" y="701" type="qcurve"/>
      <point x="273" y="701"/>
      <point x="210" y="598" type="qcurve"/>
      <point x="153" y="505"/>
      <point x="153" y="225"/>
      <point x="210" y="132" type="qcurve"/>
      <point x="273" y="28"/>
    </contour>
    <contour>
      <point x="265" y="813" type="qcurve"/>
      <point x="243" y="813"/>
      <point x="210" y="843"/>
      <point x="210" y="889"/>
      <point x="243" y="920"/>
      <point x="265" y="920" type="qcurve"/>
      <point x="288" y="920"/>
      <point x="321" y="889"/>
      <point x="321" y="843"/>
      <point x="289" y="813"/>
    </contour>
    <contour>
      <point x="480" y="813"/>
      <point x="448" y="843"/>
      <point x="448" y="889"/>
      <point x="480" y="920"/>
      <point x="503" y="920" type="qcurve"/>
      <point x="526" y="920"/>
      <point x="559" y="889"/>
      <point x="559" y="843"/>
      <point x="526" y="813"/>
    </contour>
  </outline>
</glyph>
<glyph name="multiply" format="2">
  <advance width="1000" height="1000"/>
  <unicode hex="00D7"/>
  <outline>
    <contour>
      <point x="225" y="62" type="line"/>
      <point x="194" y="93" type="line"/>
      <point x="469" y="368" type="line"/>
      <point x="194" y="643" type="line"/>
      <point x="225" y="674" type="line"/>
      <point x="500" y="399" type="line"/>
      <point x="775" y="674" type="line"/>
      <point x="806" y="643" type="line"/>
      <point x="531" y="368" type="line"/>
      <point x="806" y="93" type="line"/>
      <point x="775" y="62" type="line"/>
      <point x="500" y="337" type="line"/>
    </contour>
  </outline>
</glyph>
<glyph name="Oslash" format="2">
  <advance width="769" height="1000"/>
  <unicode hex="00D8"/>
  <outline>
    <contour>
      <point x="99" y="-21" type="line"/>
      <point x="62" y="9" type="line"/>
      <point x="138" y="103" type="line"/>
      <point x="55" y="207"/>
      <point x="55" y="365" type="qcurve"/>
      <point x="55" y="479"/>
      <point x="103" y="569" type="qcurve"/>
      <point x="147" y="652"/>
      <point x="223" y="700" type="qcurve"/>
      <point x="298" y="746"/>
      <point x="385" y="746" type="qcurve"/>
      <point x="505" y="746"/>
      <point x="593" y="666" type="qcurve"/>
      <point x="662" y="752" type="line"/>
      <point x="699" y="723" type="line"/>
      <point x="626" y="632" type="line"/>
      <point x="712" y="526"/>
      <point x="712" y="365" type="qcurve"/>
      <point x="712" y="251"/>
      <point x="665" y="161" type="qcurve"/>
      <point x="621" y="77"/>
      <point x="545" y="30" type="qcurve"/>
      <point x="471" y="-16"/>
      <point x="385" y="-16" type="qcurve"/>
      <point x="261" y="-16"/>
      <point x="171" y="68" type="qcurve"/>
    </contour>
    <contour>
      <point x="385" y="28" type="qcurve"/>
      <point x="496" y="28"/>
      <point x="559" y="132" type="qcurve"/>
      <point x="615" y="225"/>
      <point x="615" y="365" type="qcurve"/>
      <point x="615" y="483"/>
      <point x="574" y="568" type="qcurve"/>
      <point x="215" y="123" type="line"/>
      <point x="277" y="28"/>
    </contour>
    <contour>
      <point x="191" y="168" type="qcurve"/>
      <point x="549" y="612" type="line"/>
      <point x="486" y="701"/>
      <point x="385" y="701" type="qcurve"/>
      <point x="273" y="701"/>
      <point x="210" y="598" type="qcurve"/>
      <point x="153" y="505"/>
      <point x="153" y="365" type="qcurve"/>
      <point x="153" y="251"/>
    </contour>
  </outline>
</glyph>
<glyph name="Ugrave" format="2">
  <advance width="792" height="1000"/>
  <unicode hex="00D9"/>
  <outline>
    <contour>
      <point x="401" y="-16" type="qcurve"/>
      <point x="280" y="-16"/>
      <point x="213" y="53" type="qcurve"/>
      <point x="141" y="127"/>
      <point x="141" y="275" type="qcurve"/>
      <point x="141" y="391" type="line"/>
      <point x="141" y="587"/>
      <point x="139" y="684" type="qcurve"/>
      <point x="46" y="694" type="line"/>
      <point x="46" y="729" type="line"/>
      <point x="340" y="729" type="line"/>
      <point x="340" y="694" type="line"/>
      <point x="227" y="682" type="line"/>
      <point x="226" y="587"/>
      <point x="226" y="391" type="qcurve"/>
      <point x="226" y="299" type="line"/>
      <point x="226" y="164"/>
      <point x="277" y="103" type="qcurve"/>
      <point x="323" y="48"/>
      <point x="414" y="48" type="qcurve"/>
      <point x="516" y="48"/>
      <point x="562" y="110" type="qcurve"/>
      <point x="611" y="174"/>
      <point x="611" y="318" type="qcurve"/>
      <point x="610" y="680" type="line"/>
      <point x="492" y="694" type="line"/>
      <point x="492" y="729" type="line"/>
      <point x="752" y="729" type="line"/>
      <point x="752" y="694" type="line"/>
      <point x="657" y="682" type="line"/>
      <point x="655" y="290" type="line"/>
      <point x="655" y="134"/>
      <point x="585" y="56" type="qcurve"/>
      <point x="520" y="-16"/>
    </contour>
    <contour>
      <point x="445" y="779" type="line"/>
      <point x="396" y="805"/>
      <point x="311" y="852" type="qcurve"/>
      <point x="258" y="882"/>
      <point x="258" y="909" type="qcurve"/>
      <point x="258" y="922"/>
      <point x="279" y="940"/>
      <point x="293" y="940" type="qcurve"/>
      <point x="315" y="940"/>
      <point x="357" y="901" type="qcurve"/>
      <point x="374" y="884"/>
      <point x="443" y="817"/>
      <point x="460" y="800" type="qcurve"/>
    </contour>
  </outline>
</glyph>
<glyph name="Uacute" format="2">
  <advance width="792" height="1000"/>
  <unicode hex="00DA"/>
  <outline>
    <contour>
      <point x="401" y="-16" type="qcurve"/>
      <point x="280" y="-16"/>
      <point x="213" y="53" type="qcurve"/>
      <point x="141" y="127"/>
      <point x="141" y="275" type="qcurve"/>
      <point x="141" y="391" type="line"/>
      <point x="141" y="587"/>
      <point x="139" y="684" type="qcurve"/>
      <point x="46" y="694" type="line"/>
      <point x="46" y="729" type="line"/>
      <point x="340" y="729" type="line"/>
      <point x="340" y="694" type="line"/>
      <point x="227" y="682" type="line"/>
      <point x="226" y="587"/>
      <point x="226" y="391" type="qcurve"/>
      <point x="226" y="299" type="line"/>
      <point x="226" y="164"/>
      <point x="277" y="103" type="qcurve"/>
      <point x="323" y="48"/>
      <point x="414" y="48" type="qcurve"/>
      <point x="516" y="48"/>
      <point x="562" y="110" type="qcurve"/>
      <point x="611" y="174"/>
      <point x="611" y="318" type="qcurve"/>
      <point x="610" y="680" type="line"/>
      <point x="492" y="694" type="line"/>
      <point x="492" y="729" type="line"/>
      <point x="752" y="729" type="line"/>
      <point x="752" y="694" type="line"/>
      <point x="657" y="682" type="line"/>
      <point x="655" y="290" type="line"/>
      <point x="655" y="134"/>
      <point x="585" y="56" type="qcurve"/>
      <point x="520" y="-16"/>
    </contour>
    <contour>
      <point x="374" y="779" type="qcurve"/>
      <point x="359" y="800" type="line"/>
      <point x="405" y="847"/>
      <point x="462" y="901" type="qcurve"/>
      <point x="501" y="940"/>
      <point x="525" y="940" type="qcurve"/>
      <point x="540" y="940"/>
      <point x="561" y="922"/>
      <point x="561" y="909" type="qcurve"/>
      <point x="561" y="882"/>
      <point x="508" y="852" type="qcurve"/>
      <point x="443" y="815"/>
    </contour>
  </outline>
</glyph>
<glyph name="Thorn" format="2">
  <advance width="659" height="1000"/>
  <unicode hex="00DE"/>
  <outline>
    <contour>
      <point x="52" y="0" type="line"/>
      <point x="52" y="36" type="line"/>
      <point x="156" y="47" type="line"/>
      <point x="159" y="142"/>
      <point x="159" y="337" type="qcurve"/>
      <point x="159" y="392" type="line"/>
      <point x="159" y="587"/>
      <point x="156" y="683" type="qcurve"/>
      <point x="52" y="694" type="line"/>
      <point x="52" y="729" type="line"/>
      <point x="354" y="729" type="line"/>
      <point x="354" y="694" type="line"/>
      <point x="245" y="682" type="line"/>
      <point x="244" y="666"/>
      <point x="243" y="600"/>
      <point x="243" y="584" type="qcurve"/>
      <point x="349" y="584" type="line"/>
      <point x="486" y="584"/>
      <point x="558" y="527" type="qcurve"/>
      <point x="626" y="473"/>
      <point x="626" y="378" type="qcurve"/>
      <point x="626" y="288"/>
      <point x="565" y="237" type="qcurve"/>
      <point x="489" y="173"/>
      <point x="327" y="173" type="qcurve"/>
      <point x="243" y="173" type="line"/>
      <point x="243" y="131"/>
      <point x="245" y="47" type="qcurve"/>
      <point x="354" y="36" type="line"/>
      <point x="354" y="0" type="line"/>
    </contour>
    <contour>
      <point x="242" y="214" type="qcurve"/>
      <point x="341" y="214" type="line"/>
      <point x="440" y="214"/>
      <point x="491" y="261" type="qcurve"/>
      <point x="538" y="304"/>
      <point x="538" y="382" type="qcurve"/>
      <point x="538" y="542"/>
      <point x="339" y="542" type="qcurve"/>
      <point x="243" y="542" type="line"/>
      <point x="242" y="493"/>
      <point x="242" y="395" type="qcurve"/>
      <point x="242" y="337" type="line"/>
      <point x="242" y="276"/>
    </contour>
  </outline>
</glyph>
<glyph name="germandbls" format="2">
  <advance width="636" height="1000"/>
  <unicode hex="00DF"/>
  <outline>
    <contour>
      <point x="429" y="-14" type="qcurve"/>
      <point x="362" y="-14"/>
      <point x="282" y="16" type="qcurve"/>
      <point x="278" y="143" type="line"/>
      <point x="321" y="143" type="line"/>
      <point x="346" y="42" type="line"/>
      <point x="386" y="26"/>
      <point x="426" y="26" type="qcurve"/>
      <point x="534" y="26"/>
      <point x="534" y="122" type="qcurve"/>
      <point x="534" y="153"/>
      <point x="515" y="178" type="qcurve"/>
      <point x="493" y="206"/>
      <point x="376" y="274"/>
      <point x="353" y="302" type="qcurve"/>
      <point x="322" y="337"/>
      <point x="322" y="387" type="qcurve"/>
      <point x="322" y="465"/>
      <point x="399" y="530" type="qcurve"/>
      <point x="438" y="564"/>
      <point x="454" y="593" type="qcurve"/>
      <point x="472" y="624"/>
      <point x="472" y="663" type="qcurve"/>
      <point x="472" y="776"/>
      <point x="358" y="776" type="qcurve"/>
      <point x="261" y="776"/>
      <point x="225" y="691" type="qcurve"/>
      <point x="209" y="658"/>
      <point x="204" y="613" type="qcurve"/>
      <point x="199" y="570"/>
      <point x="199" y="477" type="qcurve"/>
      <point x="199" y="228" type="line"/>
      <point x="199" y="152"/>
      <point x="203" y="0" type="qcurve"/>
      <point x="29" y="0" type="line"/>
      <point x="29" y="32" type="line"/>
      <point x="122" y="45" type="line"/>
      <point x="124" y="167"/>
      <point x="124" y="228" type="qcurve"/>
      <point x="124" y="465" type="line"/>
      <point x="124" y="628"/>
      <point x="170" y="700" type="qcurve"/>
      <point x="199" y="755"/>
      <point x="306" y="817"/>
      <point x="371" y="817" type="qcurve"/>
      <point x="450" y="817"/>
      <point x="547" y="738"/>
      <point x="547" y="675" type="qcurve"/>
      <point x="547" y="598"/>
      <point x="453" y="523" type="qcurve"/>
      <point x="388" y="470"/>
      <point x="388" y="411" type="qcurve"/>
      <point x="388" y="378"/>
      <point x="409" y="355" type="qcurve"/>
      <point x="426" y="335"/>
      <point x="474" y="307" type="qcurve"/>
      <point x="551" y="259"/>
      <point x="580" y="222" type="qcurve"/>
      <point x="607" y="186"/>
      <point x="607" y="137" type="qcurve"/>
      <point x="607" y="67"/>
      <point x="563" y="27" type="qcurve"/>
      <point x="517" y="-14"/>
    </contour>
  </outline>
</glyph>
<glyph name="ae" format="2">
  <advance width="852" height="1000"/>
  <unicode hex="00E6"/>
  <outline>
    <contour>
      <point x="196" y="-14" type="qcurve"/>
      <point x="133" y="-14"/>
      <point x="94" y="21" type="qcurve"/>
      <point x="52" y="57"/>
      <point x="52" y="121" type="qcurve"/>
      <point x="52" y="172"/>
      <point x="89" y="207" type="qcurve"/>
      <point x="128" y="245"/>
      <point x="227" y="280" type="qcurve"/>
      <point x="291" y="303"/>
      <point x="360" y="318" type="qcurve"/>
      <point x="360" y="352" type="line"/>
      <point x="360" y="431"/>
      <point x="334" y="461" type="qcurve"/>
      <point x="310" y="488"/>
      <point x="254" y="488" type="qcurve"/>
      <point x="214" y="488"/>
      <point x="183" y="477" type="qcurve"/>
      <point x="162" y="399" type="line"/>
      <point x="148" y="355"/>
      <point x="111" y="355" type="qcurve"/>
      <point x="92" y="355"/>
      <point x="68" y="378"/>
      <point x="66" y="396" type="qcurve"/>
      <point x="82" y="457"/>
      <point x="191" y="528"/>
      <point x="271" y="528" type="qcurve"/>
      <point x="390" y="528"/>
      <point x="420" y="432" type="qcurve"/>
      <point x="491" y="528"/>
      <point x="600" y="528" type="qcurve"/>
      <point x="689" y="528"/>
      <point x="744" y="473" type="qcurve"/>
      <point x="801" y="416"/>
      <point x="801" y="323" type="qcurve"/>
      <point x="801" y="288"/>
      <point x="794" y="262" type="qcurve"/>
      <point x="437" y="262" type="line"/>
      <point x="438" y="155"/>
      <point x="490" y="97" type="qcurve"/>
      <point x="539" y="42"/>
      <point x="623" y="42" type="qcurve"/>
      <point x="714" y="42"/>
      <point x="779" y="120" type="qcurve"/>
      <point x="799" y="104" type="line"/>
      <point x="769" y="49"/>
      <point x="718" y="18" type="qcurve"/>
      <point x="665" y="-14"/>
      <point x="597" y="-14" type="qcurve"/>
      <point x="457" y="-14"/>
      <point x="394" y="96" type="qcurve"/>
      <point x="329" y="31"/>
      <point x="286" y="8" type="qcurve"/>
      <point x="245" y="-14"/>
    </contour>
    <contour>
      <point x="227" y="45" type="qcurve"/>
      <point x="260" y="45"/>
      <point x="321" y="77"/>
      <point x="380" y="125" type="qcurve"/>
      <point x="357" y="180"/>
      <point x="357" y="254" type="qcurve"/>
      <point x="357" y="275"/>
      <point x="358" y="285" type="qcurve"/>
      <point x="299" y="269"/>
      <point x="247" y="249" type="qcurve"/>
      <point x="181" y="223"/>
      <point x="154" y="192" type="qcurve"/>
      <point x="133" y="167"/>
      <point x="133" y="133" type="qcurve"/>
      <point x="133" y="91"/>
      <point x="160" y="68" type="qcurve"/>
      <point x="185" y="45"/>
    </contour>
    <contour>
      <point x="439" y="301" type="qcurve"/>
      <point x="672" y="301" type="line"/>
      <point x="702" y="301"/>
      <point x="715" y="316" type="qcurve"/>
      <point x="726" y="328"/>
      <point x="726" y="355" type="qcurve"/>
      <point x="726" y="409"/>
      <point x="690" y="448" type="qcurve"/>
      <point x="653" y="488"/>
      <point x="596" y="488" type="qcurve"/>
      <point x="537" y="488"/>
      <point x="494" y="442" type="qcurve"/>
      <point x="447" y="391"/>
    </contour>
  </outline>
</glyph>
<glyph name="ccedilla" format="2">
  <advance width="529" height="1000"/>
  <unicode hex="00E7"/>
  <outline>
    <contour>
      <point x="285" y="-238" type="qcurve"/>
      <point x="248" y="-238"/>
      <point x="217" y="-227" type="qcurve"/>
      <point x="224" y="-200" type="line"/>
      <point x="248" y="-204"/>
      <point x="277" y="-204" type="qcurve"/>
      <point x="342" y="-204"/>
      <point x="342" y="-150" type="qcurve"/>
      <point x="342" y="-124"/>
      <point x="303" y="-96"/>
      <point x="260" y="-91" type="qcurve"/>
      <point x="272" y="-13" type="line"/>
      <point x="170" y="-6"/>
      <point x="49" y="139"/>
      <point x="49" y="257" type="qcurve"/>
      <point x="49" y="380"/>
      <point x="125" y="456" type="qcurve"/>
      <point x="196" y="528"/>
      <point x="298" y="528" type="qcurve"/>
      <point x="367" y="528"/>
      <point x="472" y="454"/>
      <point x="486" y="395" type="qcurve"/>
      <point x="480" y="358"/>
      <point x="442" y="358" type="qcurve"/>
      <point x="403" y="358"/>
      <point x="391" y="401" type="qcurve"/>
      <point x="369" y="476" type="line"/>
      <point x="333" y="488"/>
      <point x="301" y="488" type="qcurve"/>
      <point x="224" y="488"/>
      <point x="177" y="429" type="qcurve"/>
      <point x="128" y="368"/>
      <point x="128" y="161"/>
      <point x="180" y="101" type="qcurve"/>
      <point x="230" y="42"/>
      <point x="312" y="42" type="qcurve"/>
      <point x="360" y="42"/>
      <point x="441" y="85"/>
      <point x="468" y="124" type="qcurve"/>
      <point x="489" y="114" type="line"/>
      <point x="438" y="-7"/>
      <point x="305" y="-14" type="qcurve"/>
      <point x="298" y="-65" type="line"/>
      <point x="343" y="-70"/>
      <point x="371" y="-92" type="qcurve"/>
      <point x="400" y="-115"/>
      <point x="400" y="-152" type="qcurve"/>
      <point x="400" y="-190"/>
      <point x="371" y="-213" type="qcurve"/>
      <point x="340" y="-238"/>
    </contour>
  </outline>
</glyph>
<glyph name="ecircumflex" format="2">
  <advance width="549" height="1000"/>
  <unicode hex="00EA"/>
  <outline>
    <contour>
      <point x="292" y="-14" type="qcurve"/>
      <point x="184" y="-14"/>
      <point x="119" y="56" type="qcurve"/>
      <point x="51" y="128"/>
      <point x="51" y="254" type="qcurve"/>
      <point x="51" y="376"/>
      <point x="124" y="454" type="qcurve"/>
      <point x="194" y="528"/>
      <point x="296" y="528" type="qcurve"/>
      <point x="384" y="528"/>
      <point x="440" y="473" type="qcurve"/>
      <point x="496" y="417"/>
      <point x="496" y="324" type="qcurve"/>
      <point x="496" y="283"/>
      <point x="489" y="262" type="qcurve"/>
      <point x="132" y="263" type="line"/>
      <point x="133" y="156"/>
      <point x="185" y="97" type="qcurve"/>
      <point x="234" y="42"/>
      <point x="317" y="42" type="qcurve"/>
      <point x="409" y="42"/>
      <point x="474" y="120" type="qcurve"/>
      <point x="495" y="104" type="line"/>
      <point x="428" y="-14"/>
    </contour>
    <contour>
      <point x="133" y="301" type="qcurve"/>
      <point x="367" y="301" type="line"/>
      <point x="398" y="301"/>
      <point x="411" y="316" type="qcurve"/>
      <point x="421" y="328"/>
      <point x="421" y="355" type="qcurve"/>
      <point x="421" y="409"/>
      <point x="385" y="448" type="qcurve"/>
      <point x="347" y="488"/>
      <point x="291" y="488" type="qcurve"/>
      <point x="232" y="488"/>
      <point x="189" y="442" type="qcurve"/>
      <point x="142" y="391"/>
    </contour>
    <contour>
      <point x="161" y="597" type="line"/>
      <point x="140" y="614" type="line"/>
      <point x="278" y="802" type="line"/>
      <point x="309" y="802" type="line"/>
      <point x="447" y="614" type="line"/>
      <point x="426" y="597" type="line"/>
      <point x="294" y="722" type="line"/>
    </contour>
  </outline>
</glyph>
<glyph name="iacute" format="2">
  <advance width="325" height="1000"/>
  <unicode hex="00ED"/>
  <outline>
    <contour>
      <point x="41" y="0" type="line"/>
      <point x="41" y="32" type="line"/>
      <point x="127" y="45" type="line"/>
      <point x="129" y="155"/>
      <point x="129" y="228" type="qcurve"/>
      <point x="129" y="284" type="line"/>
      <point x="129" y="366"/>
      <point x="126" y="436" type="qcurve"/>
      <point x="36" y="442" type="line"/>
      <point x="36" y="475" type="line"/>
      <point x="193" y="527" type="line"/>
      <point x="208" y="517" type="line"/>
      <point x="204" y="375" type="line"/>
      <point x="204" y="228" type="line"/>
      <point x="204" y="155"/>
      <point x="206" y="45" type="qcurve"/>
      <point x="285" y="32" type="line"/>
      <point x="285" y="0" type="line"/>
    </contour>
    <contour>
      <point x="148" y="608" type="qcurve"/>
      <point x="127" y="624" type="line"/>
      <point x="182" y="711"/>
      <point x="226" y="776" type="qcurve"/>
      <point x="253" y="819"/>
      <point x="278" y="819" type="qcurve"/>
      <point x="293" y="819"/>
      <point x="314" y="800"/>
      <point x="314" y="783" type="qcurve"/>
      <point x="314" y="758"/>
      <point x="279" y="728" type="qcurve"/>
      <point x="241" y="693"/>
      <point x="161" y="620" type="qcurve"/>
      <point x="152" y="612"/>
    </contour>
  </outline>
</glyph>
<glyph name="idieresis" format="2">
  <advance width="325" height="1000"/>
  <unicode hex="00EF"/>
  <outline>
    <contour>
      <point x="41" y="0" type="line"/>
      <point x="41" y="32" type="line"/>
      <point x="127" y="45" type="line"/>
      <point x="129" y="155"/>
      <point x="129" y="228" type="qcurve"/>
      <point x="129" y="284" type="line"/>
      <point x="129" y="366"/>
      <point x="126" y="436" type="qcurve"/>
      <point x="36" y="442" type="line"/>
      <point x="36" y="475" type="line"/>
      <point x="193" y="527" type="line"/>
      <point x="208" y="517" type="line"/>
      <point x="204" y="375" type="line"/>
      <point x="204" y="228" type="line"/>
      <point x="204" y="155"/>
      <point x="206" y="45" type="qcurve"/>
      <point x="285" y="32" type="line"/>
      <point x="285" y="0" type="line"/>
    </contour>
    <contour>
      <point x="43" y="661" type="qcurve"/>
      <point x="20" y="661"/>
      <point x="-13" y="692"/>
      <point x="-13" y="739"/>
      <point x="20" y="770"/>
      <point x="43" y="770" type="qcurve"/>
      <point x="67" y="770"/>
      <point x="100" y="739"/>
      <point x="100" y="692"/>
      <point x="67" y="661"/>
    </contour>
    <contour>
      <point x="265" y="661" type="qcurve"/>
      <point x="242" y="661"/>
      <point x="209" y="692"/>
      <point x="209" y="739"/>
      <point x="242" y="770"/>
      <point x="289" y="770"/>
      <point x="322" y="739"/>
      <point x="322" y="692"/>
      <point x="289" y="661"/>
    </contour>
  </outline>
</glyph>
<glyph name="oacute" format="2">
  <advance width="594" height="1000"/>
  <unicode hex="00F3"/>
  <outline>
    <contour>
      <point x="196" y="-14"/>
      <point x="128" y="53" type="qcurve"/>
      <point x="51" y="127"/>
      <point x="51" y="384"/>
      <point x="128" y="460" type="qcurve"/>
      <point x="197" y="528"/>
      <point x="297" y="528" type="qcurve"/>
      <point x="396" y="528"/>
      <point x="465" y="460" type="qcurve"/>
      <point x="542" y="384"/>
      <point x="542" y="127"/>
      <point x="466" y="53" type="qcurve"/>
      <point x="397" y="-14"/>
    </contour>
    <contour>
      <point x="220" y="26"/>
      <point x="373" y="26"/>
      <point x="415" y="84" type="qcurve"/>
      <point x="458" y="144"/>
      <point x="458" y="366"/>
      <point x="373" y="488"/>
      <point x="297" y="488" type="qcurve"/>
      <point x="221" y="488"/>
      <point x="136" y="366"/>
      <point x="136" y="144"/>
      <point x="179" y="84" type="qcurve"/>
    </contour>
    <contour>
      <point x="275" y="608" type="qcurve"/>
      <point x="254" y="624" type="line"/>
      <point x="277" y="661"/>
      <point x="324" y="732" type="qcurve"/>
      <point x="344" y="762"/>
      <point x="353" y="776" type="qcurve"/>
      <point x="380" y="819"/>
      <point x="405" y="819" type="qcurve"/>
      <point x="420" y="819"/>
      <point x="441" y="800"/>
      <point x="441" y="783" type="qcurve"/>
      <point x="441" y="758"/>
      <point x="407" y="728" type="qcurve"/>
      <point x="391" y="714"/>
      <point x="360" y="685" type="qcurve"/>
      <point x="304" y="634"/>
    </contour>
  </outline>
</glyph>
<glyph name="odieresis" format="2">
  <advance width="594" height="1000"/>
  <unicode hex="00F6"/>
  <outline>
    <contour>
      <point x="196" y="-14"/>
      <point x="128" y="53" type="qcurve"/>
      <point x="51" y="127"/>
      <point x="51" y="384"/>
      <point x="128" y="460" type="qcurve"/>
      <point x="197" y="528"/>
      <point x="297" y="528" type="qcurve"/>
      <point x="396" y="528"/>
      <point x="465" y="460" type="qcurve"/>
      <point x="542" y="384"/>
      <point x="542" y="127"/>
      <point x="466" y="53" type="qcurve"/>
      <point x="397" y="-14"/>
    </contour>
    <contour>
      <point x="220" y="26"/>
      <point x="373" y="26"/>
      <point x="415" y="84" type="qcurve"/>
      <point x="458" y="144"/>
      <point x="458" y="366"/>
      <point x="373" y="488"/>
      <point x="297" y="488" type="qcurve"/>
      <point x="221" y="488"/>
      <point x="136" y="366"/>
      <point x="136" y="144"/>
      <point x="179" y="84" type="qcurve"/>
    </contour>
    <contour>
      <point x="162" y="661"/>
      <point x="129" y="692"/>
      <point x="129" y="739"/>
      <point x="162" y="770"/>
      <point x="186" y="770" type="qcurve"/>
      <point x="209" y="770"/>
      <point x="242" y="739"/>
      <point x="242" y="692"/>
      <point x="209" y="661"/>
    </contour>
    <contour>
      <point x="384" y="661"/>
      <point x="351" y="692"/>
      <point x="351" y="739"/>
      <point x="384" y="770"/>
      <point x="408" y="770" type="qcurve"/>
      <point x="431" y="770"/>
      <point x="464" y="739"/>
      <point x="464" y="692"/>
      <point x="431" y="661"/>
    </contour>
  </outline>
</glyph>
<glyph name="oslash" format="2">
  <advance width="594" height="1000"/>
  <unicode hex="00F8"/>
  <outline>
    <contour>
      <point x="89" y="-23" type="line"/>
      <point x="60" y="0" type="line"/>
      <point x="114" y="67" type="line"/>
      <point x="51" y="140"/>
      <point x="51" y="255" type="qcurve"/>
      <point x="51" y="384"/>
      <point x="128" y="460" type="qcurve"/>
      <point x="197" y="528"/>
      <point x="297" y="528" type="qcurve"/>
      <point x="381" y="528"/>
      <point x="445" y="477" type="qcurve"/>
      <point x="497" y="542" type="line"/>
      <point x="526" y="520" type="line"/>
      <point x="472" y="453" type="line"/>
      <point x="542" y="376"/>
      <point x="542" y="255" type="qcurve"/>
      <point x="542" y="127"/>
      <point x="466" y="53" type="qcurve"/>
      <point x="397" y="-14"/>
      <point x="297" y="-14" type="qcurve"/>
      <point x="207" y="-14"/>
      <point x="140" y="41" type="qcurve"/>
    </contour>
    <contour>
      <point x="297" y="26" type="qcurve"/>
      <point x="373" y="26"/>
      <point x="415" y="84" type="qcurve"/>
      <point x="458" y="144"/>
      <point x="458" y="255" type="qcurve"/>
      <point x="458" y="343"/>
      <point x="430" y="401" type="qcurve"/>
      <point x="177" y="86" type="line"/>
      <point x="220" y="26"/>
    </contour>
    <contour>
      <point x="158" y="122" type="qcurve"/>
      <point x="410" y="434" type="line"/>
      <point x="368" y="488"/>
      <point x="297" y="488" type="qcurve"/>
      <point x="221" y="488"/>
      <point x="136" y="366"/>
      <point x="136" y="255" type="qcurve"/>
      <point x="136" y="177"/>
    </contour>
  </outline>
</glyph>
<glyph name="ugrave" format="2">
  <advance width="639" height="1000"/>
  <unicode hex="00F9"/>
  <outline>
    <contour>
      <point x="252" y="-14" type="qcurve"/>
      <point x="181" y="-14"/>
      <point x="147" y="30" type="qcurve"/>
      <point x="109" y="78"/>
      <point x="110" y="184" type="qcurve"/>
      <point x="113" y="462" type="line"/>
      <point x="30" y="476" type="line"/>
      <point x="30" y="508" type="line"/>
      <point x="180" y="521" type="line"/>
      <point x="190" y="510" type="line"/>
      <point x="185" y="358" type="line"/>
      <point x="185" y="190" type="line"/>
      <point x="185" y="114"/>
      <point x="209" y="81" type="qcurve"/>
      <point x="232" y="50"/>
      <point x="282" y="50" type="qcurve"/>
      <point x="368" y="50"/>
      <point x="445" y="130" type="qcurve"/>
      <point x="447" y="462" type="line"/>
      <point x="365" y="476" type="line"/>
      <point x="365" y="508" type="line"/>
      <point x="513" y="521" type="line"/>
      <point x="524" y="510" type="line"/>
      <point x="520" y="358" type="line"/>
      <point x="520" y="44" type="line"/>
      <point x="597" y="32" type="line"/>
      <point x="597" y="0" type="line"/>
      <point x="455" y="-9" type="line"/>
      <point x="447" y="91" type="line"/>
      <point x="362" y="-14"/>
    </contour>
    <contour>
      <point x="329" y="608" type="line"/>
      <point x="293" y="641"/>
      <point x="223" y="706" type="qcurve"/>
      <point x="207" y="721"/>
      <point x="199" y="728" type="qcurve"/>
      <point x="163" y="760"/>
      <point x="163" y="783" type="qcurve"/>
      <point x="163" y="800"/>
      <point x="184" y="819"/>
      <point x="199" y="819" type="qcurve"/>
      <point x="226" y="819"/>
      <point x="252" y="776" type="qcurve"/>
      <point x="273" y="745"/>
      <point x="314" y="682" type="qcurve"/>
      <point x="338" y="643"/>
      <point x="351" y="624" type="qcurve"/>
    </contour>
  </outline>
</glyph>
<glyph name="udieresis" format="2">
  <advance width="639" height="1000"/>
  <unicode hex="00FC"/>
  <outline>
    <contour>
      <point x="252" y="-14" type="qcurve"/>
      <point x="181" y="-14"/>
      <point x="147" y="30" type="qcurve"/>
      <point x="109" y="78"/>
      <point x="110" y="184" type="qcurve"/>
      <point x="113" y="462" type="line"/>
      <point x="30" y="476" type="line"/>
      <point x="30" y="508" type="line"/>
      <point x="180" y="521" type="line"/>
      <point x="190" y="510" type="line"/>
      <point x="185" y="358" type="line"/>
      <point x="185" y="190" type="line"/>
      <point x="185" y="114"/>
      <point x="209" y="81" type="qcurve"/>
      <point x="232" y="50"/>
      <point x="282" y="50" type="qcurve"/>
      <point x="368" y="50"/>
      <point x="445" y="130" type="qcurve"/>
      <point x="447" y="462" type="line"/>
      <point x="365" y="476" type="line"/>
      <point x="365" y="508" type="line"/>
      <point x="513" y="521" type="line"/>
      <point x="524" y="510" type="line"/>
      <point x="520" y="358" type="line"/>
      <point x="520" y="44" type="line"/>
      <point x="597" y="32" type="line"/>
      <point x="597" y="0" type="line"/>
      <point x="455" y="-9" type="line"/>
      <point x="447" y="91" type="line"/>
      <point x="362" y="-14"/>
    </contour>
    <contour>
      <point x="184" y="661"/>
      <point x="151" y="692"/>
      <point x="151" y="739"/>
      <point x="184" y="770"/>
      <point x="208" y="770" type="qcurve"/>
      <point x="231" y="770"/>
      <point x="264" y="739"/>
      <point x="264" y="692"/>
      <point x="231" y="661"/>
    </contour>
    <contour>
      <point x="406" y="661"/>
      <point x="373" y="692"/>
      <point x="373" y="739"/>
      <point x="406" y="770"/>
      <point x="429" y="770" type="qcurve"/>
      <point x="453" y="770"/>
      <point x="486" y="739"/>
      <point x="486" y="692"/>
      <point x="453" y="661"/>
    </contour>
  </outline>
</glyph>
<glyph name="yacute" format="2">
  <advance width="551" height="1000"/>
  <unicode hex="00FD"/>
  <outline>
    <contour>
      <point x="89" y="-273" type="qcurve"/>
      <point x="51" y="-273"/>
      <point x="25" y="-256" type="qcurve"/>
      <point x="-3" y="-238"/>
      <point x="-4" y="-210" type="qcurve"/>
      <point x="0" y="-191"/>
      <point x="19" y="-180" type="qcurve"/>
      <point x="36" y="-170"/>
      <point x="59" y="-170" type="qcurve"/>
      <point x="96" y="-170"/>
      <point x="134" y="-207" type="qcurve"/>
      <point x="142" y="-215" type="line"/>
      <point x="210" y="-167"/>
      <point x="253" y="-49" type="qcurve"/>
      <point x="262" y="-26" type="line"/>
      <point x="64" y="474" type="line"/>
      <point x="0" y="483" type="line"/>
      <point x="0" y="514" type="line"/>
      <point x="248" y="514" type="line"/>
      <point x="248" y="482" type="line"/>
      <point x="152" y="471" type="line"/>
      <point x="299" y="73" type="line"/>
      <point x="441" y="470" type="line"/>
      <point x="343" y="483" type="line"/>
      <point x="343" y="514" type="line"/>
      <point x="552" y="514" type="line"/>
      <point x="552" y="483" type="line"/>
      <point x="491" y="471" type="line"/>
      <point x="307" y="-16" type="line"/>
      <point x="256" y="-151"/>
      <point x="203" y="-213" type="qcurve"/>
      <point x="151" y="-273"/>
    </contour>
    <contour>
      <point x="289" y="608" type="qcurve"/>
      <point x="268" y="624" type="line"/>
      <point x="291" y="661"/>
      <point x="338" y="732" type="qcurve"/>
      <point x="358" y="762"/>
      <point x="367" y="776" type="qcurve"/>
      <point x="394" y="819"/>
      <point x="420" y="819" type="qcurve"/>
      <point x="435" y="819"/>
      <point x="444" y="810" type="qcurve"/>
      <point x="455" y="800"/>
      <point x="455" y="783" type="qcurve"/>
      <point x="455" y="758"/>
      <point x="421" y="728" type="qcurve"/>
      <point x="405" y="714"/>
      <point x="374" y="685" type="qcurve"/>
      <point x="318" y="634"/>
    </contour>
  </outline>
</glyph>
<glyph name="ebreve" format="2">
  <advance width="545" height="1000"/>
  <unicode hex="0115"/>
  <outline>
    <contour>
      <point x="298" y="-15" type="qcurve"/>
      <point x="190" y="-15"/>
      <point x="122" y="54" type="qcurve"/>
      <point x="49" y="128"/>
      <point x="49" y="258" type="qcurve"/>
      <point x="49" y="379"/>
      <point x="124" y="457" type="qcurve"/>
      <point x="195" y="529"/>
      <point x="295" y="529" type="qcurve"/>
      <point x="389" y="529"/>
      <point x="445" y="470" type="qcurve"/>
      <point x="499" y="413"/>
      <point x="499" y="323" type="qcurve"/>
      <point x="499" y="286"/>
      <point x="493" y="263" type="qcurve"/>
      <point x="133" y="263" type="line"/>
      <point x="134" y="149"/>
      <point x="190" y="89" type="qcurve"/>
      <point x="240" y="34"/>
      <point x="321" y="34" type="qcurve"/>
      <point x="417" y="34"/>
      <point x="479" y="106" type="qcurve"/>
      <point x="495" y="94" type="line"/>
      <point x="464" y="43"/>
      <point x="361" y="-15"/>
    </contour>
    <contour>
      <point x="134" y="294" type="qcurve"/>
      <point x="381" y="294" type="line"/>
      <point x="404" y="294"/>
      <point x="423" y="320"/>
      <point x="423" y="350" type="qcurve"/>
      <point x="423" y="413"/>
      <point x="388" y="455" type="qcurve"/>
      <point x="351" y="498"/>
      <point x="291" y="498" type="qcurve"/>
      <point x="228" y="498"/>
      <point x="184" y="444" type="qcurve"/>
      <point x="139" y="388"/>
    </contour>
    <contour>
      <point x="295" y="627" type="qcurve"/>
      <point x="227" y="627"/>
      <point x="183" y="675" type="qcurve"/>
      <point x="143" y="719"/>
      <point x="135" y="787" type="qcurve"/>
      <point x="156" y="794" type="line"/>
      <point x="192" y="682"/>
      <point x="295" y="682" type="qcurve"/>
      <point x="400" y="682"/>
      <point x="434" y="794" type="qcurve"/>
      <point x="456" y="787" type="line"/>
      <point x="447" y="719"/>
      <point x="407" y="675" type="qcurve"/>
      <point x="363" y="627"/>
    </contour>
  </outline>
</glyph>
<glyph name="Itilde" format="2">
  <advance width="401" height="1000"/>
  <unicode hex="0128"/>
  <outline>
    <contour>
      <point x="52" y="0" type="line"/>
      <point x="52" y="36" type="line"/>
      <point x="156" y="47" type="line"/>
      <point x="159" y="142"/>
      <point x="159" y="337" type="qcurve"/>
      <point x="159" y="392" type="line"/>
      <point x="159" y="587"/>
      <point x="156" y="683" type="qcurve"/>
      <point x="52" y="694" type="line"/>
      <point x="52" y="729" type="line"/>
      <point x="349" y="729" type="line"/>
      <point x="349" y="694" type="line"/>
      <point x="245" y="683" type="line"/>
      <point x="242" y="588"/>
      <point x="242" y="392" type="qcurve"/>
      <point x="242" y="337" type="line"/>
      <point x="242" y="143"/>
      <point x="245" y="47" type="qcurve"/>
      <point x="349" y="36" type="line"/>
      <point x="349" y="0" type="line"/>
    </contour>
    <contour>
      <point x="282" y="790" type="qcurve"/>
      <point x="254" y="790"/>
      <point x="230" y="802" type="qcurve"/>
      <point x="215" y="810"/>
      <point x="193" y="829" type="qcurve"/>
      <point x="187" y="834"/>
      <point x="176" y="844" type="qcurve"/>
      <point x="157" y="862"/>
      <point x="146" y="869" type="qcurve"/>
      <point x="129" y="880"/>
      <point x="112" y="880" type="qcurve"/>
      <point x="62" y="880"/>
      <point x="35" y="794" type="qcurve"/>
      <point x="10" y="802" type="line"/>
      <point x="30" y="933"/>
      <point x="120" y="933" type="qcurve"/>
      <point x="147" y="933"/>
      <point x="170" y="921" type="qcurve"/>
      <point x="185" y="913"/>
      <point x="208" y="894" type="qcurve"/>
      <point x="214" y="889"/>
      <point x="225" y="878" type="qcurve"/>
      <point x="245" y="860"/>
      <point x="255" y="853" type="qcurve"/>
      <point x="272" y="842"/>
      <point x="289" y="842" type="qcurve"/>
      <point x="339" y="842"/>
      <point x="365" y="928" type="qcurve"/>
      <point x="391" y="921" type="line"/>
      <point x="369" y="790"/>
    </contour>
  </outline>
</glyph>
<glyph name="imacron" format="2">
  <advance width="325" height="1000"/>
  <unicode hex="012B"/>
  <outline>
    <contour>
      <point x="41" y="0" type="line"/>
      <point x="41" y="32" type="line"/>
      <point x="127" y="45" type="line"/>
      <point x="129" y="155"/>
      <point x="129" y="228" type="qcurve"/>
      <point x="129" y="284" type="line"/>
      <point x="129" y="366"/>
      <point x="126" y="436" type="qcurve"/>
      <point x="36" y="442" type="line"/>
      <point x="36" y="475" type="line"/>
      <point x="193" y="527" type="line"/>
      <point x="208" y="517" type="line"/>
      <point x="204" y="375" type="line"/>
      <point x="204" y="228" type="line"/>
      <point x="204" y="155"/>
      <point x="206" y="45" type="qcurve"/>
      <point x="285" y="32" type="line"/>
      <point x="285" y="0" type="line"/>
    </contour>
    <contour>
      <point x="13" y="658" type="line"/>
      <point x="13" y="715" type="line"/>
      <point x="291" y="715" type="line"/>
      <point x="291" y="658" type="line"/>
    </contour>
  </outline>
</glyph>
<glyph name="Ibreve" format="2">
  <advance width="404" height="1000"/>
  <unicode hex="012C"/>
  <outline>
    <contour>
      <point x="53" y="0" type="line"/>
      <point x="53" y="29" type="line"/>
      <point x="158" y="39" type="line"/>
      <point x="160" y="137"/>
      <point x="160" y="336" type="qcurve"/>
      <point x="160" y="391" type="line"/>
      <point x="160" y="591"/>
      <point x="158" y="690" type="qcurve"/>
      <point x="53" y="699" type="line"/>
      <point x="53" y="728" type="line"/>
      <point x="350" y="728" type="line"/>
      <point x="350" y="699" type="line"/>
      <point x="245" y="690" type="line"/>
      <point x="244" y="592"/>
      <point x="244" y="391" type="qcurve"/>
      <point x="244" y="337" type="line"/>
      <point x="244" y="137"/>
      <point x="245" y="39" type="qcurve"/>
      <point x="350" y="29" type="line"/>
      <point x="350" y="0" type="line"/>
    </contour>
    <contour>
      <point x="203" y="801" type="qcurve"/>
      <point x="135" y="801"/>
      <point x="91" y="849" type="qcurve"/>
      <point x="51" y="893"/>
      <point x="43" y="961" type="qcurve"/>
      <point x="64" y="968" type="line"/>
      <point x="100" y="856"/>
      <point x="203" y="856" type="qcurve"/>
      <point x="308" y="856"/>
      <point x="342" y="968" type="qcurve"/>
      <point x="364" y="961" type="line"/>
      <point x="355" y="893"/>
      <point x="315" y="849" type="qcurve"/>
      <point x="271" y="801"/>
    </contour>
  </outline>
</glyph>
<glyph name="Nacute" format="2">
  <advance width="798" height="1000"/>
  <unicode hex="0143"/>
  <outline>
    <contour>
      <point x="628" y="-8" type="line"/>
      <point x="183" y="609" type="line"/>
      <point x="184" y="49" type="line"/>
      <point x="300" y="36" type="line"/>
      <point x="300" y="0" type="line"/>
      <point x="43" y="0" type="line"/>
      <point x="43" y="36" type="line"/>
      <point x="137" y="48" type="line"/>
      <point x="138" y="672" type="line"/>
      <point x="129" y="685" type="line"/>
      <point x="47" y="695" type="line"/>
      <point x="47" y="729" type="line"/>
      <point x="203" y="729" type="line"/>
      <point x="617" y="150" type="line"/>
      <point x="616" y="680" type="line"/>
      <point x="499" y="694" type="line"/>
      <point x="499" y="729" type="line"/>
      <point x="755" y="729" type="line"/>
      <point x="755" y="694" type="line"/>
      <point x="662" y="681" type="line"/>
      <point x="661" y="-8" type="line"/>
    </contour>
    <contour>
      <point x="360" y="775" type="qcurve"/>
      <point x="343" y="796" type="line"/>
      <point x="355" y="807"/>
      <point x="378" y="830" type="qcurve"/>
      <point x="424" y="876"/>
      <point x="447" y="897" type="qcurve"/>
      <point x="488" y="937"/>
      <point x="511" y="937" type="qcurve"/>
      <point x="526" y="937"/>
      <point x="547" y="919"/>
      <point x="547" y="904" type="qcurve"/>
      <point x="547" y="879"/>
      <point x="492" y="848" type="qcurve"/>
      <point x="424" y="808"/>
    </contour>
  </outline>
</glyph>
<glyph name="nacute" format="2">
  <advance width="658" height="1000"/>
  <unicode hex="0144"/>
  <outline>
    <contour>
      <point x="45" y="0" type="line"/>
      <point x="45" y="32" type="line"/>
      <point x="129" y="44" type="line"/>
      <point x="132" y="128"/>
      <point x="132" y="228" type="qcurve"/>
      <point x="132" y="283" type="line"/>
      <point x="132" y="342"/>
      <point x="128" y="425" type="qcurve"/>
      <point x="128" y="432"/>
      <point x="128" y="435" type="qcurve"/>
      <point x="39" y="442" type="line"/>
      <point x="39" y="474" type="line"/>
      <point x="183" y="527" type="line"/>
      <point x="197" y="517" type="line"/>
      <point x="205" y="425" type="line"/>
      <point x="249" y="473"/>
      <point x="355" y="528"/>
      <point x="405" y="528" type="qcurve"/>
      <point x="475" y="528"/>
      <point x="508" y="483" type="qcurve"/>
      <point x="542" y="436"/>
      <point x="542" y="332" type="qcurve"/>
      <point x="542" y="228" type="line"/>
      <point x="542" y="128"/>
      <point x="545" y="45" type="qcurve"/>
      <point x="624" y="32" type="line"/>
      <point x="624" y="0" type="line"/>
      <point x="379" y="0" type="line"/>
      <point x="379" y="32" type="line"/>
      <point x="464" y="44" type="line"/>
      <point x="466" y="154"/>
      <point x="466" y="228" type="qcurve"/>
      <point x="466" y="328" type="line"/>
      <point x="466" y="404"/>
      <point x="443" y="436" type="qcurve"/>
      <point x="421" y="466"/>
      <point x="372" y="466" type="qcurve"/>
      <point x="295" y="466"/>
      <point x="208" y="386" type="qcurve"/>
      <point x="208" y="228" type="line"/>
      <point x="208" y="155"/>
      <point x="210" y="45" type="qcurve"/>
      <point x="289" y="32" type="line"/>
      <point x="289" y="0" type="line"/>
    </contour>
    <contour>
      <point x="329" y="608" type="qcurve"/>
      <point x="309" y="624" type="line"/>
      <point x="345" y="682"/>
      <point x="408" y="776" type="qcurve"/>
      <point x="434" y="819"/>
      <point x="460" y="819" type="qcurve"/>
      <point x="475" y="819"/>
      <point x="485" y="810" type="qcurve"/>
      <point x="496" y="800"/>
      <point x="496" y="783" type="qcurve"/>
      <point x="496" y="759"/>
      <point x="461" y="728" type="qcurve"/>
      <point x="445" y="714"/>
      <point x="414" y="685" type="qcurve"/>
      <point x="358" y="634"/>
    </contour>
  </outline>
</glyph>
<glyph name="ncaron" format="2">
  <advance width="658" height="1000"/>
  <unicode hex="0148"/>
  <outline>
    <contour>
      <point x="45" y="0" type="line"/>
      <point x="45" y="32" type="line"/>
      <point x="129" y="44" type="line"/>
      <point x="132" y="128"/>
      <point x="132" y="228" type="qcurve"/>
      <point x="132" y="283" type="line"/>
      <point x="132" y="342"/>
      <point x="128" y="425" type="qcurve"/>
      <point x="128" y="432"/>
      <point x="128" y="435" type="qcurve"/>
      <point x="39" y="442" type="line"/>
      <point x="39" y="474" type="line"/>
      <point x="183" y="527" type="line"/>
      <point x="197" y="517" type="line"/>
      <point x="205" y="425" type="line"/>
      <point x="249" y="473"/>
      <point x="355" y="528"/>
      <point x="405" y="528" type="qcurve"/>
      <point x="475" y="528"/>
      <point x="508" y="483" type="qcurve"/>
      <point x="542" y="436"/>
      <point x="542" y="332" type="qcurve"/>
      <point x="542" y="228" type="line"/>
      <point x="542" y="128"/>
      <point x="545" y="45" type="qcurve"/>
      <point x="624" y="32" type="line"/>
      <point x="624" y="0" type="line"/>
      <point x="379" y="0" type="line"/>
      <point x="379" y="32" type="line"/>
      <point x="464" y="44" type="line"/>
      <point x="466" y="154"/>
      <point x="466" y="228" type="qcurve"/>
      <point x="466" y="328" type="line"/>
      <point x="466" y="404"/>
      <point x="443" y="436" type="qcurve"/>
      <point x="421" y="466"/>
      <point x="372" y="466" type="qcurve"/>
      <point x="295" y="466"/>
      <point x="208" y="386" type="qcurve"/>
      <point x="208" y="228" type="line"/>
      <point x="208" y="155"/>
      <point x="210" y="45" type="qcurve"/>
      <point x="289" y="32" type="line"/>
      <point x="289" y="0" type="line"/>
    </contour>
    <contour>
      <point x="303" y="621" type="line"/>
      <point x="189" y="779" type="line"/>
      <point x="209" y="796" type="line"/>
      <point x="337" y="681" type="line"/>
      <point x="464" y="796" type="line"/>
      <point x="485" y="779" type="line"/>
      <point x="371" y="621" type="line"/>
    </contour>
  </outline>
</glyph>
<glyph name="obreve" format="2">
  <advance width="594" height="1000"/>
  <unicode hex="014F"/>
  <outline>
    <contour>
      <point x="196" y="-14"/>
      <point x="128" y="53" type="qcurve"/>
      <point x="51" y="127"/>
      <point x="51" y="384"/>
      <point x="128" y="460" type="qcurve"/>
      <point x="197" y="528"/>
      <point x="297" y="528" type="qcurve"/>
      <point x="396" y="528"/>
      <point x="465" y="460" type="qcurve"/>
      <point x="542" y="384"/>
      <point x="542" y="127"/>
      <point x="466" y="53" type="qcurve"/>
      <point x="397" y="-14"/>
    </contour>
    <contour>
      <point x="220" y="26"/>
      <point x="373" y="26"/>
      <point x="415" y="84" type="qcurve"/>
      <point x="458" y="144"/>
      <point x="458" y="366"/>
      <point x="373" y="488"/>
      <point x="297" y="488" type="qcurve"/>
      <point x="221" y="488"/>
      <point x="136" y="366"/>
      <point x="136" y="144"/>
      <point x="179" y="84" type="qcurve"/>
    </contour>
    <contour>
      <point x="297" y="627" type="qcurve"/>
      <point x="228" y="627"/>
      <point x="184" y="675" type="qcurve"/>
      <point x="144" y="719"/>
      <point x="136" y="787" type="qcurve"/>
      <point x="161" y="796" type="line"/>
      <point x="200" y="689"/>
      <point x="297" y="689" type="qcurve"/>
      <point x="396" y="689"/>
      <point x="433" y="796" type="qcurve"/>
      <point x="458" y="787" type="line"/>
      <point x="450" y="719"/>
      <point x="409" y="675" type="qcurve"/>
      <point x="365" y="627"/>
    </contour>
  </outline>
</glyph>
<glyph name="odoubleacute" format="2">
  <advance width="594" height="1000"/>
  <unicode hex="0151"/>
  <outline>
    <contour>
      <point x="193" y="-15"/>
      <point x="124" y="54" type="qcurve"/>
      <point x="49" y="128"/>
      <point x="49" y="385"/>
      <point x="125" y="461" type="qcurve"/>
      <point x="194" y="529"/>
      <point x="297" y="529" type="qcurve"/>
      <point x="399" y="529"/>
      <point x="469" y="461" type="qcurve"/>
      <point x="545" y="385"/>
      <point x="545" y="257" type="qcurve"/>
      <point x="545" y="128"/>
      <point x="470" y="53" type="qcurve"/>
      <point x="401" y="-15"/>
    </contour>
    <contour>
      <point x="220" y="16"/>
      <point x="373" y="16"/>
      <point x="416" y="78" type="qcurve"/>
      <point x="460" y="141"/>
      <point x="460" y="372"/>
      <point x="416" y="436" type="qcurve"/>
      <point x="373" y="498"/>
      <point x="297" y="498" type="qcurve"/>
      <point x="220" y="498"/>
      <point x="178" y="436" type="qcurve"/>
      <point x="134" y="372"/>
      <point x="134" y="141"/>
      <point x="178" y="78" type="qcurve"/>
    </contour>
    <contour>
      <point x="202" y="609" type="qcurve"/>
      <point x="185" y="623" type="line"/>
      <point x="202" y="650"/>
      <point x="238" y="703" type="qcurve"/>
      <point x="269" y="750"/>
      <point x="283" y="772" type="qcurve"/>
      <point x="313" y="816"/>
      <point x="336" y="816" type="qcurve"/>
      <point x="349" y="816"/>
      <point x="369" y="798"/>
      <point x="369" y="783" type="qcurve"/>
      <point x="369" y="757"/>
      <point x="328" y="724" type="qcurve"/>
      <point x="290" y="693"/>
      <point x="218" y="624" type="qcurve"/>
      <point x="207" y="614"/>
    </contour>
    <contour>
      <point x="335" y="609" type="qcurve"/>
      <point x="318" y="623" type="line"/>
      <point x="339" y="656"/>
      <point x="381" y="719" type="qcurve"/>
      <point x="406" y="755"/>
      <point x="417" y="772" type="qcurve"/>
      <point x="445" y="816"/>
      <point x="469" y="816" type="qcurve"/>
      <point x="483" y="816"/>
      <point x="503" y="798"/>
      <point x="503" y="783" type="qcurve"/>
      <point x="503" y="758"/>
      <point x="461" y="724" type="qcurve"/>
      <point x="429" y="698"/>
      <point x="369" y="641" type="qcurve"/>
      <point x="346" y="620"/>
    </contour>
  </outline>
</glyph>
<glyph name="oe" format="2">
  <advance width="949" height="1000"/>
  <unicode hex="0153"/>
  <outline>
    <contour>
      <point x="297" y="-14" type="qcurve"/>
      <point x="197" y="-14"/>
      <point x="128" y="53" type="qcurve"/>
      <point x="51" y="128"/>
      <point x="51" y="257" type="qcurve"/>
      <point x="51" y="385"/>
      <point x="128" y="460" type="qcurve"/>
      <point x="197" y="528"/>
      <point x="297" y="528" type="qcurve"/>
      <point x="357" y="528"/>
      <point x="412" y="497" type="qcurve"/>
      <point x="469" y="465"/>
      <point x="499" y="408" type="qcurve"/>
      <point x="530" y="463"/>
      <point x="637" y="528"/>
      <point x="696" y="528" type="qcurve"/>
      <point x="785" y="528"/>
      <point x="841" y="473" type="qcurve"/>
      <point x="898" y="416"/>
      <point x="898" y="323" type="qcurve"/>
      <point x="898" y="286"/>
      <point x="890" y="262" type="qcurve"/>
      <point x="534" y="262" type="line"/>
      <point x="535" y="155"/>
      <point x="586" y="97" type="qcurve"/>
      <point x="635" y="42"/>
      <point x="719" y="42" type="qcurve"/>
      <point x="816" y="42"/>
      <point x="875" y="120" type="qcurve"/>
      <point x="896" y="104" type="line"/>
      <point x="831" y="-14"/>
      <point x="692" y="-14" type="qcurve"/>
      <point x="627" y="-14"/>
      <point x="525" y="46"/>
      <point x="496" y="101" type="qcurve"/>
      <point x="464" y="46"/>
      <point x="408" y="15" type="qcurve"/>
      <point x="355" y="-14"/>
    </contour>
    <contour>
      <point x="221" y="26"/>
      <point x="374" y="26"/>
      <point x="415" y="84" type="qcurve"/>
      <point x="458" y="142"/>
      <point x="458" y="364"/>
      <point x="373" y="488"/>
      <point x="297" y="488" type="qcurve"/>
      <point x="221" y="488"/>
      <point x="136" y="367"/>
      <point x="136" y="257" type="qcurve"/>
      <point x="136" y="145"/>
    </contour>
    <contour>
      <point x="536" y="301" type="qcurve"/>
      <point x="769" y="301" type="line"/>
      <point x="799" y="301"/>
      <point x="812" y="315" type="qcurve"/>
      <point x="823" y="328"/>
      <point x="823" y="355" type="qcurve"/>
      <point x="823" y="410"/>
      <point x="788" y="448" type="qcurve"/>
      <point x="750" y="488"/>
      <point x="692" y="488" type="qcurve"/>
      <point x="634" y="488"/>
      <point x="591" y="442" type="qcurve"/>
      <point x="544" y="391"/>
    </contour>
  </outline>
</glyph>
<glyph name="Utilde" format="2">
  <advance width="792" height="1000"/>
  <unicode hex="0168"/>
  <outline>
    <contour>
      <point x="401" y="-16" type="qcurve"/>
      <point x="280" y="-16"/>
      <point x="213" y="53" type="qcurve"/>
      <point x="141" y="127"/>
      <point x="141" y="275" type="qcurve"/>
      <point x="141" y="391" type="line"/>
      <point x="141" y="587"/>
      <point x="139" y="684" type="qcurve"/>
      <point x="46" y="694" type="line"/>
      <point x="46" y="729" type="line"/>
      <point x="340" y="729" type="line"/>
      <point x="340" y="694" type="line"/>
      <point x="227" y="682" type="line"/>
      <point x="226" y="587"/>
      <point x="226" y="391" type="qcurve"/>
      <point x="226" y="299" type="line"/>
      <point x="226" y="164"/>
      <point x="277" y="103" type="qcurve"/>
      <point x="323" y="48"/>
      <point x="414" y="48" type="qcurve"/>
      <point x="516" y="48"/>
      <point x="562" y="110" type="qcurve"/>
      <point x="611" y="174"/>
      <point x="611" y="318" type="qcurve"/>
      <point x="610" y="680" type="line"/>
      <point x="492" y="694" type="line"/>
      <point x="492" y="729" type="line"/>
      <point x="752" y="729" type="line"/>
      <point x="752" y="694" type="line"/>
      <point x="657" y="682" type="line"/>
      <point x="655" y="290" type="line"/>
      <point x="655" y="134"/>
      <point x="585" y="56" type="qcurve"/>
      <point x="520" y="-16"/>
    </contour>
    <contour>
      <point x="488" y="790" type="qcurve"/>
      <point x="460" y="790"/>
      <point x="437" y="802" type="qcurve"/>
      <point x="422" y="810"/>
      <point x="400" y="829" type="qcurve"/>
      <point x="396" y="833"/>
      <point x="387" y="841" type="qcurve"/>
      <point x="366" y="861"/>
      <point x="355" y="868" type="qcurve"/>
      <point x="336" y="880"/>
      <point x="318" y="880" type="qcurve"/>
      <point x="269" y="880"/>
      <point x="242" y="794" type="qcurve"/>
      <point x="216" y="802" type="line"/>
      <point x="236" y="933"/>
      <point x="326" y="933" type="qcurve"/>
      <point x="353" y="933"/>
      <point x="377" y="921" type="qcurve"/>
      <point x="392" y="913"/>
      <point x="415" y="894" type="qcurve"/>
      <point x="420" y="890"/>
      <point x="430" y="880" type="qcurve"/>
      <point x="450" y="861"/>
      <point x="461" y="854" type="qcurve"/>
      <point x="479" y="842"/>
      <point x="497" y="842" type="qcurve"/>
      <point x="523" y="842"/>
      <point x="542" y="865" type="qcurve"/>
      <point x="558" y="885"/>
      <point x="573" y="928" type="qcurve"/>
      <point x="599" y="921" type="line"/>
      <point x="576" y="790"/>
    </contour>
  </outline>
</glyph>
<glyph name="utilde" format="2">
  <advance width="639" height="1000"/>
  <unicode hex="0169"/>
  <outline>
    <contour>
      <point x="252" y="-14" type="qcurve"/>
      <point x="181" y="-14"/>
      <point x="147" y="30" type="qcurve"/>
      <point x="109" y="78"/>
      <point x="110" y="184" type="qcurve"/>
      <point x="113" y="462" type="line"/>
      <point x="30" y="476" type="line"/>
      <point x="30" y="508" type="line"/>
      <point x="180" y="521" type="line"/>
      <point x="190" y="510" type="line"/>
      <point x="185" y="358" type="line"/>
      <point x="185" y="190" type="line"/>
      <point x="185" y="114"/>
      <point x="209" y="81" type="qcurve"/>
      <point x="232" y="50"/>
      <point x="282" y="50" type="qcurve"/>
      <point x="368" y="50"/>
      <point x="445" y="130" type="qcurve"/>
      <point x="447" y="462" type="line"/>
      <point x="365" y="476" type="line"/>
      <point x="365" y="508" type="line"/>
      <point x="513" y="521" type="line"/>
      <point x="524" y="510" type="line"/>
      <point x="520" y="358" type="line"/>
      <point x="520" y="44" type="line"/>
      <point x="597" y="32" type="line"/>
      <point x="597" y="0" type="line"/>
      <point x="455" y="-9" type="line"/>
      <point x="447" y="91" type="line"/>
      <point x="362" y="-14"/>
    </contour>
    <contour>
      <point x="392" y="628" type="qcurve"/>
      <point x="352" y="628"/>
      <point x="313" y="667" type="qcurve"/>
      <point x="308" y="672"/>
      <point x="298" y="682" type="qcurve"/>
      <point x="281" y="701"/>
      <point x="271" y="708" type="qcurve"/>
      <point x="255" y="719"/>
      <point x="239" y="719" type="qcurve"/>
      <point x="194" y="719"/>
      <point x="171" y="632" type="qcurve"/>
      <point x="147" y="640" type="line"/>
      <point x="167" y="771"/>
      <point x="247" y="771" type="qcurve"/>
      <point x="285" y="771"/>
      <point x="326" y="732" type="qcurve"/>
      <point x="331" y="727"/>
      <point x="340" y="717" type="qcurve"/>
      <point x="358" y="699"/>
      <point x="368" y="692" type="qcurve"/>
      <point x="384" y="680"/>
      <point x="400" y="680" type="qcurve"/>
      <point x="445" y="680"/>
      <point x="468" y="766" type="qcurve"/>
      <point x="492" y="759" type="line"/>
      <point x="470" y="628"/>
    </contour>
  </outline>
</glyph>
<glyph name="udoubleacute" format="2">
  <advance width="651" height="1000"/>
  <unicode hex="0171"/>
  <outline>
    <contour>
      <point x="261" y="-15" type="qcurve"/>
      <point x="187" y="-15"/>
      <point x="152" y="30" type="qcurve"/>
      <point x="113" y="78"/>
      <point x="114" y="186" type="qcurve"/>
      <point x="118" y="469" type="line"/>
      <point x="33" y="481" type="line"/>
      <point x="33" y="507" type="line"/>
      <point x="187" y="522" type="line"/>
      <point x="198" y="510" type="line"/>
      <point x="192" y="358" type="line"/>
      <point x="192" y="185" type="line"/>
      <point x="192" y="108"/>
      <point x="219" y="73" type="qcurve"/>
      <point x="243" y="41"/>
      <point x="294" y="41" type="qcurve"/>
      <point x="379" y="41"/>
      <point x="453" y="126" type="qcurve"/>
      <point x="456" y="469" type="line"/>
      <point x="373" y="480" type="line"/>
      <point x="373" y="506" type="line"/>
      <point x="525" y="522" type="line"/>
      <point x="536" y="510" type="line"/>
      <point x="532" y="358" type="line"/>
      <point x="532" y="35" type="line"/>
      <point x="609" y="27" type="line"/>
      <point x="609" y="0" type="line"/>
      <point x="458" y="-9" type="line"/>
      <point x="454" y="94" type="line"/>
      <point x="367" y="-15"/>
    </contour>
    <contour>
      <point x="231" y="609" type="qcurve"/>
      <point x="214" y="623" type="line"/>
      <point x="231" y="650"/>
      <point x="267" y="703" type="qcurve"/>
      <point x="298" y="750"/>
      <point x="312" y="772" type="qcurve"/>
      <point x="342" y="816"/>
      <point x="365" y="816" type="qcurve"/>
      <point x="378" y="816"/>
      <point x="398" y="798"/>
      <point x="398" y="783" type="qcurve"/>
      <point x="398" y="757"/>
      <point x="357" y="724" type="qcurve"/>
      <point x="319" y="693"/>
      <point x="247" y="624" type="qcurve"/>
      <point x="236" y="614"/>
    </contour>
    <contour>
      <point x="364" y="609" type="qcurve"/>
      <point x="347" y="623" type="line"/>
      <point x="368" y="656"/>
      <point x="410" y="719" type="qcurve"/>
      <point x="435" y="755"/>
      <point x="446" y="772" type="qcurve"/>
      <point x="474" y="816"/>
      <point x="498" y="816" type="qcurve"/>
      <point x="512" y="816"/>
      <point x="532" y="798"/>
      <point x="532" y="783" type="qcurve"/>
      <point x="532" y="758"/>
      <point x="490" y="724" type="qcurve"/>
      <point x="458" y="698"/>
      <point x="398" y="641" type="qcurve"/>
      <point x="375" y="620"/>
    </contour>
  </outline>
</glyph>
<glyph name="fhook" format="2">
  <advance width="539" height="1000"/>
  <unicode hex="0192"/>
  <outline>
    <contour>
      <point x="83" y="-109" type="qcurve"/>
      <point x="43" y="-109"/>
      <point x="13" y="-94" type="qcurve"/>
      <point x="-15" y="-80"/>
      <point x="-26" y="-57" type="qcurve"/>
      <point x="-23" y="-37"/>
      <point x="4" y="-13"/>
      <point x="26" y="-13" type="qcurve"/>
      <point x="64" y="-13"/>
      <point x="102" y="-48" type="qcurve"/>
      <point x="125" y="-71" type="line"/>
      <point x="158" y="-55"/>
      <point x="177" y="-25" type="qcurve"/>
      <point x="198" y="9"/>
      <point x="208" y="68" type="qcurve"/>
      <point x="215" y="107"/>
      <point x="224" y="218" type="qcurve"/>
      <point x="225" y="230"/>
      <point x="226" y="236" type="qcurve"/>
      <point x="238" y="380" type="line"/>
      <point x="111" y="380" type="line"/>
      <point x="111" y="427" type="line"/>
      <point x="242" y="427" type="line"/>
      <point x="252" y="514"/>
      <point x="271" y="569" type="qcurve"/>
      <point x="290" y="625"/>
      <point x="323" y="661" type="qcurve"/>
      <point x="378" y="719"/>
      <point x="454" y="719" type="qcurve"/>
      <point x="495" y="719"/>
      <point x="524" y="704" type="qcurve"/>
      <point x="552" y="689"/>
      <point x="563" y="666" type="qcurve"/>
      <point x="556" y="623"/>
      <point x="511" y="623" type="qcurve"/>
      <point x="473" y="623"/>
      <point x="435" y="658" type="qcurve"/>
      <point x="411" y="681" type="line"/>
      <point x="378" y="664"/>
      <point x="361" y="636" type="qcurve"/>
      <point x="340" y="603"/>
      <point x="331" y="553" type="qcurve"/>
      <point x="323" y="513"/>
      <point x="316" y="427" type="qcurve"/>
      <point x="458" y="427" type="line"/>
      <point x="458" y="380" type="line"/>
      <point x="312" y="380" type="line"/>
      <point x="301" y="251" type="line"/>
      <point x="290" y="127"/>
      <point x="273" y="63" type="qcurve"/>
      <point x="253" y="-8"/>
      <point x="214" y="-51" type="qcurve"/>
      <point x="160" y="-109"/>
    </contour>
  </outline>
</glyph>
<glyph name="Ibar" format="2">
  <advance width="404" height="1000"/>
  <unicode hex="0197"/>
  <outline>
    <contour>
      <point x="53" y="0" type="line"/>
      <point x="53" y="29" type="line"/>
      <point x="158" y="39" type="line"/>
      <point x="160" y="137"/>
      <point x="160" y="336" type="qcurve"/>
      <point x="160" y="391" type="line"/>
      <point x="56" y="391" type="line"/>
      <point x="56" y="427" type="line"/>
      <point x="160" y="427" type="line"/>
      <point x="160" y="603"/>
      <point x="158" y="690" type="qcurve"/>
      <point x="53" y="699" type="line"/>
      <point x="53" y="728" type="line"/>
      <point x="350" y="728" type="line"/>
      <point x="350" y="699" type="line"/>
      <point x="245" y="690" type="line"/>
      <point x="244" y="604"/>
      <point x="244" y="427" type="qcurve"/>
      <point x="352" y="427" type="line"/>
      <point x="352" y="391" type="line"/>
      <point x="244" y="391" type="line"/>
      <point x="244" y="337" type="line"/>
      <point x="244" y="137"/>
      <point x="245" y="39" type="qcurve"/>
      <point x="350" y="29" type="line"/>
      <point x="350" y="0" type="line"/>
    </contour>
  </outline>
</glyph>
<glyph name="acaron" format="2">
  <advance width="552" height="1000"/>
  <unicode hex="01CE"/>
  <outline>
    <contour>
      <point x="196" y="-14" type="qcurve"/>
      <point x="133" y="-14"/>
      <point x="94" y="20" type="qcurve"/>
      <point x="52" y="56"/>
      <point x="52" y="118" type="qcurve"/>
      <point x="52" y="171"/>
      <point x="89" y="207" type="qcurve"/>
      <point x="129" y="248"/>
      <point x="227" y="283" type="qcurve"/>
      <point x="305" y="307"/>
      <point x="360" y="319" type="qcurve"/>
      <point x="360" y="351" type="line"/>
      <point x="360" y="431"/>
      <point x="334" y="461" type="qcurve"/>
      <point x="310" y="488"/>
      <point x="251" y="488" type="qcurve"/>
      <point x="213" y="488"/>
      <point x="181" y="477" type="qcurve"/>
      <point x="159" y="403" type="line"/>
      <point x="147" y="359"/>
      <point x="110" y="359" type="qcurve"/>
      <point x="69" y="359"/>
      <point x="66" y="397" type="qcurve"/>
      <point x="82" y="458"/>
      <point x="191" y="528"/>
      <point x="271" y="528" type="qcurve"/>
      <point x="356" y="528"/>
      <point x="395" y="487" type="qcurve"/>
      <point x="436" y="444"/>
      <point x="436" y="348" type="qcurve"/>
      <point x="436" y="111" type="line"/>
      <point x="436" y="35"/>
      <point x="479" y="35" type="qcurve"/>
      <point x="502" y="35"/>
      <point x="524" y="59" type="qcurve"/>
      <point x="541" y="38" type="line"/>
      <point x="508" y="-12"/>
      <point x="454" y="-12" type="qcurve"/>
      <point x="416" y="-12"/>
      <point x="369" y="35"/>
      <point x="362" y="77" type="qcurve"/>
      <point x="313" y="27"/>
      <point x="281" y="8" type="qcurve"/>
      <point x="242" y="-14"/>
    </contour>
    <contour>
      <point x="225" y="45" type="qcurve"/>
      <point x="255" y="45"/>
      <point x="284" y="60" type="qcurve"/>
      <point x="310" y="74"/>
      <point x="360" y="114" type="qcurve"/>
      <point x="360" y="287" type="line"/>
      <point x="291" y="268"/>
      <point x="248" y="251" type="qcurve"/>
      <point x="181" y="226"/>
      <point x="154" y="193" type="qcurve"/>
      <point x="133" y="167"/>
      <point x="133" y="132" type="qcurve"/>
      <point x="133" y="89"/>
      <point x="159" y="66" type="qcurve"/>
      <point x="183" y="45"/>
    </contour>
    <contour>
      <point x="236" y="621" type="line"/>
      <point x="122" y="779" type="line"/>
      <point x="141" y="796" type="line"/>
      <point x="270" y="681" type="line"/>
      <point x="397" y="796" type="line"/>
      <point x="417" y="779" type="line"/>
      <point x="303" y="621" type="line"/>
    </contour>
  </outline>
</glyph>
<glyph name="Icaron" format="2">
  <advance width="401" height="1000"/>
  <unicode hex="01CF"/>
  <outline>
    <contour>
      <point x="52" y="0" type="line"/>
      <point x="52" y="36" type="line"/>
      <point x="156" y="47" type="line"/>
      <point x="159" y="142"/>
      <point x="159" y="337" type="qcurve"/>
      <point x="159" y="392" type="line"/>
      <point x="159" y="587"/>
      <point x="156" y="683" type="qcurve"/>
      <point x="52" y="694" type="line"/>
      <point x="52" y="729" type="line"/>
      <point x="349" y="729" type="line"/>
      <point x="349" y="694" type="line"/>
      <point x="245" y="683" type="line"/>
      <point x="242" y="588"/>
      <point x="242" y="392" type="qcurve"/>
      <point x="242" y="337" type="line"/>
      <point x="242" y="143"/>
      <point x="245" y="47" type="qcurve"/>
      <point x="349" y="36" type="line"/>
      <point x="349" y="0" type="line"/>
    </contour>
    <contour>
      <point x="167" y="796" type="line"/>
      <point x="54" y="924" type="line"/>
      <point x="75" y="941" type="line"/>
      <point x="201" y="848" type="line"/>
      <point x="326" y="941" type="line"/>
      <point x="347" y="924" type="line"/>
      <point x="234" y="796" type="line"/>
    </contour>
  </outline>
</glyph>
<glyph name="icaron" format="2">
  <advance width="325" height="1000"/>
  <unicode hex="01D0"/>
  <outline>
    <contour>
      <point x="41" y="0" type="line"/>
      <point x="41" y="32" type="line"/>
      <point x="127" y="45" type="line"/>
      <point x="129" y="155"/>
      <point x="129" y="228" type="qcurve"/>
      <point x="129" y="284" type="line"/>
      <point x="129" y="366"/>
      <point x="126" y="436" type="qcurve"/>
      <point x="36" y="442" type="line"/>
      <point x="36" y="475" type="line"/>
      <point x="193" y="527" type="line"/>
      <point x="208" y="517" type="line"/>
      <point x="204" y="375" type="line"/>
      <point x="204" y="228" type="line"/>
      <point x="204" y="155"/>
      <point x="206" y="45" type="qcurve"/>
      <point x="285" y="32" type="line"/>
      <point x="285" y="0" type="line"/>
    </contour>
    <contour>
      <point x="128" y="621" type="line"/>
      <point x="14" y="779" type="line"/>
      <point x="34" y="796" type="line"/>
      <point x="162" y="681" type="line"/>
      <point x="289" y="796" type="line"/>
      <point x="310" y="779" type="line"/>
      <point x="196" y="621" type="line"/>
    </contour>
  </outline>
</glyph>
<glyph name="ocaron" format="2">
  <advance width="594" height="1000"/>
  <unicode hex="01D2"/>
  <outline>
    <contour>
      <point x="297" y="-14" type="qcurve"/>
      <point x="196" y="-14"/>
      <point x="128" y="53" type="qcurve"/>
      <point x="51" y="127"/>
      <point x="51" y="384"/>
      <point x="128" y="460" type="qcurve"/>
      <point x="197" y="528"/>
      <point x="297" y="528" type="qcurve"/>
      <point x="396" y="528"/>
      <point x="465" y="460" type="qcurve"/>
      <point x="542" y="384"/>
      <point x="542" y="127"/>
      <point x="466" y="53" type="qcurve"/>
      <point x="397" y="-14"/>
    </contour>
    <contour>
      <point x="220" y="26"/>
      <point x="373" y="26"/>
      <point x="415" y="84" type="qcurve"/>
      <point x="458" y="144"/>
      <point x="458" y="366"/>
      <point x="373" y="488"/>
      <point x="297" y="488" type="qcurve"/>
      <point x="221" y="488"/>
      <point x="136" y="366"/>
      <point x="136" y="144"/>
      <point x="179" y="84" type="qcurve"/>
    </contour>
    <contour>
      <point x="263" y="621" type="line"/>
      <point x="149" y="779" type="line"/>
      <point x="168" y="796" type="line"/>
      <point x="297" y="681" type="line"/>
      <point x="424" y="796" type="line"/>
      <point x="445" y="779" type="line"/>
      <point x="330" y="621" type="line"/>
    </contour>
  </outline>
</glyph>
<glyph name="Udieresisacute" format="2">
  <advance width="792" height="1000"/>
  <unicode hex="01D7"/>
  <outline>
    <contour>
      <point x="401" y="-16" type="qcurve"/>
      <point x="280" y="-16"/>
      <point x="213" y="53" type="qcurve"/>
      <point x="141" y="127"/>
      <point x="141" y="275" type="qcurve"/>
      <point x="141" y="391" type="line"/>
      <point x="141" y="587"/>
      <point x="139" y="684" type="qcurve"/>
      <point x="46" y="694" type="line"/>
      <point x="46" y="729" type="line"/>
      <point x="340" y="729" type="line"/>
      <point x="340" y="694" type="line"/>
      <point x="227" y="682" type="line"/>
      <point x="226" y="587"/>
      <point x="226" y="391" type="qcurve"/>
      <point x="226" y="299" type="line"/>
      <point x="226" y="164"/>
      <point x="277" y="103" type="qcurve"/>
      <point x="323" y="48"/>
      <point x="414" y="48" type="qcurve"/>
      <point x="516" y="48"/>
      <point x="562" y="110" type="qcurve"/>
      <point x="611" y="174"/>
      <point x="611" y="318" type="qcurve"/>
      <point x="610" y="680" type="line"/>
      <point x="492" y="694" type="line"/>
      <point x="492" y="729" type="line"/>
      <point x="752" y="729" type="line"/>
      <point x="752" y="694" type="line"/>
      <point x="657" y="682" type="line"/>
      <point x="655" y="290" type="line"/>
      <point x="655" y="134"/>
      <point x="585" y="56" type="qcurve"/>
      <point x="520" y="-16"/>
    </contour>
    <contour>
      <point x="283" y="813"/>
      <point x="251" y="843"/>
      <point x="251" y="889"/>
      <point x="284" y="920"/>
      <point x="307" y="920" type="qcurve"/>
      <point x="330" y="920"/>
      <point x="362" y="889"/>
      <point x="362" y="843"/>
      <point x="330" y="813"/>
    </contour>
    <contour>
      <point x="544" y="813" type="qcurve"/>
      <point x="520" y="813"/>
      <point x="488" y="843"/>
      <point x="488" y="889"/>
      <point x="521" y="920"/>
      <point x="544" y="920" type="qcurve"/>
      <point x="567" y="920"/>
      <point x="600" y="889"/>
      <point x="600" y="843"/>
      <point x="567" y="813"/>
    </contour>
    <contour>
      <point x="411" y="912" type="line"/>
      <point x="390" y="933" type="line"/>
      <point x="467" y="1029" type="line"/>
      <point x="495" y="1064"/>
      <point x="520" y="1064" type="qcurve"/>
      <point x="535" y="1064"/>
      <point x="555" y="1047"/>
      <point x="555" y="1032" type="qcurve"/>
      <point x="555" y="1004"/>
      <point x="514" y="978" type="qcurve"/>
    </contour>
  </outline>
</glyph>
<glyph name="udieresisacute" format="2">
  <advance width="639" height="1000"/>
  <unicode hex="01D8"/>
  <outline>
    <contour>
      <point x="252" y="-14" type="qcurve"/>
      <point x="181" y="-14"/>
      <point x="147" y="30" type="qcurve"/>
      <point x="109" y="78"/>
      <point x="110" y="184" type="qcurve"/>
      <point x="113" y="462" type="line"/>
      <point x="30" y="476" type="line"/>
      <point x="30" y="508" type="line"/>
      <point x="180" y="521" type="line"/>
      <point x="190" y="510" type="line"/>
      <point x="185" y="358" type="line"/>
      <point x="185" y="190" type="line"/>
      <point x="185" y="114"/>
      <point x="209" y="81" type="qcurve"/>
      <point x="232" y="50"/>
      <point x="282" y="50" type="qcurve"/>
      <point x="368" y="50"/>
      <point x="445" y="130" type="qcurve"/>
      <point x="447" y="462" type="line"/>
      <point x="365" y="476" type="line"/>
      <point x="365" y="508" type="line"/>
      <point x="513" y="521" type="line"/>
      <point x="524" y="510" type="line"/>
      <point x="520" y="358" type="line"/>
      <point x="520" y="44" type="line"/>
      <point x="597" y="32" type="line"/>
      <point x="597" y="0" type="line"/>
      <point x="455" y="-9" type="line"/>
      <point x="447" y="91" type="line"/>
      <point x="362" y="-14"/>
    </contour>
    <contour>
      <point x="190" y="621"/>
      <point x="158" y="651"/>
      <point x="158" y="674" type="qcurve"/>
      <point x="158" y="696"/>
      <point x="190" y="726"/>
      <point x="212" y="726" type="qcurve"/>
      <point x="235" y="726"/>
      <point x="267" y="696"/>
      <point x="267" y="674" type="qcurve"/>
      <point x="267" y="651"/>
      <point x="235" y="621"/>
    </contour>
    <contour>
      <point x="427" y="621" type="qcurve"/>
      <point x="404" y="621"/>
      <point x="372" y="651"/>
      <point x="372" y="674" type="qcurve"/>
      <point x="372" y="696"/>
      <point x="404" y="726"/>
      <point x="427" y="726" type="qcurve"/>
      <point x="450" y="726"/>
      <point x="482" y="696"/>
      <point x="482" y="674" type="qcurve"/>
      <point x="482" y="651"/>
      <point x="450" y="621"/>
    </contour>
    <contour>
      <point x="315" y="727" type="line"/>
      <point x="293" y="742" type="line"/>
      <point x="355" y="857" type="line"/>
      <point x="373" y="898"/>
      <point x="405" y="898" type="qcurve"/>
      <point x="419" y="898"/>
      <point x="439" y="879"/>
      <point x="439" y="863" type="qcurve"/>
      <point x="439" y="838"/>
      <point x="412" y="815" type="qcurve"/>
    </contour>
  </outline>
</glyph>
<glyph name="udieresiscaron" format="2">
  <advance width="639" height="1000"/>
  <unicode hex="01DA"/>
  <outline>
    <contour>
      <point x="252" y="-14" type="qcurve"/>
      <point x="181" y="-14"/>
      <point x="147" y="30" type="qcurve"/>
      <point x="109" y="78"/>
      <point x="110" y="184" type="qcurve"/>
      <point x="113" y="462" type="line"/>
      <point x="30" y="476" type="line"/>
      <point x="30" y="508" type="line"/>
      <point x="180" y="521" type="line"/>
      <point x="190" y="510" type="line"/>
      <point x="185" y="358" type="line"/>
      <point x="185" y="190" type="line"/>
      <point x="185" y="114"/>
      <point x="209" y="81" type="qcurve"/>
      <point x="232" y="50"/>
      <point x="282" y="50" type="qcurve"/>
      <point x="368" y="50"/>
      <point x="445" y="130" type="qcurve"/>
      <point x="447" y="462" type="line"/>
      <point x="365" y="476" type="line"/>
      <point x="365" y="508" type="line"/>
      <point x="513" y="521" type="line"/>
      <point x="524" y="510" type="line"/>
      <point x="520" y="358" type="line"/>
      <point x="520" y="44" type="line"/>
      <point x="597" y="32" type="line"/>
      <point x="597" y="0" type="line"/>
      <point x="455" y="-9" type="line"/>
      <point x="447" y="91" type="line"/>
      <point x="362" y="-14"/>
    </contour>
    <contour>
      <point x="185" y="634"/>
      <point x="152" y="665"/>
      <point x="152" y="712"/>
      <point x="185" y="742"/>
      <point x="209" y="742" type="qcurve"/>
      <point x="232" y="742"/>
      <point x="265" y="711"/>
      <point x="265" y="665"/>
      <point x="232" y="634"/>
    </contour>
    <contour>
      <point x="430" y="634" type="qcurve"/>
      <point x="407" y="634"/>
      <point x="374" y="665"/>
      <point x="374" y="711"/>
      <point x="407" y="742"/>
      <point x="430" y="742" type="qcurve"/>
      <point x="454" y="742"/>
      <point x="487" y="712"/>
      <point x="487" y="665"/>
      <point x="454" y="634"/>
    </contour>
    <contour>
      <point x="286" y="755" type="line"/>
      <point x="174" y="885" type="line"/>
      <point x="195" y="902" type="line"/>
      <point x="320" y="808" type="line"/>
      <point x="446" y="902" type="line"/>
      <point x="465" y="885" type="line"/>
      <point x="353" y="755" type="line"/>
    </contour>
  </outline>
</glyph>
<glyph name="Ubar" format="2">
  <advance width="796" height="1000"/>
  <unicode hex="0244"/>
  <outline>
    <contour>
      <point x="402" y="-16" type="qcurve"/>
      <point x="143" y="-16"/>
      <point x="143" y="276" type="qcurve"/>
      <point x="143" y="391" type="line"/>
      <point x="48" y="391" type="line"/>
      <point x="48" y="427" type="line"/>
      <point x="143" y="427" type="line"/>
      <point x="143" y="604"/>
      <point x="142" y="691" type="qcurve"/>
      <point x="46" y="699" type="line"/>
      <point x="46" y="728" type="line"/>
      <point x="338" y="728" type="line"/>
      <point x="338" y="699" type="line"/>
      <point x="229" y="690" type="line"/>
      <point x="227" y="604"/>
      <point x="227" y="427" type="qcurve"/>
      <point x="619" y="427" type="line"/>
      <point x="619" y="687" type="line"/>
      <point x="496" y="699" type="line"/>
      <point x="496" y="728" type="line"/>
      <point x="755" y="728" type="line"/>
      <point x="755" y="699" type="line"/>
      <point x="657" y="687" type="line"/>
      <point x="656" y="427" type="line"/>
      <point x="756" y="427" type="line"/>
      <point x="756" y="391" type="line"/>
      <point x="656" y="391" type="line"/>
      <point x="656" y="285" type="line"/>
      <point x="655" y="-16"/>
    </contour>
    <contour>
      <point x="418" y="38" type="qcurve"/>
      <point x="523" y="38"/>
      <point x="570" y="99" type="qcurve"/>
      <point x="620" y="163"/>
      <point x="619" y="306" type="qcurve"/>
      <point x="619" y="391" type="line"/>
      <point x="227" y="391" type="line"/>
      <point x="227" y="291" type="line"/>
      <point x="227" y="38"/>
    </contour>
  </outline>
</glyph>
<glyph name="ubar" format="2">
  <advance width="651" height="1000"/>
  <unicode hex="0289"/>
  <outline>
    <contour>
      <point x="261" y="-15" type="qcurve"/>
      <point x="187" y="-15"/>
      <point x="152" y="30" type="qcurve"/>
      <point x="113" y="78"/>
      <point x="114" y="186" type="qcurve"/>
      <point x="115" y="267" type="line"/>
      <point x="30" y="267" type="line"/>
      <point x="30" y="303" type="line"/>
      <point x="116" y="303" type="line"/>
      <point x="118" y="469" type="line"/>
      <point x="33" y="481" type="line"/>
      <point x="33" y="507" type="line"/>
      <point x="187" y="522" type="line"/>
      <point x="198" y="510" type="line"/>
      <point x="192" y="358" type="line"/>
      <point x="192" y="303" type="line"/>
      <point x="455" y="303" type="line"/>
      <point x="456" y="469" type="line"/>
      <point x="373" y="480" type="line"/>
      <point x="373" y="506" type="line"/>
      <point x="525" y="522" type="line"/>
      <point x="536" y="510" type="line"/>
      <point x="532" y="358" type="line"/>
      <point x="532" y="303" type="line"/>
      <point x="622" y="303" type="line"/>
      <point x="622" y="267" type="line"/>
      <point x="532" y="267" type="line"/>
      <point x="532" y="35" type="line"/>
      <point x="609" y="27" type="line"/>
      <point x="609" y="0" type="line"/>
      <point x="458" y="-9" type="line"/>
      <point x="454" y="94" type="line"/>
      <point x="367" y="-15"/>
    </contour>
    <contour>
      <point x="294" y="41" type="qcurve"/>
      <point x="379" y="41"/>
      <point x="453" y="126" type="qcurve"/>
      <point x="454" y="267" type="line"/>
      <point x="192" y="267" type="line"/>
      <point x="192" y="185" type="line"/>
      <point x="192" y="108"/>
      <point x="219" y="73" type="qcurve"/>
      <point x="243" y="41"/>
    </contour>
  </outline>
</glyph>
<glyph name="macronmod" format="2">
  <advance width="1000" height="1000"/>
  <unicode hex="02C9"/>
  <outline>
    <contour>
      <point x="307" y="539" type="line"/>
      <point x="307" y="590" type="line"/>
      <point x="665" y="590" type="line"/>
      <point x="665" y="539" type="line"/>
    </contour>
  </outline>
</glyph>
<glyph name="acutemod" format="2">
  <advance width="600" height="1000"/>
  <unicode hex="02CA"/>
  <outline>
    <contour>
      <point x="122" y="425"/>
      <point x="56" y="514"/>
      <point x="110" y="555" type="qcurve"/>
      <point x="142" y="581"/>
      <point x="288" y="676" type="qcurve"/>
      <point x="345" y="714"/>
      <point x="379" y="736" type="qcurve"/>
      <point x="514" y="826" type="line"/>
      <point x="532" y="805" type="line"/>
      <point x="414" y="692" type="line"/>
      <point x="386" y="665"/>
      <point x="338" y="620" type="qcurve"/>
      <point x="210" y="497"/>
      <point x="177" y="470" type="qcurve"/>
    </contour>
  </outline>
</glyph>
<glyph name="gravemod" format="2">
  <advance width="600" height="1000"/>
  <unicode hex="02CB"/>
  <outline>
    <contour>
      <point x="511" y="431" type="line"/>
      <point x="379" y="526" type="line"/>
      <point x="329" y="561"/>
      <point x="253" y="614" type="qcurve"/>
      <point x="142" y="690"/>
      <point x="115" y="714" type="qcurve"/>
      <point x="63" y="759"/>
      <point x="96" y="800" type="qcurve"/>
      <point x="131" y="842"/>
      <point x="184" y="798" type="qcurve"/>
      <point x="209" y="776"/>
      <point x="291" y="693" type="qcurve"/>
      <point x="363" y="619"/>
      <point x="414" y="568" type="qcurve"/>
      <point x="529" y="453" type="line"/>
    </contour>
  </outline>
</glyph>
<glyph name="dotaccentmod" format="2">
  <advance width="500" height="500"/>
  <unicode hex="02D9"/>
  <outline>
    <contour>
      <point x="250" y="295" type="qcurve"/>
      <point x="212" y="296"/>
      <point x="187" y="322" type="qcurve"/>
      <point x="163" y="347"/>
      <point x="161" y="418"/>
      <point x="185" y="445" type="qcurve"/>
      <point x="210" y="474"/>
      <point x="249" y="474" type="qcurve"/>
      <point x="290" y="473"/>
      <point x="315" y="445" type="qcurve"/>
      <point x="339" y="419"/>
      <point x="338" y="382" type="qcurve"/>
      <point x="339" y="346"/>
      <point x="290" y="296"/>
    </contour>
  </outline>
</glyph>
<glyph name="yindepartingtonemod-bopo" format="2">
  <advance width="600" height="1000"/>
  <unicode hex="02EA"/>
  <outline>
    <contour>
      <point x="93" y="438" type="line"/>
      <point x="93" y="830" type="line"/>
      <point x="143" y="830" type="line"/>
      <point x="143" y="500" type="line"/>
      <point x="512" y="500" type="line"/>
      <point x="512" y="438" type="line"/>
    </contour>
  </outline>
</glyph>
<glyph name="yangdepartingtonemod-bopo" format="2">
  <advance width="600" height="1000"/>
  <unicode hex="02EB"/>
  <outline>
    <contour>
      <point x="93" y="398" type="line"/>
      <point x="93" y="830" type="line"/>
      <point x="135" y="830" type="line"/>
      <point x="135" y="651" type="line"/>
      <point x="512" y="651" type="line"/>
      <point x="512" y="589" type="line"/>
      <point x="135" y="589" type="line"/>
      <point x="135" y="398" type="line"/>
    </contour>
  </outline>
</glyph>
<glyph name="acutecomb" format="2">
  <advance width="0" height="1000"/>
  <unicode hex="0301"/>
  <outline>
    <contour>
      <point x="-231" y="609" type="qcurve"/>
      <point x="-248" y="623" type="line"/>
      <point x="-214" y="676"/>
      <point x="-149" y="772" type="qcurve"/>
      <point x="-121" y="816"/>
      <point x="-96" y="816" type="qcurve"/>
      <point x="-83" y="816"/>
      <point x="-63" y="798"/>
      <point x="-63" y="783" type="qcurve"/>
      <point x="-63" y="760"/>
      <point x="-105" y="724" type="qcurve"/>
      <point x="-140" y="694"/>
      <point x="-207" y="632" type="qcurve"/>
      <point x="-223" y="617"/>
    </contour>
  </outline>
</glyph>
<glyph name="circumflexcomb" format="2">
  <advance width="0" height="1000"/>
  <unicode hex="0302"/>
  <outline>
    <contour>
      <point x="-337" y="599" type="line"/>
      <point x="-353" y="614" type="line"/>
      <point x="-222" y="796" type="line"/>
      <point x="-189" y="796" type="line"/>
      <point x="-58" y="614" type="line"/>
      <point x="-74" y="599" type="line"/>
      <point x="-205" y="724" type="line"/>
    </contour>
  </outline>
</glyph>
<glyph name="doubleacutecomb" format="2">
  <advance width="0" height="1000"/>
  <unicode hex="030B"/>
  <outline>
    <contour>
      <point x="-300" y="609" type="qcurve"/>
      <point x="-317" y="623" type="line"/>
      <point x="-300" y="650"/>
      <point x="-264" y="703" type="qcurve"/>
      <point x="-233" y="750"/>
      <point x="-219" y="772" type="qcurve"/>
      <point x="-189" y="816"/>
      <point x="-166" y="816" type="qcurve"/>
      <point x="-153" y="816"/>
      <point x="-133" y="798"/>
      <point x="-133" y="783" type="qcurve"/>
      <point x="-133" y="757"/>
      <point x="-174" y="724" type="qcurve"/>
      <point x="-212" y="693"/>
      <point x="-284" y="624" type="qcurve"/>
      <point x="-295" y="614"/>
    </contour>
    <contour>
      <point x="-167" y="609" type="qcurve"/>
      <point x="-184" y="623" type="line"/>
      <point x="-167" y="650"/>
      <point x="-131" y="703" type="qcurve"/>
      <point x="-100" y="750"/>
      <point x="-86" y="772" type="qcurve"/>
      <point x="-56" y="816"/>
      <point x="-33" y="816" type="qcurve"/>
      <point x="-19" y="816"/>
      <point x="1" y="798"/>
      <point x="1" y="783" type="qcurve"/>
      <point x="1" y="758"/>
      <point x="-41" y="724" type="qcurve"/>
      <point x="-73" y="698"/>
      <point x="-133" y="641" type="qcurve"/>
      <point x="-156" y="620"/>
    </contour>
  </outline>
</glyph>
<glyph name="caroncomb" format="2">
  <advance width="0" height="1000"/>
  <unicode hex="030C"/>
  <outline>
    <contour>
      <point x="-232" y="618" type="line"/>
      <point x="-356" y="779" type="line"/>
      <point x="-339" y="794" type="line"/>
      <point x="-205" y="680" type="line"/>
      <point x="-72" y="794" type="line"/>
      <point x="-55" y="779" type="line"/>
      <point x="-179" y="618" type="line"/>
    </contour>
  </outline>
</glyph>
<glyph name="verticallinecomb" format="2">
  <advance width="0" height="1000"/>
  <unicode hex="030D"/>
  <outline>
    <contour>
      <point x="-235" y="616" type="line"/>
      <point x="-242" y="803" type="line"/>
      <point x="-169" y="803" type="line"/>
      <point x="-176" y="616" type="line"/>
    </contour>
  </outline>
</glyph>
<glyph name="dotaboverightcomb" format="2">
  <advance width="0" height="1000"/>
  <unicode hex="0358"/>
  <outline>
    <contour>
      <point x="-80" y="447" type="qcurve"/>
      <point x="-104" y="447"/>
      <point x="-137" y="479"/>
      <point x="-137" y="527"/>
      <point x="-104" y="557"/>
      <point x="-57" y="557"/>
      <point x="-23" y="526"/>
      <point x="-23" y="479"/>
      <point x="-57" y="447"/>
    </contour>
  </outline>
</glyph>
<glyph name="Beta-grek" format="2">
  <advance width="675" height="1000"/>
  <unicode hex="0392"/>
  <outline>
    <contour>
      <point x="52" y="0" type="line"/>
      <point x="52" y="36" type="line"/>
      <point x="156" y="47" type="line"/>
      <point x="159" y="143"/>
      <point x="159" y="338" type="qcurve"/>
      <point x="159" y="393" type="line"/>
      <point x="159" y="587"/>
      <point x="156" y="683" type="qcurve"/>
      <point x="52" y="694" type="line"/>
      <point x="52" y="729" type="line"/>
      <point x="353" y="729" type="line"/>
      <point x="465" y="729"/>
      <point x="528" y="680" type="qcurve"/>
      <point x="588" y="633"/>
      <point x="588" y="553" type="qcurve"/>
      <point x="588" y="491"/>
      <point x="548" y="447" type="qcurve"/>
      <point x="504" y="399"/>
      <point x="417" y="380" type="qcurve"/>
      <point x="522" y="366"/>
      <point x="576" y="316" type="qcurve"/>
      <point x="625" y="270"/>
      <point x="625" y="198" type="qcurve"/>
      <point x="625" y="115"/>
      <point x="560" y="61" type="qcurve"/>
      <point x="485" y="0"/>
      <point x="346" y="0" type="qcurve"/>
    </contour>
    <contour>
      <point x="245" y="41" type="qcurve"/>
      <point x="326" y="41" type="line"/>
      <point x="430" y="41"/>
      <point x="536" y="122"/>
      <point x="536" y="198" type="qcurve"/>
      <point x="536" y="358"/>
      <point x="312" y="358" type="qcurve"/>
      <point x="242" y="358" type="line"/>
      <point x="242" y="139"/>
    </contour>
    <contour>
      <point x="242" y="398" type="qcurve"/>
      <point x="305" y="398" type="line"/>
      <point x="504" y="398"/>
      <point x="504" y="550" type="qcurve"/>
      <point x="504" y="622"/>
      <point x="418" y="688"/>
      <point x="326" y="688" type="qcurve"/>
      <point x="245" y="688" type="line"/>
      <point x="242" y="594"/>
    </contour>
  </outline>
</glyph>
<glyph name="Gamma-grek" format="2">
  <advance width="608" height="1000"/>
  <unicode hex="0393"/>
  <outline>
    <contour>
      <point x="52" y="0" type="line"/>
      <point x="52" y="36" type="line"/>
      <point x="156" y="47" type="line"/>
      <point x="159" y="142"/>
      <point x="159" y="337" type="qcurve"/>
      <point x="159" y="392" type="line"/>
      <point x="159" y="587"/>
      <point x="156" y="683" type="qcurve"/>
      <point x="52" y="694" type="line"/>
      <point x="52" y="729" type="line"/>
      <point x="566" y="729" type="line"/>
      <point x="573" y="525" type="line"/>
      <point x="523" y="525" type="line"/>
      <point x="493" y="685" type="line"/>
      <point x="245" y="685" type="line"/>
      <point x="242" y="590"/>
      <point x="242" y="392" type="qcurve"/>
      <point x="242" y="337" type="line"/>
      <point x="242" y="143"/>
      <point x="245" y="47" type="qcurve"/>
      <point x="352" y="36" type="line"/>
      <point x="352" y="0" type="line"/>
    </contour>
  </outline>
</glyph>
<glyph name="Zeta-grek" format="2">
  <advance width="599" height="1000"/>
  <unicode hex="0396"/>
  <outline>
    <contour>
      <point x="24" y="0" type="line"/>
      <point x="24" y="35" type="line"/>
      <point x="456" y="685" type="line"/>
      <point x="121" y="685" type="line"/>
      <point x="90" y="539" type="line"/>
      <point x="37" y="539" type="line"/>
      <point x="46" y="729" type="line"/>
      <point x="552" y="729" type="line"/>
      <point x="552" y="696" type="line"/>
      <point x="123" y="45" type="line"/>
      <point x="490" y="45" type="line"/>
      <point x="522" y="192" type="line"/>
      <point x="574" y="192" type="line"/>
      <point x="566" y="0" type="line"/>
    </contour>
  </outline>
</glyph>
<glyph name="Lamda-grek" format="2">
  <advance width="716" height="1000"/>
  <unicode hex="039B"/>
  <outline>
    <contour>
      <point x="4" y="0" type="line"/>
      <point x="4" y="36" type="line"/>
      <point x="98" y="48" type="line"/>
      <point x="328" y="736" type="line"/>
      <point x="385" y="736" type="line"/>
      <point x="619" y="45" type="line"/>
      <point x="707" y="36" type="line"/>
      <point x="707" y="0" type="line"/>
      <point x="421" y="0" type="line"/>
      <point x="421" y="36" type="line"/>
      <point x="530" y="47" type="line"/>
      <point x="336" y="637" type="line"/>
      <point x="142" y="49" type="line"/>
      <point x="253" y="36" type="line"/>
      <point x="253" y="0" type="line"/>
    </contour>
  </outline>
</glyph>
<glyph name="Rho-grek" format="2">
  <advance width="637" height="1000"/>
  <unicode hex="03A1"/>
  <outline>
    <contour>
      <point x="52" y="0" type="line"/>
      <point x="52" y="36" type="line"/>
      <point x="156" y="47" type="line"/>
      <point x="159" y="142"/>
      <point x="159" y="337" type="qcurve"/>
      <point x="159" y="392" type="line"/>
      <point x="159" y="587"/>
      <point x="156" y="683" type="qcurve"/>
      <point x="52" y="694" type="line"/>
      <point x="52" y="729" type="line"/>
      <point x="340" y="729" type="line"/>
      <point x="470" y="729"/>
      <point x="539" y="670" type="qcurve"/>
      <point x="605" y="614"/>
      <point x="605" y="416"/>
      <point x="536" y="359" type="qcurve"/>
      <point x="458" y="295"/>
      <point x="305" y="295" type="qcurve"/>
      <point x="242" y="295" type="line"/>
      <point x="242" y="131"/>
      <point x="245" y="47" type="qcurve"/>
      <point x="352" y="36" type="line"/>
      <point x="352" y="0" type="line"/>
    </contour>
    <contour>
      <point x="242" y="335" type="line"/>
      <point x="314" y="335" type="line"/>
      <point x="517" y="335"/>
      <point x="517" y="515" type="qcurve"/>
      <point x="517" y="688"/>
      <point x="324" y="688" type="qcurve"/>
      <point x="245" y="688" type="line"/>
      <point x="242" y="592"/>
      <point x="242" y="392" type="qcurve"/>
    </contour>
  </outline>
</glyph>
